<?xml version="1.0" encoding="utf-8"?>
<!-- Generator: Adobe Illustrator 16.0.0, SVG Export Plug-In . SVG Version: 6.00 Build 0)  -->
<!DOCTYPE svg PUBLIC "-//W3C//DTD SVG 1.1//EN" "http://www.w3.org/Graphics/SVG/1.1/DTD/svg11.dtd">
<svg version="1.1" id="Capa_1" xmlns="http://www.w3.org/2000/svg" xmlns:xlink="http://www.w3.org/1999/xlink" x="0px" y="0px"
	 width="200px" height="74px" viewBox="0 0 200 74" enable-background="new 0 0 200 74" xml:space="preserve">
<g>
	<polygon fill="#FFFFFF" points="137.133,72.424 140.928,72.424 140.928,66.413 133.578,66.413 	"/>
	<path fill="#FFFFFF" d="M69.884,39.84c-9.66,0-16.724,6.92-16.724,16.579c0,9.662,7.064,16.58,16.724,16.58
		c9.709,0,16.771-6.918,16.771-16.58C86.655,46.76,79.593,39.84,69.884,39.84z M69.884,66.943c-5.912,0-9.707-4.565-9.707-10.524
		c0-6.006,3.795-10.524,9.707-10.524c5.911,0,9.759,4.52,9.759,10.524C79.643,62.378,75.795,66.943,69.884,66.943z M30.031,40.367
		h21.451v6.01h-9.326v26.047h-6.871V46.375h-5.254V40.367z M26.366,62.717c0,5.86-4.181,10.282-12.833,10.282
		c-6.15,0-10.573-2.065-13.552-5.094l3.7-5.188c2.26,2.354,5.769,4.323,10.188,4.323c3.75,0,5.576-1.729,5.576-3.556
		c0-5.672-18.455-1.778-18.455-13.842c0-5.334,4.614-9.757,12.159-9.757c2.983,0,5.663,0.544,8.012,1.57v7.327
		c-2.502-1.999-5.647-2.938-8.638-2.938c-2.931,0-4.564,1.3-4.564,3.222C7.959,54.159,26.366,50.749,26.366,62.717z M140.928,40.367
		v6.01h-22.685v-6.01H140.928z M134.034,72.424h-15.791V53.148h22.347v6.009h-15.523v7.256h5.416L134.034,72.424z M106.086,60.215
		l7.208,12.208h-7.834l-9.831-17.397h5.698c2.739,0,4.807-1.635,4.807-4.324c0-2.691-2.065-4.325-4.807-4.325H90.74l-3.396-6.008
		h14.991c6.683,0,10.769,4.373,10.769,10.333C113.104,56.37,109.548,59.398,106.086,60.215z"/>
	<g>
		<path fill="#FFFFFF" d="M94.257,18.586c0,4.391-3.028,8.138-8.48,8.138h-6.433v8.972H73.97V21.993h11.088
			c2.121,0,3.713-1.325,3.713-3.407c0-2.12-1.592-3.407-3.713-3.407h-8.414l-2.674-4.732h11.807
			C91.267,10.447,94.257,14.156,94.257,18.586z M40.661,26.08c2.725-0.643,5.526-3.028,5.526-7.495c0-4.694-3.219-8.139-8.479-8.139
			h-11.81l2.674,4.732h8.342c2.157,0,3.786,1.287,3.786,3.407c0,2.119-1.628,3.407-3.786,3.407h-4.489l7.744,13.703h6.171
			L40.661,26.08z M15.294,31.101c-0.595,0.18-1.226,0.278-1.876,0.278c-4.58,0-7.911-3.52-7.911-8.291
			c0-4.769,3.332-8.289,7.911-8.289c2.612,0,4.883,1.627,5.945,3.672l4.619-2.271c-1.779-3.142-4.998-6.17-10.563-6.17
			c-7.57,0-13.438,5.299-13.438,13.058c0,7.761,5.868,13.06,13.438,13.06c1.641,0,3.066-0.271,4.318-0.726L15.294,31.101z
			 M61.972,35.696V25.361l9.652-14.914H65.49l-6.206,10.145L53,10.447h-6.131l9.727,14.914v10.335H61.972z M106.882,35.696V15.179
			h7.347v-4.732H97.335v4.732h4.136v20.517H106.882z M128.725,36.149c7.646,0,13.211-5.45,13.211-13.06
			c0-7.607-5.565-13.057-13.211-13.057c-7.605,0-13.175,5.45-13.175,13.057C115.55,30.699,121.117,36.149,128.725,36.149z
			 M128.725,31.379c-4.656,0-7.646-3.595-7.646-8.291c0-4.73,2.99-8.289,7.646-8.289s7.687,3.559,7.687,8.289
			C136.409,27.784,133.381,31.379,128.725,31.379z"/>
		<path fill="#FFFFFF" d="M17.593,29.858l2.565,4.341c1.699-1.156,2.938-2.698,3.823-4.257l-4.619-2.234
			C18.943,28.515,18.333,29.254,17.593,29.858z"/>
	</g>
	<g>
		<g>
			<path fill="#FFFFFF" d="M150.539,72.456l2.516-7.146h2.321l2.515,7.146h-2.272l-0.271-0.945h-2.271l-0.279,0.945H150.539z
				 M153.491,70.014h1.438l-0.714-2.476L153.491,70.014z"/>
			<path fill="#FFFFFF" d="M160.62,72.456h-2.075v-7.146h2.795l0.988,3.567c0.014,0.047,0.041,0.158,0.08,0.33
				c0.039,0.175,0.091,0.412,0.164,0.718c0.045-0.238,0.088-0.449,0.123-0.63c0.041-0.178,0.076-0.313,0.104-0.405l1.018-3.58h2.787
				v7.146h-2.076l0.021-3.517c0-0.215,0-0.422,0.002-0.623c0.002-0.202,0.002-0.411,0.008-0.629
				c-0.078,0.369-0.174,0.771-0.281,1.209l-0.014,0.062l-0.886,3.498h-1.603l-0.893-3.418c-0.041-0.156-0.084-0.334-0.127-0.533
				c-0.043-0.202-0.096-0.475-0.166-0.815c0.014,0.307,0.02,0.57,0.021,0.791c0.008,0.221,0.008,0.396,0.008,0.527L160.62,72.456
				L160.62,72.456z"/>
			<path fill="#FFFFFF" d="M167.953,72.456v-7.146h5.709v1.713h-3.416v0.951h2.888v1.641h-2.888v1.107h3.557v1.735h-5.85V72.456z"/>
			<path fill="#FFFFFF" d="M174.132,72.456l2.456-3.715l-2.236-3.433h2.582l0.955,1.812l1.041-1.812h2.524l-2.315,3.433l2.395,3.715
				h-2.592l-1.082-1.935l-1.086,1.935H174.132z"/>
			<path fill="#FFFFFF" d="M182.139,72.456v-7.146h5.405v1.803h-3.11v1.104h2.476v1.729h-2.476v2.511H182.139z"/>
			<path fill="#FFFFFF" d="M188.455,72.456v-7.146h2.339v7.146H188.455z"/>
			<path fill="#FFFFFF" d="M192.189,72.456v-7.146h2.18l2.005,3.324c0.062,0.094,0.127,0.229,0.194,0.396
				c0.07,0.174,0.144,0.379,0.221,0.621c-0.02-0.125-0.032-0.266-0.043-0.416c-0.01-0.152-0.014-0.336-0.014-0.553v-3.375h2.188
				v7.147h-2.188l-2.004-3.299c-0.062-0.099-0.129-0.233-0.201-0.412s-0.146-0.381-0.224-0.61c0.024,0.125,0.041,0.258,0.052,0.396
				c0.012,0.139,0.014,0.33,0.014,0.578v3.348L192.189,72.456L192.189,72.456z"/>
		</g>
		<g>
			<g>
				<g>
					<path fill="#FFFFFF" d="M160.637,39.912h-10.218v19.273C150.419,59.186,153.373,46.787,160.637,39.912z"/>
				</g>
			</g>
			<g>
				<g>
					<path fill="#FFFFFF" d="M184.839,25.464l2.597,4.584c5.194,3.453,9.75,7.158-1.334,18.522c0,0,0.613-4.557-8.797-6.984
						c-11.342-2.922-26.959,9.062,1.926,21.372h19.691V9.431H155.33C164.672,12.713,176.865,17.719,184.839,25.464z"/>
				</g>
			</g>
		</g>
	</g>
</g>
</svg>
