<?xml version="1.0" encoding="UTF-8"?>
<svg width="26px" height="37px" viewBox="0 0 26 37" version="1.1" xmlns="http://www.w3.org/2000/svg" xmlns:xlink="http://www.w3.org/1999/xlink">
    <!-- Generator: sketchtool 61 (101010) - https://sketch.com -->
    <title>87CBCB12-B939-43AD-9DA0-F640A53499D6</title>
    <desc>Created with sketchtool.</desc>
    <g id="Page-1" stroke="none" stroke-width="1" fill="none" fill-rule="evenodd">
        <g id="Home-crypto" transform="translate(-84.000000, -698.000000)">
            <g id="Header" transform="translate(-3024.000000, -2802.000000)">
                <g id="Iconos-" transform="translate(3104.000000, 3375.000000)">
                    <g id="Candado" transform="translate(4.000000, 124.999999)">
                        <path d="M6.452,9.11800078 C6.425,5.53500078 9.308,2.60700078 12.892,2.58000078 L12.904,2.58000078 C14.602,2.58100078 16.229,3.26300078 17.42,4.47300078 C18.648,5.70800078 19.344,7.37600078 19.356,9.11800078 L19.356,13.5480008 L21.937,13.5480008 L21.937,9.11800078 C21.931,6.70000078 20.971,4.38200078 19.267,2.66700078 C17.59,0.96000078 15.296,-0.000999220344 12.903,1.50990331e-14 C7.89,0.0230007797 3.845,4.10500078 3.86691068,9.11800078 L3.86691068,13.5480008 L6.448,13.5480008 L6.452,9.11800078 Z" id="Fill-560" fill="#4A6EEB"></path>
                        <path d="M24.516,13.2476778 L1.29,13.2476778 C0.591,13.2349008 0.013,13.7919008 1.77635684e-15,14.4919008 C1.77635684e-15,14.5069008 1.77635684e-15,14.5219008 1.77635684e-15,14.5379008 L1.77635684e-15,31.7379008 C0.01,32.3009008 0.369,32.7989008 0.9,32.9849008 L12.516,36.4339008 C12.771,36.4909008 13.036,36.4909008 13.29,36.4339008 L24.903,32.9929008 C25.453,32.8319008 25.824,32.3189008 25.803,31.7459008 L25.803,14.5339008 C25.814,13.8339008 25.255,13.2589008 24.556,13.2476778 L24.516,13.2476778 Z" id="Fill-562" fill="#244797"></path>
                        <path d="M14.1942,23.1449008 C14.1942,22.4329008 13.6162,21.8539008 12.9032,21.8539008 C12.1912,21.8539008 11.6132,22.4329008 11.6132,23.1449008 L11.6132,26.5859008 C11.6132,27.2989008 12.1912,27.8759008 12.9032,27.8759008 C13.6162,27.8759008 14.1942,27.2989008 14.1942,26.5859008 L14.1942,23.1449008 Z" id="Fill-564" fill="#4A6EEB"></path>
                    </g>
                </g>
            </g>
        </g>
    </g>
</svg>