<?xml version="1.0" encoding="UTF-8"?>
<svg width="241px" height="153px" viewBox="0 0 241 153" version="1.1" xmlns="http://www.w3.org/2000/svg" xmlns:xlink="http://www.w3.org/1999/xlink">
    <!-- Generator: sketchtool 61 (101010) - https://sketch.com -->
    <title>F547F324-5850-47E6-92ED-B8A051663DE6</title>
    <desc>Created with sketchtool.</desc>
    <g id="Page-1" stroke="none" stroke-width="1" fill="none" fill-rule="evenodd">
        <g id="Home-crypto" transform="translate(-1022.000000, -1205.000000)">
            <g id="Seccion-2" transform="translate(173.000000, 1016.000000)">
                <g id="Ilustracion-3" transform="translate(849.000000, 189.000000)">
                    <polygon id="Fill-2" fill="#3F3D56" points="19.258 122.988 197.34 122.988 197.34 122.561 19.258 122.561"></polygon>
                    <path d="M2.0246,85.1161 C2.0246,85.1161 30.3256,1.2881 117.1256,52.9891 C203.9246,104.6901 239.0386,88.7331 239.0386,88.7331" id="Fill-4" fill="#F2F2F2"></path>
                    <polygon id="Fill-6" fill="#3F3D56" points="90.108 137.243 169.681 137.243 169.681 136.817 90.108 136.817"></polygon>
                    <path d="M214.76,129.7949 L151.068,129.7949 C151.068,129.7949 149.777,110.8599 157.416,110.6449 C165.055,110.4299 164.194,119.0369 173.769,107.2019 C183.344,95.3669 194.964,96.0129 196.469,103.0019 C197.974,109.9909 193.569,115.5899 201.633,113.8679 C209.698,112.1459 221.321,116.6699 214.76,129.7949" id="Fill-8" fill="#2E4369"></path>
                    <path d="M181.8391,129.7988 L181.6241,129.7898 C182.1241,117.3228 184.7351,109.3128 186.8381,104.7898 C189.1201,99.8768 191.3191,97.8898 191.3381,97.8688 L191.4811,98.0298 C191.4591,98.0488 189.2801,100.0178 187.0221,104.8968 C184.9351,109.4028 182.3381,117.3798 181.8391,129.7988" id="Fill-9" fill="#F2F2F2"></path>
                    <path d="M204.8899,129.8261 L204.6829,129.7661 C206.2839,124.4831 209.1699,119.6791 213.0829,115.7851 L213.2279,115.9441 C209.3439,119.8111 206.4789,124.5801 204.8899,129.8261" id="Fill-10" fill="#F2F2F2"></path>
                    <path d="M161.0998,129.81 L160.8868,129.78 C161.5818,125.105 160.8468,120.33 158.7788,116.08 C157.9308,114.298 156.8078,112.66 155.4528,111.226 L155.6008,111.071 C156.9748,112.522 158.1128,114.181 158.9718,115.985 C161.0588,120.273 161.8008,125.093 161.0998,129.81" id="Fill-11" fill="#F2F2F2"></path>
                    <path d="M64.3371,139.3701 L0.6451,139.3701 C0.6451,139.3701 -0.6459,120.4351 6.9981,120.2201 C14.6421,120.0051 13.7751,128.6121 23.3511,116.7771 C32.9261,104.9421 44.5461,105.5881 46.0511,112.5771 C47.5561,119.5661 43.1501,125.1651 51.2151,123.4431 C59.2791,121.7211 70.8981,126.2451 64.3371,139.3701" id="Fill-12" fill="#2E4369"></path>
                    <path d="M31.4162,139.3749 L31.2012,139.3659 C31.7012,126.8989 34.3122,118.8889 36.4152,114.3659 C38.6972,109.4539 40.8962,107.4659 40.9152,107.4449 L41.0582,107.6059 C41.0362,107.6249 38.8572,109.5939 36.5992,114.4729 C34.5122,118.9779 31.9152,126.9549 31.4162,139.3749" id="Fill-13" fill="#F2F2F2"></path>
                    <path d="M54.467,139.3998 L54.26,139.3398 C55.861,134.0568 58.747,129.2528 62.66,125.3588 L62.805,125.5178 C58.921,129.3848 56.056,134.1548 54.467,139.3998" id="Fill-14" fill="#F2F2F2"></path>
                    <path d="M10.6721,139.3842 L10.4591,139.3542 C11.1531,134.6792 10.4191,129.9042 8.3511,125.6542 C7.5031,123.8722 6.3801,122.2342 5.0241,120.8002 L5.1731,120.6452 C6.5471,122.0962 7.6851,123.7552 8.5441,125.5592 C10.6311,129.8472 11.3731,134.6662 10.6721,139.3842" id="Fill-15" fill="#F2F2F2"></path>
                    <polygon id="Fill-16" fill="#3F3D56" points="6.067 152.349 240.318 152.349 240.318 151.923 6.067 151.923"></polygon>
                    <polygon id="Fill-17" fill="#A0616A" points="199.7209 123.455 199.7209 127.275 202.9039 127.487 202.6919 123.031"></polygon>
                    <path d="M200.3567,125.1528 L198.2347,124.7288 C198.2347,124.7288 195.2637,130.0338 193.3537,130.4588 C191.6827,130.8298 187.7367,132.1768 189.1927,134.0708 C189.6367,134.6238 190.3307,134.9138 191.0367,134.8418 L200.1447,134.0668 C200.1447,134.0668 203.7527,134.2788 203.7527,132.1568 L203.7527,125.1568 L200.3567,125.1528 Z" id="Fill-18" fill="#2F2E41"></path>
                    <polygon id="Fill-19" fill="#2F2E41" points="199.9866 103.6811 199.0736 124.4021 204.8626 125.9261"></polygon>
                    <polygon id="Fill-20" fill="#A0616A" points="202.1204 131.7148 202.1204 137.1998 206.6904 137.4998 206.3914 131.0998"></polygon>
                    <path d="M192.6741,77.1699 L195.1121,80.8269 L200.5971,113.7369 L201.5111,133.5439 L210.6531,133.5439 L208.5201,85.3979 C208.5201,85.3979 212.7861,80.2179 209.7391,75.0369 L192.6741,77.1699 Z" id="Fill-21" fill="#2F2E41"></path>
                    <path d="M203.0344,134.1528 L199.9864,133.5438 C199.9864,133.5438 195.7214,141.1618 192.9774,141.7718 C190.6274,142.2938 185.1414,144.1598 186.8854,146.7928 C187.5044,147.6878 188.5594,148.1748 189.6414,148.0658 L202.7284,146.9518 C202.7284,146.9518 207.9094,147.2518 207.9094,144.2098 L207.9094,134.1528 L203.0344,134.1528 Z" id="Fill-22" fill="#2F2E41"></path>
                    <path d="M203.3381,22.6249 C206.8721,22.6249 209.7361,25.4899 209.7361,29.0239 C209.7361,32.5579 206.8721,35.4229 203.3381,35.4229 C199.8041,35.4229 196.9391,32.5579 196.9391,29.0239 C196.9391,25.4899 199.8041,22.6249 203.3381,22.6249" id="Fill-23" fill="#A0616A"></path>
                    <path d="M199.6819,32.3759 L199.6819,41.5179 C199.6819,41.8179 206.6909,40.9089 206.6909,40.9089 C206.6909,40.9089 206.9909,32.3769 206.9909,31.4629 L199.6819,32.3759 Z" id="Fill-24" fill="#A0616A"></path>
                    <path d="M207.3,36.3369 C207.3,36.3369 203.339,35.4229 196.33,39.9939 L195.111,39.9939 L194.811,47.0029 C194.811,47.0029 190.545,51.5739 191.154,53.4029 C191.154,53.4029 185.974,59.4979 188.107,61.9349 C188.107,61.9349 183.231,67.7249 185.364,70.1629 C185.364,70.1629 180.184,76.8629 183.231,77.7809 C186.694,77.7729 190.154,77.9759 193.592,78.3899 C197.249,78.9989 212.486,75.6469 212.486,75.6469 C212.486,75.6469 212.785,67.7239 212.486,67.7239 L212.185,67.7239 C212.185,67.7239 213.404,60.4109 212.794,60.1059 C212.794,60.1059 213.094,51.8779 212.185,51.5739 L207.3,36.3369 Z" id="Fill-25" fill="#3F3D56"></path>
                    <path d="M206.3215,43.3549 C204.0505,43.6649 202.0945,45.1139 201.1375,47.1979 C200.2585,49.1379 199.9635,51.2929 200.2915,53.3979 C201.2055,59.4919 203.3385,61.3209 203.3385,61.3209 C203.3385,61.3209 201.2055,62.2349 201.8135,63.1489 C202.4235,64.0629 201.2055,64.0629 201.2055,64.0629 C201.2055,64.0629 201.2055,64.3629 200.2915,64.9769 C199.3775,65.5909 198.7665,65.2769 198.4635,65.5859 C198.1595,65.8949 196.9385,65.5859 196.9385,65.5859 C196.9385,65.5859 193.2825,71.9859 196.9385,72.5949 C200.5955,73.2039 202.1195,70.1569 203.6385,70.4619 C205.1595,70.7669 212.4755,68.3289 211.8665,62.5389 C211.2565,56.7489 208.5135,43.0389 206.3815,43.3389 L206.3215,43.3549 Z" id="Fill-26" fill="#D0CDE1"></path>
                    <path d="M197.6858,22.9262 C198.0018,21.6502 198.9068,20.6002 200.1228,20.0992 C201.3218,19.6162 203.0548,18.2282 204.1418,18.9272 C204.6268,19.2392 205.0418,19.6532 205.5488,19.9332 C206.4048,20.3082 207.3178,20.5332 208.2488,20.6002 C210.5628,20.9802 212.5008,23.5332 214.1188,25.2322 C215.7818,26.9342 216.6088,29.2842 216.3778,31.6532 C216.0618,33.1672 215.6148,34.6512 215.0398,36.0872 C214.4668,37.5432 214.4958,39.1672 215.1198,40.6022 C215.9668,42.1602 217.8008,42.8752 219.0398,44.1462 C220.8058,46.0412 221.1348,48.8642 219.8508,51.1152 C219.5338,51.5492 219.2758,52.0232 219.0838,52.5252 C218.8988,53.0462 219.0878,53.6272 219.5438,53.9402 C219.7618,54.0252 219.9868,54.0902 220.2158,54.1332 C220.9638,54.4472 221.5028,55.1192 221.6478,55.9182 C221.8478,56.6892 221.8698,57.5042 222.1208,58.2612 C222.7318,60.1102 224.5608,61.2282 226.2548,62.1892 C222.9108,61.9422 219.5478,62.1692 216.2678,62.8632 C214.8758,63.2282 213.2678,63.7282 212.1038,62.8822 C211.3468,62.2252 210.9328,61.2592 210.9788,60.2582 C210.9568,59.2722 211.1618,58.2912 211.1398,57.3042 C211.0418,55.1412 209.9898,53.1342 208.2658,51.8242 C207.2658,51.0512 206.0958,50.5162 205.1528,49.6772 C203.5238,48.1962 202.7708,45.9802 203.1598,43.8132 C203.3828,43.0652 203.5148,42.2932 203.5518,41.5132 C203.4668,39.9782 202.1288,38.7762 201.8428,37.2652 C201.5428,35.6782 202.4428,34.1332 202.6958,32.5372 C202.8118,31.5652 202.7938,30.5832 202.6438,29.6162 C202.5658,27.9952 202.0758,26.4212 201.2178,25.0432 C200.3928,23.8102 199.0478,23.0242 197.5688,22.9102 C197.0818,22.8812 197.7688,22.4622 197.5688,22.9102" id="Fill-27" fill="#2F2E41"></path>
                    <path d="M202.8811,28.2621 C203.2171,28.2621 203.4901,28.8071 203.4901,29.4811 C203.4901,30.1541 203.2171,30.7001 202.8811,30.7001 C202.5451,30.7001 202.2721,30.1541 202.2721,29.4811 C202.2721,28.8071 202.5451,28.2621 202.8811,28.2621" id="Fill-28" fill="#A0616A"></path>
                    <polygon id="Fill-29" fill="#FFB8B8" points="31.2785 109.2641 33.6195 132.6641 37.6615 132.0261 39.3605 109.6861"></polygon>
                    <path d="M38.301,129.6889 L32.769,130.5399 L33.407,137.3479 C33.407,137.3479 31.492,138.4119 32.769,141.8159 C33.38,143.1719 33.809,144.6029 34.046,146.0709 L38.428,145.6469 C40.128,145.4829 44.208,143.9469 44.79,142.3469 C45.031,141.6819 42.456,141.5469 41.918,141.3899 C40.429,140.9649 38.301,129.6889 38.301,129.6889" id="Fill-30" fill="#2F2E41"></path>
                    <polygon id="Fill-31" fill="#FFB8B8" points="52.1301 108.413 54.4701 131.813 58.5121 131.175 60.2121 108.835"></polygon>
                    <path d="M48.4074,19.7978 C52.0504,19.7978 55.0034,22.7508 55.0034,26.3938 C55.0034,30.0368 52.0504,32.9898 48.4074,32.9898 C44.7634,32.9898 41.8104,30.0368 41.8104,26.3938 C41.8104,22.7508 44.7634,19.7978 48.4074,19.7978" id="Fill-32" fill="#FFB8B8"></path>
                    <path d="M50.215,30.9682 C50.215,30.9682 48.515,35.4362 50.215,36.9252 C51.915,38.4142 38.939,38.4142 38.939,38.4142 L44.258,28.8402 L50.215,30.9682 Z" id="Fill-33" fill="#FFB8B8"></path>
                    <path d="M62.7678,109.9018 C60.0018,114.7958 32.9808,111.3908 32.9808,111.3908 L28.2998,108.4118 L26.3848,107.3478 C26.3848,107.3478 27.6628,86.9228 30.0018,74.3698 C32.3418,61.8168 38.3018,60.9698 38.3018,60.9698 L38.3238,60.7228 L38.5138,58.4168 C38.5138,58.4168 38.3368,58.2278 38.0338,57.8848 C36.1328,55.7428 29.3328,47.6258 30.4328,42.6728 C31.7098,36.9278 41.2848,34.1628 47.0338,33.9498 C52.7828,33.7368 57.6708,38.8438 57.6708,38.8438 L56.8408,42.3228 L53.2038,57.5668 L53.1478,57.8858 L52.5648,61.1858 C53.3388,61.1918 54.0988,61.3958 54.7708,61.7798 C55.3208,62.0828 55.6268,62.6928 55.5428,63.3138 L58.7998,84.3008 L62.7678,109.9018 Z" id="Fill-34" fill="#3F3D56"></path>
                    <path d="M26.3859,81.8178 C26.3859,81.8178 25.4459,91.0928 27.7239,91.3488 C30.0019,91.6048 29.3619,81.8178 29.3619,81.8178 L26.3859,81.8178 Z" id="Fill-35" fill="#FFB8B8"></path>
                    <path d="M33.4074,40.1171 C31.1964,40.0601 29.3274,41.7421 29.1514,43.9471 C28.5134,47.9901 27.8754,63.5211 27.8754,63.5211 L24.2584,82.8821 L31.7054,83.7331 L36.5984,54.3721 L33.4074,40.1171 Z" id="Fill-36" fill="#3F3D56"></path>
                    <path d="M64.257,82.2431 C64.257,82.2431 65.746,90.7531 63.406,90.9661 C61.066,91.1791 60.215,82.6661 60.215,82.6661 L64.257,82.2431 Z" id="Fill-37" fill="#FFB8B8"></path>
                    <path d="M46.6574,16.517 C46.0744,16.486 45.4904,16.525 44.9174,16.635 C44.2864,16.802 43.6804,17.051 43.1174,17.378 C40.4804,18.778 37.8764,20.601 36.6374,23.317 C35.7484,25.616 35.5234,28.119 35.9894,30.54 C36.1494,31.313 36.1764,32.109 36.0654,32.891 C35.7264,34.478 34.2284,35.543 33.5494,37.016 C32.9294,38.586 33.0184,40.348 33.7924,41.848 C34.0494,42.251 34.1644,42.728 34.1214,43.205 C34.0494,43.441 33.9284,43.659 33.7664,43.845 C33.1784,44.527 32.6274,45.239 32.1124,45.978 C31.5954,46.728 31.3884,47.648 31.5344,48.547 C31.8284,49.434 32.3704,50.22 33.0944,50.81 C33.6374,51.505 34.4424,51.947 35.3204,52.03 C35.8434,51.956 36.3394,51.754 36.7624,51.441 C38.1004,50.614 39.5754,49.587 39.7854,48.028 C40.1944,49.428 41.8444,50.028 43.2954,50.128 C44.5324,50.263 45.7804,50.016 46.8734,49.42 C47.9714,48.796 48.6254,47.605 48.5614,46.343 C48.4574,45.385 47.8444,44.388 48.2754,43.526 C48.6034,42.872 49.3884,42.626 50.0054,42.226 C51.2584,41.389 51.8594,39.861 51.5124,38.394 C51.1304,36.901 49.7714,35.602 50.0524,34.087 C50.2174,33.193 50.9284,32.499 51.2274,31.64 C51.5114,30.581 51.3834,29.454 50.8704,28.485 C50.4254,27.496 49.8094,26.585 49.4294,25.57 C49.2524,25.169 49.1904,24.726 49.2524,24.292 C49.5894,23.394 50.4444,22.798 51.4024,22.792 C52.3394,22.803 53.2714,22.693 54.1784,22.464 C54.9854,22.147 55.9784,21.135 55.8344,20.182 C55.6954,19.282 54.4334,18.6 53.7334,18.182 C51.5534,17.036 49.1194,16.463 46.6574,16.517" id="Fill-38" fill="#2F2E41"></path>
                    <path d="M38.3224,60.7202 L38.5124,58.4142 C38.5124,58.4142 38.3364,58.2252 38.0324,57.8822 L53.1374,57.8822 L52.5544,61.1822 C53.6254,61.2482 52.2174,60.7822 52.6614,61.0762 C48.9204,60.7542 42.1944,60.7352 38.3224,60.7202" id="Fill-39" fill="#2F2E41"></path>
                    <path d="M58.7922,84.2939 L55.7472,84.5829 L52.5562,61.1799 C53.3302,61.1849 54.0902,61.3899 54.7622,61.7739 C55.3122,62.0769 55.6182,62.6869 55.5342,63.3079 L58.7922,84.2939 Z" id="Fill-40" fill="#000000"></path>
                    <polygon id="Fill-41" fill="#3F3D56" points="52.5558 38.414 57.6618 38.84 66.1718 83.733 57.2358 84.584 50.8528 49.691"></polygon>
                    <polygon id="Fill-42" fill="#000000" points="35.6408 62.9882 31.2788 83.7322 35.0028 62.9882"></polygon>
                    <path d="M58.9377,129.6889 L53.4067,130.5399 L54.0437,137.3479 C54.0437,137.3479 52.1287,138.4119 53.4067,141.8159 C54.0167,143.1719 54.4467,144.6029 54.6827,146.0709 L59.0647,145.6469 C60.7647,145.4829 64.8447,143.9469 65.4267,142.3469 C65.6677,141.6819 63.0927,141.5469 62.5547,141.3899 C61.0657,140.9649 58.9377,129.6889 58.9377,129.6889" id="Fill-43" fill="#2F2E41"></path>
                    <path d="M49.7892,26.3232 C50.0952,26.1472 50.5802,26.4162 50.8742,26.9252 C51.1682,27.4342 51.1582,27.9902 50.8532,28.1662 C50.5482,28.3422 50.0622,28.0722 49.7682,27.5632 C49.4752,27.0542 49.4842,26.4992 49.7892,26.3232" id="Fill-44" fill="#FFB8B8"></path>
                    <polygon id="Fill-3" fill="#2E4369" points="88.832 53.414 162.448 53.414 162.448 0.862 88.832 0.862"></polygon>
                    <path d="M77.768,53.201 L173.508,53.201 L173.508,1.075 L77.768,1.075 L77.768,53.201 Z M77.343,53.627 L173.937,53.627 L173.937,0.649 L77.343,0.649 L77.343,53.627 Z" id="Fill-45" fill="#3F3D56"></path>
                    <path d="M129.5558,22.9389 C128.9648,25.3029 125.3258,24.0999 124.1428,23.8079 L125.1798,19.6309 C126.3598,19.9239 130.1658,20.4739 129.5408,22.9389 L129.5558,22.9389 Z M128.9088,29.6799 C128.2618,32.2729 123.8858,30.8729 122.4678,30.5229 L123.6168,25.9159 C125.0288,26.2709 129.5788,26.9709 128.9018,29.6799 L128.9088,29.6799 Z M133.6888,22.9799 C134.0678,20.4419 132.1328,19.0799 129.4938,18.1679 L130.3468,14.7279 L128.2468,14.2089 L127.4118,17.5559 C126.8618,17.4189 126.2968,17.2969 125.7348,17.1619 L126.5758,13.7919 L124.4828,13.2729 L123.6248,16.7079 C123.1688,16.6039 122.7238,16.4999 122.2898,16.3939 L119.4048,15.6729 L118.8468,17.9079 C118.8468,17.9079 120.4038,18.2629 120.3668,18.2859 C120.9668,18.3599 121.3998,18.8989 121.3408,19.5019 L120.3648,23.4189 C120.4378,23.4379 120.5108,23.4609 120.5818,23.4889 L120.3628,23.4349 L118.9928,28.9209 C118.8678,29.3229 118.4418,29.5469 118.0388,29.4229 C118.0368,29.4219 118.0348,29.4219 118.0348,29.4209 C118.0548,29.4519 116.5118,29.0419 116.5118,29.0419 L115.4748,31.4419 L118.1978,32.1209 C118.7158,32.2479 119.1978,32.3799 119.6878,32.5049 L118.8228,35.9819 L120.9118,36.5009 L121.7698,33.0609 C122.3248,33.2119 122.8798,33.3559 123.4368,33.4939 L122.5808,36.9189 L124.6728,37.4379 L125.5388,33.9659 C129.1058,34.6399 131.7918,34.3659 132.9198,31.1429 C133.8298,28.5499 132.8758,27.0429 130.9958,26.0689 C132.4808,25.7699 133.5768,24.5089 133.6688,22.9969 L133.6888,22.9799 Z M144.5778,25.7009 C144.5778,36.2339 136.0388,44.7719 125.5068,44.7719 C114.9748,44.7719 106.4358,36.2339 106.4358,25.7009 C106.4358,15.1679 114.9748,6.6299 125.5068,6.6299 C136.0388,6.6299 144.5778,15.1679 144.5778,25.7009 L144.5778,25.7009 Z" id="Fill-46" fill="#7ED1F1"></path>
                </g>
            </g>
        </g>
    </g>
</svg>