<?xml version="1.0" encoding="UTF-8"?>
<svg width="222px" height="166px" viewBox="0 0 222 166" version="1.1" xmlns="http://www.w3.org/2000/svg" xmlns:xlink="http://www.w3.org/1999/xlink">
    <!-- Generator: sketchtool 61 (101010) - https://sketch.com -->
    <title>A0DE397F-5360-4CCE-970D-E4C107A0580B</title>
    <desc>Created with sketchtool.</desc>
    <g id="Page-1" stroke="none" stroke-width="1" fill="none" fill-rule="evenodd">
        <g id="Home-crypto" transform="translate(-634.000000, -1187.000000)">
            <g id="Seccion-2" transform="translate(173.000000, 1016.000000)">
                <g id="Ilustracion-2" transform="translate(461.000000, 171.000000)">
                    <polygon id="Fill-56" fill="#F2F2F2" points="71.434 145.349 182.668 145.349 182.668 57.521 71.434 57.521"></polygon>
                    <path d="M55.908,134.69 L166.678,134.69 L166.678,47.32 L55.908,47.32 L55.908,134.69 Z M167.142,135.153 L55.444,135.153 L55.444,46.861 L167.144,46.861 L167.142,135.153 Z" id="Fill-57" fill="#3F3D56"></path>
                    <polygon id="Fill-58" fill="#3F3D56" points="4.992 162.882 133.863 162.882 133.863 162.336 4.992 162.336"></polygon>
                    <polygon id="Fill-59" fill="#D0CDE1" points="95.7658 117.163 95.7008 71.279 147.6428 94.147"></polygon>
                    <g id="Group-112">
                        <path d="M85.217,73.2748 C85.217,73.2748 90.11,67.7748 91.127,69.8748 C92.144,71.9748 86.154,75.1558 86.154,75.1558 L85.217,73.2748 Z" id="Fill-60" fill="#A0616A"></path>
                        <path d="M87.778,75.541 C87.778,75.541 85.602,76.341 84.972,77.311 C84.201,78.145 83.275,78.821 82.244,79.299 L82.061,79.408 L80.082,80.588 L77.489,82.131 L69.281,87.021 L58.447,91.359 C58.364,89.846 58.282,88.333 58.206,86.9 C58.1827852,86.471 58.178,86.045 58.187,85.619 C58.324,85.577 58.463,85.54 58.604,85.51 C60.219,85.246 61.769,84.678 63.172,83.835 L69.438,80.055 C69.438,80.055 74.358,76.92 77.479,75.448 C77.917,75.239 78.32,75.066 78.668,74.938 L86.068,72.222 L86.121,72.322 L87.252,74.512 L87.778,75.541 Z" id="Fill-62" fill="#D0CDE1"></path>
                        <path d="M87.778,75.541 C87.778,75.541 85.602,76.341 84.972,77.311 C84.201,78.145 83.275,78.821 82.244,79.299 L82.061,79.408 L80.082,80.588 L77.489,82.131 L69.281,87.021 L58.447,91.359 C58.364,89.846 58.282,88.333 58.206,86.9 C58.1827852,86.471 58.178,86.045 58.187,85.619 C58.324,85.577 58.463,85.54 58.604,85.51 C60.219,85.246 61.769,84.678 63.172,83.835 L69.438,80.055 C69.438,80.055 74.358,76.92 77.479,75.448 C77.917,75.239 78.32,75.066 78.668,74.938 L86.068,72.222 L86.121,72.322 L87.252,74.512 L87.778,75.541 Z" id="Fill-64" fill="#000000"></path>
                        <polygon id="Fill-66" fill="#7ED1F1" points="86.0661 117.1142 86.0011 71.2302 137.9431 94.1032"></polygon>
                        <polygon id="Fill-68" fill="#000000" points="134.6242 92.6328 86.0622 114.1778 86.0622 117.1098 137.9392 94.0938"></polygon>
                        <polygon id="Fill-70" fill="#A0616A" points="71.55 154.9658 71.55 159.8318 75.258 159.8318 74.794 154.7318"></polygon>
                        <polygon id="Fill-72" fill="#A0616A" points="57.1818 154.7338 56.0228 160.2958 60.6578 160.5278 60.6578 154.7348"></polygon>
                        <path d="M59.0358,110.705 C59.0358,110.705 57.8768,110.241 57.6458,114.413 C57.4148,118.585 57.1818,132.952 57.1818,132.952 C57.1818,132.952 54.8648,145.698 55.7918,149.405 C56.3318,151.45 56.6428,153.548 56.7188,155.662 L60.8898,155.662 L61.1218,153.345 L61.3538,147.088 C61.3538,147.088 63.6708,141.295 62.9758,135.965 L68.5378,119.048 L71.3188,137.123 C70.6028,140.08 70.2908,143.121 70.3918,146.161 C70.6238,150.796 70.6238,156.821 70.6238,156.821 L75.2588,156.358 L78.9668,134.575 C78.9668,134.575 81.0528,112.792 78.9668,111.633 C76.8808,110.474 59.0358,110.705 59.0358,110.705" id="Fill-74" fill="#2F2E41"></path>
                        <path d="M72.9411,158.2109 C72.9411,158.2109 70.8551,155.4299 69.9281,157.5109 C69.0011,159.5919 66.9151,162.3769 68.5381,163.7679 C70.1611,165.1589 72.2461,165.6219 72.9381,165.1579 C73.6301,164.6939 80.8171,160.9869 80.8171,160.9869 C80.8171,160.9869 82.2071,157.0479 79.4271,156.8159 C76.6471,156.5839 75.7191,155.8889 75.7191,155.8889 L72.9411,158.2109 Z" id="Fill-76" fill="#2F2E41"></path>
                        <path d="M56.9499,158.9062 C56.9499,158.9062 56.9499,156.5892 56.0229,157.2842 C55.0959,157.9792 54.4009,160.9922 54.4009,160.9922 C54.4009,160.9922 48.8389,165.3922 54.1689,165.3922 C59.4989,165.3922 62.9749,166.3192 62.5119,164.2332 C62.0489,162.1472 61.3529,158.6712 61.3529,158.6712 C61.3529,158.6712 59.0379,155.6622 56.9499,158.9062" id="Fill-78" fill="#2F2E41"></path>
                        <path d="M71.549,59.0268 C74.748,59.0268 77.342,61.6208 77.342,64.8198 C77.342,68.0198 74.748,70.6128 71.549,70.6128 C68.35,70.6128 65.756,68.0198 65.756,64.8198 C65.756,61.6208 68.35,59.0268 71.549,59.0268" id="Fill-80" fill="#A0616A"></path>
                        <path d="M67.0309,66.79 C67.0309,66.79 66.1039,73.51 64.7139,74.437 C63.3239,75.364 73.9829,75.596 73.9829,75.596 C73.9829,75.596 73.2829,70.266 73.9829,68.876 L67.0309,66.79 Z" id="Fill-82" fill="#A0616A"></path>
                        <path d="M85.2219,112.79 C85.2219,112.79 88.6979,119.279 86.3809,119.51 C84.0639,119.741 83.1369,113.021 83.1369,113.021 L85.2219,112.79 Z" id="Fill-84" fill="#A0616A"></path>
                        <path d="M66.197,69.0268 C68.008,69.9088 70.187,69.4238 71.453,67.8578 C72.232,66.8388 72.684,65.3578 73.927,65.0388 C74.739,64.8318 75.674,65.2218 76.399,64.8028 C77.751,64.0188 76.799,61.5358 78.057,60.6028 C76.939,60.5878 76.018,59.7188 75.938,58.6028 C75.906,59.0368 75.338,59.2308 74.92,59.1028 C74.526,58.9208 74.147,58.7058 73.789,58.4598 C73.076,58.1838 72.301,58.1108 71.55,58.2508 C69.616,58.4308 67.53,58.6758 66.11,60.0008 C64.825,61.3398 64.26,63.2148 64.592,65.0408 C64.798,66.4818 65.381,67.8418 66.282,68.9848 L66.197,69.0268 Z" id="Fill-86" fill="#2F2E41"></path>
                        <path d="M80.5871,76.871 L80.5551,77.103 L80.0821,80.591 L78.1421,94.88 L78.0421,95.642 C78.0421,95.642 78.2711,96.201 78.5591,97.09 C79.2441,99.103 79.6381,101.204 79.7291,103.328 C79.7361,103.779 79.7151,104.23 79.6641,104.679 C79.3161,107.634 79.2281,110.588 79.2071,111.879 C79.2001,112.31 79.2001,112.556 79.2001,112.556 L58.1121,111.856 C58.2441,111.559 58.3601,111.256 58.4621,110.948 C59.2241,108.708 59.5001,106.332 59.2711,103.977 C59.0651,102.017 58.7431,96.677 58.4511,91.354 C58.3681,89.841 58.2861,88.328 58.2101,86.895 C58.1871,86.466 58.1821,86.04 58.1911,85.613 C58.3051,80.568 60.6531,75.834 64.6011,72.691 C64.6011,72.691 65.0271,72.71 65.7011,72.749 C67.8141,72.872 72.3661,73.192 73.7961,73.718 C73.8611,73.741 73.9251,73.768 73.9881,73.799 C74.6791,74.14 76.1221,74.814 77.4881,75.44 C79.0901,76.189 80.5871,76.871 80.5871,76.871" id="Fill-88" fill="#D0CDE1"></path>
                        <path d="M77.343,77.102 L80.587,77.102 C80.587,77.102 83.368,80.346 82.904,83.591 C82.596,85.198 82.596,86.85 82.904,88.457 L84.294,95.641 C84.294,95.641 85.916,103.057 85.916,106.069 L85.916,113.948 L82.208,114.411 C82.208,114.411 82.208,112.094 81.508,111.167 C80.991,110.156 80.676,109.054 80.581,107.923 L77.8,93.092 L77.343,77.102 Z" id="Fill-90" fill="#D0CDE1"></path>
                        <polygon id="Fill-92" fill="#2E4369" points="23.28 75.5248 29.964 72.9388 32.461 79.3918 25.777 81.9778"></polygon>
                        <path d="M24.4348,81.1269 L30.7648,78.6789 L28.4018,72.5689 L22.0718,75.0169 L24.4348,81.1269 Z M31.2478,78.8819 L24.2148,81.6019 L21.5888,74.8129 L28.6218,72.0929 L31.2478,78.8819 Z" id="Fill-94" fill="#3F3D56"></path>
                        <polygon id="Fill-96" fill="#2E4369" points="200.4557 21.975 202.7857 28.75 196.2447 30.998 193.9157 24.224"></polygon>
                        <path d="M194.8151,22.9179 L197.0211,29.3359 L203.2211,27.2059 L201.0151,20.7879 L194.8151,22.9179 Z M196.8001,29.8109 L194.3531,22.6799 L201.2371,20.3129 L203.6891,27.4439 L196.8001,29.8109 Z" id="Fill-98" fill="#3F3D56"></path>
                        <path d="M10.2761,154.2499 C12.8201,158.9669 17.8951,161.3859 19.1761,161.9379 C19.4201,160.5599 20.1871,154.9869 17.6461,150.2739 C15.1051,145.5609 10.0281,143.1399 8.7461,142.5859 C8.4981,143.9649 7.7321,149.5379 10.2731,154.2499 L10.2761,154.2499 Z M19.5831,162.6839 L19.2891,162.5739 C19.2241,162.5499 12.8021,160.0889 9.7891,154.5099 C6.7761,148.9309 8.2541,142.2099 8.2691,142.1449 L8.3381,141.8389 L8.6321,141.9489 C8.6971,141.9729 15.1191,144.4339 18.1321,150.0129 C21.1451,155.5919 19.6671,162.3129 19.6521,162.3779 L19.5831,162.6839 Z" id="Fill-100" fill="#3F3D56"></path>
                        <path d="M12.09,152.5522 C17.497,155.8052 19.579,162.2662 19.579,162.2662 C19.579,162.2662 12.895,163.4532 7.489,160.2002 C2.083,156.9472 0,150.4862 0,150.4862 C0,150.4862 6.683,149.2992 12.09,152.5522" id="Fill-102" fill="#2E4369"></path>
                        <polygon id="Fill-104" fill="#3F3D56" points="4.896 6.815 221.106 6.815 221.106 6.352 4.896 6.352"></polygon>
                        <path d="M9.3132,0.5439 C10.4732,0.5439 11.4132,1.4839 11.4132,2.6439 C11.4132,3.8039 10.4732,4.7439 9.3132,4.7439 C8.1532,4.7439 7.2132,3.8039 7.2132,2.6439 C7.2132,1.4839 8.1532,0.5439 9.3132,0.5439" id="Fill-106" fill="#3F3D56"></path>
                        <path d="M15.7878,0.5439 C16.9478,0.5439 17.8878,1.4839 17.8878,2.6439 C17.8878,3.8039 16.9478,4.7439 15.7878,4.7439 C14.6278,4.7439 13.6878,3.8039 13.6878,2.6439 C13.6878,1.4839 14.6278,0.5439 15.7878,0.5439" id="Fill-107" fill="#3F3D56"></path>
                        <path d="M22.2619,0.5439 C23.4219,0.5439 24.3619,1.4839 24.3619,2.6439 C24.3619,3.8039 23.4219,4.7439 22.2619,4.7439 C21.1019,4.7439 20.1619,3.8039 20.1619,2.6439 C20.1619,1.4839 21.1019,0.5439 22.2619,0.5439" id="Fill-108" fill="#3F3D56"></path>
                        <polygon id="Fill-109" fill="#3F3D56" points="85.159 22.757 134.612 22.757 134.612 22.201 85.159 22.201"></polygon>
                        <polygon id="Fill-110" fill="#3F3D56" points="85.159 26.646 134.612 26.646 134.612 26.09 85.159 26.09"></polygon>
                        <polygon id="Fill-111" fill="#3F3D56" points="85.159 30.536 134.612 30.536 134.612 29.98 85.159 29.98"></polygon>
                    </g>
                </g>
            </g>
        </g>
    </g>
</svg>