<?xml version="1.0" encoding="UTF-8"?>
<svg width="237px" height="119px" viewBox="0 0 237 119" version="1.1" xmlns="http://www.w3.org/2000/svg" xmlns:xlink="http://www.w3.org/1999/xlink">
    <!-- Generator: sketchtool 61 (101010) - https://sketch.com -->
    <title>99F2C487-60E4-4552-8276-E2C744DC7F52</title>
    <desc>Created with sketchtool.</desc>
    <g id="Page-1" stroke="none" stroke-width="1" fill="none" fill-rule="evenodd">
        <g id="Home-crypto" transform="translate(-228.000000, -1235.000000)">
            <g id="Seccion-2" transform="translate(173.000000, 1016.000000)">
                <g id="Ilustracion-1" transform="translate(55.000000, 218.000000)">
                    <path d="M120.6769,63.9848 L129.0769,63.9848 C130.7839,63.9848 136.6539,64.2448 138.7909,64.3418 C139.6619,64.3738 140.5249,64.5278 141.3529,64.7988 C141.6529,64.8988 141.9409,65.0168 142.2529,65.1458 C143.5479,65.5648 144.7689,66.1828 145.8729,66.9788 C146.5929,67.4538 147.2259,68.0488 147.7449,68.7378 C147.9699,69.0488 148.1769,69.3728 148.3649,69.7068 C148.8619,70.5478 149.2309,71.4578 149.4599,72.4068 C149.7099,73.3238 149.8399,74.2708 149.8459,75.2208 C149.9309,77.0368 149.4749,78.8368 148.5359,80.3928 C147.1669,82.4908 145.1909,84.1218 142.8699,85.0658 C136.8419,87.8068 129.0789,87.6128 129.0789,87.6128 L120.6789,87.6128 L120.6769,63.9848 Z M120.6769,31.9548 L120.6769,31.9548 L120.6769,31.6088 L128.0179,31.6088 C132.1479,31.6088 145.9099,30.2328 146.1389,41.4728 C146.3679,52.7128 128.0179,52.2528 128.0179,52.2528 L120.6769,52.2528 L120.6769,51.3868 L120.6769,31.9548 Z M169.6409,65.8748 C168.1919,62.4538 165.5779,59.6548 162.2639,57.9748 C160.1739,56.7938 157.9289,55.9098 155.5949,55.3498 C157.1649,54.6198 158.6099,53.6458 159.8739,52.4618 C161.7339,50.8008 163.1449,48.6968 163.9739,46.3448 C164.7359,43.9568 165.0479,41.4468 164.8929,38.9448 C164.6039,34.5338 163.7379,30.2548 161.4269,27.1828 C158.8809,23.9258 155.4549,21.4658 151.5549,20.0938 C147.7289,18.6618 143.6929,17.8728 139.6089,17.7568 L139.6089,0.9748 L129.1089,7.5388 L129.1089,17.7778 L120.7089,17.7778 L120.7089,7.0088 L109.9449,0.9708 L109.9449,17.7708 L87.0719,17.7708 L94.4229,30.3708 C95.9789,30.2658 97.5399,30.4698 99.0169,30.9708 C99.7499,31.2848 100.3529,31.8408 100.7239,32.5458 C101.1719,34.0338 101.3419,35.5908 101.2239,37.1398 L101.2239,82.6118 C101.3379,84.1518 101.1679,85.7008 100.7239,87.1798 C100.3829,87.8628 100.1989,88.4658 99.3849,88.8338 C98.5709,89.2018 98.5449,89.1748 96.2849,89.1748 L96.2589,89.1748 L87.0699,101.7748 L109.9109,101.7748 L109.9109,118.5748 L120.6749,118.5748 L120.6749,101.7748 L129.0749,101.7748 L129.0749,118.5748 L139.5749,118.5748 L139.5749,101.6848 C146.4009,101.3438 151.2579,100.4508 155.1699,98.9848 C159.7909,97.4038 163.8629,94.5338 166.9059,90.7148 C169.6889,87.0918 170.8179,81.5518 171.0539,77.2728 C171.2429,73.4618 170.8229,68.5528 169.6409,65.8748 L169.6409,65.8748 Z" id="Fill-123" fill="#3F3D56"></path>
                    <path d="M201.1852,72.3012 C202.8852,72.3012 204.2642,73.6792 204.2642,75.3802 C204.2642,77.0802 202.8852,78.4592 201.1852,78.4592 C199.4842,78.4592 198.1062,77.0802 198.1062,75.3802 C198.1062,73.6792 199.4842,72.3012 201.1852,72.3012" id="Fill-127" fill="#7ED1F1"></path>
                    <line x1="225.4611" y1="108.9008" x2="225.4611" y2="73.8388" id="Stroke-129" stroke="#3F3D56" stroke-width="2"></line>
                    <path d="M225.4611,68.8808 C228.1991,68.8808 230.4191,71.1008 230.4191,73.8388 C230.4191,76.5768 228.1991,78.7968 225.4611,78.7968 C222.7231,78.7968 220.5031,76.5768 220.5031,73.8388 C220.5031,71.1008 222.7231,68.8808 225.4611,68.8808" id="Fill-131" fill="#3F3D56"></path>
                    <path d="M215.696,93.4711 C208.534,104.4541 210.496,118.4241 210.496,118.4241 C210.496,118.4241 224.07,114.5861 231.232,103.6031 C238.394,92.6201 236.432,78.6501 236.432,78.6501 C236.432,78.6501 222.858,82.4881 215.696,93.4711" id="Fill-133" fill="#3F3D56"></path>
                    <path d="M210.4582,118.2958 C210.4582,118.2958 210.2842,118.2678 209.9582,118.2028 C209.7022,118.1508 209.3502,118.0768 208.9192,117.9748 C205.0722,117.0678 194.8452,114.0018 188.1582,105.9408 C179.7892,95.8468 180.1422,81.7408 180.1422,81.7408 C180.1422,81.7408 192.9422,83.8198 201.3702,92.8848 C201.7352,93.2748 202.0902,93.6778 202.4362,94.0958 C209.7182,102.8788 210.3972,114.6958 210.4512,117.6168 C210.4642,118.0578 210.4582,118.2958 210.4582,118.2958" id="Fill-135" fill="#7ED1F1"></path>
                    <path d="M205.2971,93.4711 C212.4591,104.4541 210.4971,118.4241 210.4971,118.4241 C210.4971,118.4241 196.9231,114.5861 189.7611,103.6031 C182.5991,92.6201 184.5611,78.6501 184.5611,78.6501 C184.5611,78.6501 198.1351,82.4881 205.2971,93.4711 Z" id="Stroke-137" stroke="#3F3D56" stroke-width="2"></path>
                    <path d="M210.4572,117.621 C210.2682,117.849 210.1012,118.044 209.9642,118.203 C209.6642,118.55 209.4872,118.732 209.4872,118.732 C209.4872,118.732 209.2772,118.469 208.9252,117.975 C206.9902,115.275 200.7682,105.689 201.2482,94.612 C201.2742,94.031 201.3162,93.457 201.3762,92.889 C201.7412,93.278 202.0972,93.682 202.4432,94.1 C209.7242,102.882 210.4032,114.699 210.4572,117.621" id="Fill-139" fill="#000000"></path>
                    <path d="M221.0759,95.413 C220.5099,108.513 210.7859,118.732 210.7859,118.732 C210.7859,118.732 201.9789,107.712 202.5459,94.612 C203.1129,81.512 212.8359,71.293 212.8359,71.293 C212.8359,71.293 221.6419,82.313 221.0759,95.413" id="Fill-141" fill="#7ED1F1"></path>
                    <line x1="210.7849" y1="118.3608" x2="212.9229" y2="71.8268" id="Stroke-143" stroke="#3F3D56" stroke-width="2"></line>
                    <line x1="6.7321" y1="118.412" x2="228.8471" y2="118.412" id="Stroke-145" stroke="#3F3D56" stroke-width="2"></line>
                    <path d="M53.9059,39.226 C60.1019,39.226 65.1239,44.248 65.1239,50.444 C65.1239,56.64 60.1019,61.662 53.9059,61.662 C47.7109,61.662 42.6879,56.64 42.6879,50.444 C42.6879,44.248 47.7109,39.226 53.9059,39.226" id="Fill-147" fill="#7ED1F1"></path>
                    <path d="M34.8381,65.6279 C41.0331,65.6279 46.0561,70.6499 46.0561,76.8459 C46.0561,83.0419 41.0331,88.0639 34.8381,88.0639 C28.6421,88.0639 23.6201,83.0419 23.6201,76.8459 C23.6201,70.6499 28.6421,65.6279 34.8381,65.6279" id="Fill-149" fill="#7ED1F1"></path>
                    <path d="M11.3688,86.7128 C17.5648,86.7128 22.5868,91.7348 22.5868,97.9308 C22.5868,104.1268 17.5648,109.1488 11.3688,109.1488 C5.1738,109.1488 0.1508,104.1268 0.1508,97.9308 C0.1508,91.7348 5.1738,86.7128 11.3688,86.7128" id="Fill-151" fill="#7ED1F1"></path>
                    <line x1="11.3591" y1="118.2202" x2="11.3591" y2="97.8702" id="Stroke-153" stroke="#3F3D56" stroke-width="2"></line>
                    <path d="M11.36,94.9921 C12.949,94.9921 14.238,96.2811 14.238,97.8701 C14.238,99.4591 12.949,100.7481 11.36,100.7481 C9.771,100.7481 8.482,99.4591 8.482,97.8701 C8.482,96.2811 9.771,94.9921 11.36,94.9921" id="Fill-155" fill="#3F3D56"></path>
                    <path d="M11.36,110.412 C11.36,110.412 10.949,101.57 2.521,102.598" id="Fill-157" fill="#3F3D56"></path>
                    <line x1="53.9128" y1="118.3618" x2="53.9128" y2="50.4848" id="Stroke-159" stroke="#3F3D56" stroke-width="2"></line>
                    <path d="M53.9138,47.5761 C55.5038,47.5761 56.7918,48.8651 56.7918,50.4541 C56.7918,52.0431 55.5038,53.3321 53.9138,53.3321 C52.3248,53.3321 51.0358,52.0431 51.0358,50.4541 C51.0358,48.8651 52.3248,47.5761 53.9138,47.5761" id="Fill-161" fill="#3F3D56"></path>
                    <path d="M45.0749,96.685 C46.6639,96.685 47.9529,97.974 47.9529,99.563 C47.9529,101.152 46.6639,102.441 45.0749,102.441 C43.4859,102.441 42.1969,101.152 42.1969,99.563 C42.1969,97.974 43.4859,96.685 45.0749,96.685" id="Fill-163" fill="#3F3D56"></path>
                    <path d="M53.9128,65.1528 C53.9128,65.1528 53.5018,56.3108 45.0738,57.3388" id="Fill-165" fill="#3F3D56"></path>
                    <path d="M53.9128,90.2182 C53.9128,90.2182 53.5018,81.3762 45.0738,82.4042" id="Fill-167" fill="#3F3D56"></path>
                    <path d="M53.9128,117.5722 C53.9128,117.5722 55.7628,100.3862 45.0738,99.5632" id="Stroke-169" stroke="#3F3D56" stroke-width="2"></path>
                    <path d="M62.7541,96.685 C64.3431,96.685 65.6321,97.974 65.6321,99.563 C65.6321,101.152 64.3431,102.441 62.7541,102.441 C61.1651,102.441 59.8761,101.152 59.8761,99.563 C59.8761,97.974 61.1651,96.685 62.7541,96.685" id="Fill-171" fill="#3F3D56"></path>
                    <path d="M53.9152,117.5722 C53.9152,117.5722 52.0652,100.3862 62.7542,99.5632" id="Stroke-173" stroke="#3F3D56" stroke-width="2"></path>
                    <path d="M62.9289,69.6909 C64.5179,69.6909 65.8069,70.9799 65.8069,72.5689 C65.8069,74.1589 64.5179,75.4469 62.9289,75.4469 C61.3399,75.4469 60.0509,74.1589 60.0509,72.5689 C60.0509,70.9799 61.3399,69.6909 62.9289,69.6909" id="Fill-175" fill="#3F3D56"></path>
                    <path d="M54.09,89.6601 C54.09,89.6601 52.24,73.3901 62.929,72.5681" id="Stroke-177" stroke="#3F3D56" stroke-width="2"></path>
                    <line x1="34.8478" y1="118.267" x2="34.8478" y2="76.834" id="Stroke-179" stroke="#3F3D56" stroke-width="2"></line>
                    <path d="M34.8478,73.956 C36.4378,73.956 37.7258,75.245 37.7258,76.834 C37.7258,78.423 36.4378,79.712 34.8478,79.712 C33.2588,79.712 31.9698,78.423 31.9698,76.834 C31.9698,75.245 33.2588,73.956 34.8478,73.956" id="Fill-181" fill="#3F3D56"></path>
                    <path d="M34.8478,88.5541 C34.8478,88.5541 34.4368,79.7121 26.0088,80.7401" id="Fill-183" fill="#3F3D56"></path>
                    <path d="M34.8478,117.476 C34.8478,117.476 36.6978,100.476 26.0088,99.651" id="Stroke-185" stroke="#3F3D56" stroke-width="2"></path>
                    <path d="M26.0099,96.7719 C27.5989,96.7719 28.8879,98.0609 28.8879,99.6499 C28.8879,101.2399 27.5989,102.5279 26.0099,102.5279 C24.4209,102.5279 23.1319,101.2399 23.1319,99.6499 C23.1319,98.0609 24.4209,96.7719 26.0099,96.7719" id="Fill-187" fill="#3F3D56"></path>
                    <path d="M142.8698,85.0668 C136.8418,87.8078 129.0788,87.6138 129.0788,87.6138 L120.6788,87.6138 L120.6788,86.0138 C125.0568,84.9208 129.5568,84.4008 134.0688,84.4678 C137.0128,84.4568 139.9538,84.6568 142.8688,85.0678 L142.8698,85.0668 Z" id="Fill-191" fill="#000000"></path>
                    <path d="M152.9699,89.7138 C152.9699,92.6138 144.5059,94.9648 134.0699,94.9648 C123.6339,94.9648 115.1699,92.6148 115.1699,89.7138 C115.1699,88.2668 117.2759,86.9568 120.6829,86.0138 L120.6829,87.6138 L129.0829,87.6138 C129.0829,87.6138 136.8459,87.8078 142.8739,85.0668 C148.8749,85.9438 152.9699,87.6948 152.9699,89.7138" id="Fill-193" fill="#000000"></path>
                    <polygon id="Fill-195" fill="#2F2E41" points="128.438 65.076 136.481 65.076 136.481 57.019 128.438 57.019"></polygon>
                    <path d="M131.4289,62.7167 C131.4289,62.7167 132.0949,65.0467 130.9289,65.2167 C130.2049,65.3287 129.5189,65.6147 128.9289,66.0487 L131.0929,68.8777 L135.0869,68.8777 L137.5869,66.3777 C137.5869,66.3777 134.2579,63.8777 134.9239,62.3837 C135.5899,60.8897 131.4289,62.7167 131.4289,62.7167" id="Fill-197" fill="#FFB9B9"></path>
                    <path d="M131.4289,62.7167 C131.4289,62.7167 132.0949,65.0467 130.9289,65.2167 C130.2049,65.3287 129.5189,65.6147 128.9289,66.0487 L131.0929,68.8777 L135.0869,68.8777 L137.5869,66.3777 C137.5869,66.3777 134.2579,63.8777 134.9239,62.3837 C135.5899,60.8897 131.4289,62.7167 131.4289,62.7167" id="Fill-198" fill="#000000"></path>
                    <polygon id="Fill-199" fill="#FFB9B9" points="132.4279 91.6772 136.2559 93.0082 138.9189 93.1752 138.7529 90.8452 133.2609 89.2212"></polygon>
                    <path d="M137.3371,91.1772 C137.3371,91.1772 137.3371,93.5072 137.6701,93.5072 C138.0031,93.5072 142.4971,93.0072 143.8281,93.5072 C145.1591,94.0072 147.1571,92.1762 146.1581,91.1772 C145.1591,90.1782 143.5311,88.6772 142.5141,89.0132 C141.4971,89.3492 137.3371,90.1782 137.3371,90.1782 L137.3371,91.1772 Z" id="Fill-200" fill="#2F2E41"></path>
                    <path d="M125.1052,89.0141 C125.1052,89.0141 123.1052,93.0081 124.4392,93.3411 C125.4482,93.5691 126.5042,93.4521 127.4392,93.0081 C127.6052,92.8421 129.9392,92.1761 130.2682,92.5081 C130.5972,92.8401 130.6012,91.1771 130.6012,91.1771 L125.1052,89.0141 Z" id="Fill-201" fill="#2F2E41"></path>
                    <path d="M126.7692,83.5219 C126.7692,83.5219 123.6072,87.8489 125.9372,89.0139 C128.2672,90.1789 139.4182,90.1789 140.2502,89.0139 C141.0822,87.8489 141.4152,84.1869 140.2502,83.8549 C139.0852,83.5229 126.7692,83.5219 126.7692,83.5219" id="Fill-202" fill="#2F2E41"></path>
                    <path d="M126.7692,83.5219 C126.7692,83.5219 123.6072,87.8489 125.9372,89.0139 C128.2672,90.1789 139.4182,90.1789 140.2502,89.0139 C141.0822,87.8489 141.4152,84.1869 140.2502,83.8549 C139.0852,83.5229 126.7692,83.5219 126.7692,83.5219" id="Fill-203" fill="#000000"></path>
                    <path d="M132.7609,56.226 C134.8749,56.226 136.5889,57.94 136.5889,60.054 C136.5889,62.168 134.8749,63.882 132.7609,63.882 C130.6469,63.882 128.9329,62.168 128.9329,60.054 C128.9329,57.94 130.6469,56.226 132.7609,56.226" id="Fill-204" fill="#FFB9B9"></path>
                    <path d="M126.7692,66.0458 L130.0982,65.3798 C130.5512,66.8808 132.0522,67.8098 133.5982,67.5438 C136.2612,67.0438 136.9272,65.3798 136.9272,65.3798 C136.9272,65.3798 138.9272,66.2118 139.0912,66.2118 C139.2552,66.2118 141.4212,67.0438 141.4212,67.5428 C140.6832,69.4158 139.8482,71.2488 138.9212,73.0348 L139.2542,82.0218 L126.9382,81.6888 L127.7702,72.8678 L126.7692,66.0458 Z" id="Fill-205" fill="#7ED1F1"></path>
                    <path d="M124.9391,70.374 C124.9391,70.374 123.9391,79.195 124.6061,79.861 C125.2731,80.527 127.9351,82.361 127.9351,82.361 L127.9351,80.361 L126.6041,77.861 L127.9351,72.036 L124.9391,70.374 Z" id="Fill-206" fill="#FFB9B9"></path>
                    <path d="M142.1642,70.123 C142.1642,70.123 141.5812,79.194 141.5812,79.523 C141.1042,80.236 140.3992,80.766 139.5812,81.023 C139.0812,81.023 138.7492,80.191 138.7492,80.191 L139.9142,78.86 L139.0842,72.037 L142.1642,70.123 Z" id="Fill-207" fill="#FFB9B9"></path>
                    <path d="M140.5803,82.8559 C140.5803,82.8559 148.0703,78.6949 148.2363,82.8559 C148.4023,87.0169 144.4083,88.6809 144.4083,88.6809 C144.4083,88.6809 134.0893,91.7749 133.6733,90.6439 C133.2573,89.5129 132.4253,87.6819 133.0913,87.5159 C133.7573,87.3499 134.5913,87.0159 134.9223,87.3499 C135.2533,87.6839 139.4163,84.8499 139.4163,84.8499 L140.5803,82.8559 Z" id="Fill-208" fill="#2F2E41"></path>
                    <path d="M144.0788,82.3559 C143.3678,82.6609 142.6958,83.0519 142.0788,83.5209 C141.2458,84.0659 140.3518,84.5129 139.4158,84.8519" id="Stroke-209" stroke="#000000" stroke-width="2"></path>
                    <path d="M127.7678,66.3788 L126.7678,66.0458 C126.7678,66.0458 123.1058,69.8738 124.2678,70.8728 C125.4298,71.8718 126.0988,72.2038 126.4318,72.5368 C127.0628,72.8228 127.7408,72.9918 128.4318,73.0368 L127.7678,66.3788 Z" id="Fill-210" fill="#00B9FF"></path>
                    <path d="M139.9172,67.2099 L141.4172,67.5429 C141.8542,68.5179 142.3552,69.4629 142.9172,70.3719 C143.2502,70.7049 142.4172,70.5379 141.9172,71.2039 C141.4172,71.8699 140.9172,73.0349 139.9172,73.0349 C138.9172,73.0349 137.5872,71.3709 137.5872,71.3709 L139.9172,67.2099 Z" id="Fill-211" fill="#00B9FF"></path>
                    <path d="M127.1017,84.3539 C127.1017,84.3539 120.7777,79.8599 118.6137,83.1889 C116.4497,86.5179 127.9337,91.0109 129.5987,91.6769 C131.2637,92.3429 132.7607,93.0079 132.7607,93.0079 C133.3647,91.6039 133.8657,90.1579 134.2607,88.6809 C134.2607,88.0149 133.0957,88.0149 132.7607,88.0149 C131.9727,87.9619 131.2177,87.6719 130.5967,87.1829 C129.4897,86.1709 128.3227,85.2259 127.1017,84.3539" id="Fill-212" fill="#2F2E41"></path>
                    <path d="M123.6071,83.1889 C124.5481,83.9359 125.6201,84.5009 126.7691,84.8529 C127.5611,84.9679 128.2781,85.3849 128.7691,86.0179" id="Stroke-213" stroke="#000000" stroke-width="2"></path>
                    <path d="M125.9538,76.9311 L126.0868,83.9781 C126.0968,84.4621 126.4948,84.8481 126.9788,84.843148 L140.0928,84.6961 C140.5568,84.6911 140.9368,84.3281 140.9638,83.8651 L141.3638,76.9651 C141.3918,76.4781 141.0208,76.0611 140.5348,76.0341 C140.5168,76.0331 140.4998,76.0321 140.4828,76.0321 L126.8348,76.0321 C126.3478,76.0321 125.9528,76.4271 125.9528,76.9131 L125.9528,76.9321 L125.9538,76.9311 Z" id="Fill-214" fill="#575A89"></path>
                    <path d="M124.4372,66.0869 C124.8552,65.3299 125.2122,64.5419 125.5072,63.7279 C125.7062,62.7069 125.7512,61.6629 125.6422,60.6279 C125.5902,59.7119 125.6682,58.7919 125.8742,57.8969 C126.0832,56.9979 126.5532,56.1809 127.2242,55.5469 C128.9682,53.9899 132.1602,53.8779 134.2902,54.5259 C135.1682,54.6889 135.9012,55.2909 136.2322,56.1209 C136.2632,56.2499 136.2782,56.3819 136.3132,56.5099 C136.4872,57.1449 137.1372,57.5459 137.3712,58.1619 C137.6712,58.9619 137.2072,59.8229 137.1462,60.6719 C137.1712,61.6719 137.4842,62.6439 138.0462,63.4719 C138.3792,63.9639 138.5712,64.5379 138.6002,65.1309 C138.5762,65.4539 138.4782,65.7669 138.3132,66.0449 C137.6902,67.0709 136.5842,67.7059 135.3842,67.7239 C134.9992,67.7549 134.6142,67.6649 134.2842,67.4649 C133.7892,67.0509 133.5702,66.3929 133.7202,65.7649 C133.8752,65.1529 134.1002,64.5609 134.3912,63.9999 C134.4672,63.8219 134.5352,63.6409 134.5982,63.4579 C136.3942,62.4549 137.0362,60.1869 136.0342,58.3909 C135.0312,56.5949 132.7622,55.9529 130.9662,56.9549 C129.1712,57.9579 128.5282,60.2269 129.5312,62.0229 C130.0782,63.0019 131.0362,63.6819 132.1412,63.8749 C132.3272,64.8149 132.2432,65.7869 131.8972,66.6799 C131.5822,67.4069 131.1872,68.0959 130.7192,68.7339 C130.5272,69.0619 130.2722,69.3469 129.9692,69.5739 C129.7692,69.6919 129.5542,69.7839 129.3302,69.8469 C128.4032,70.1999 127.4102,70.3399 126.4222,70.2569 C125.4182,70.1589 124.5462,69.5259 124.1422,68.6019 C123.9152,67.7569 124.0202,66.8569 124.4372,66.0869" id="Fill-215" fill="#2F2E41"></path>
                    <path d="M132.5749,55.603 C134.8189,55.603 136.6369,56.634 136.6369,57.905 C136.6369,59.176 134.8189,60.207 132.5749,60.207 C130.3319,60.207 128.5129,59.176 128.5129,57.905 C128.5129,56.634 130.3319,55.603 132.5749,55.603" id="Fill-216" fill="#2F2E41"></path>
                    <path d="M8.5729,62.4091 C11.1829,62.4091 13.2989,64.5251 13.2989,67.1351 C13.2989,69.7451 11.1829,71.8611 8.5729,71.8611 C5.9629,71.8611 3.8469,69.7451 3.8469,67.1351 C3.8469,64.5251 5.9629,62.4091 8.5729,62.4091" id="Fill-218" fill="#F2F2F2"></path>
                    <path d="M8.2062,67.3237 L8.5722,67.3237 C8.6462,67.3237 8.9022,67.3357 8.9952,67.3397 C9.0332,67.3417 9.0712,67.3487 9.1072,67.3607 L9.1462,67.3767 C9.2032,67.3957 9.2562,67.4237 9.3042,67.4597 C9.3352,67.4817 9.3632,67.5087 9.3862,67.5387 C9.4442,67.6247 9.4762,67.7267 9.4772,67.8307 C9.4802,67.9127 9.4612,67.9927 9.4202,68.0637 C9.3612,68.1577 9.2752,68.2317 9.1732,68.2747 C8.9822,68.3527 8.7782,68.3917 8.5732,68.3897 L8.2072,68.3897 L8.2062,67.3237 Z M8.2062,65.8797 L8.2062,65.8797 L8.2062,65.8637 L8.5262,65.8637 C8.7062,65.8637 9.3052,65.8017 9.3152,66.3087 C9.3252,66.8157 8.5262,66.7947 8.5262,66.7947 L8.2062,66.7947 L8.2062,66.7557 L8.2062,65.8797 Z M10.3392,67.4097 C10.2772,67.2577 10.1642,67.1317 10.0182,67.0537 C9.9272,67.0007 9.8302,66.9617 9.7282,66.9357 C9.7962,66.9027 9.8592,66.8587 9.9142,66.8057 C9.9952,66.7297 10.0562,66.6357 10.0922,66.5297 C10.1252,66.4217 10.1392,66.3087 10.1322,66.1957 C10.1312,66.0087 10.0792,65.8247 9.9812,65.6657 C9.8722,65.5197 9.7222,65.4087 9.5512,65.3457 C9.3852,65.2817 9.2092,65.2457 9.0312,65.2407 L9.0312,64.4837 L8.5742,64.7837 L8.5742,65.2457 L8.2082,65.2457 L8.2082,64.7607 L7.7392,64.4887 L7.7392,65.2467 L6.7392,65.2467 L7.0592,65.8147 C7.1262,65.8097 7.1952,65.8197 7.2592,65.8417 C7.2912,65.8567 7.3172,65.8817 7.3332,65.9127 C7.3522,65.9797 7.3602,66.0507 7.3552,66.1197 L7.3552,68.1707 C7.3602,68.2407 7.3522,68.3097 7.3332,68.3767 C7.3182,68.4077 7.3102,68.4347 7.2752,68.4517 C7.2402,68.4687 7.2382,68.4667 7.1402,68.4667 L6.7402,69.0347 L7.7402,69.0347 L7.7402,69.7927 L8.2092,69.7927 L8.2092,69.0347 L8.5752,69.0347 L8.5752,69.7927 L9.0322,69.7927 L9.0322,69.0297 C9.2632,69.0257 9.4932,68.9847 9.7112,68.9077 C9.9142,68.8357 10.0912,68.7057 10.2222,68.5347 C10.3362,68.3527 10.3982,68.1437 10.4032,67.9287 C10.4152,67.7557 10.3942,67.5807 10.3412,67.4147 L10.3392,67.4097 Z" id="Fill-219" fill="#7ED1F1"></path>
                </g>
            </g>
        </g>
    </g>
</svg>