<?xml version="1.0" encoding="UTF-8"?>
<svg width="36px" height="36px" viewBox="0 0 36 36" version="1.1" xmlns="http://www.w3.org/2000/svg" xmlns:xlink="http://www.w3.org/1999/xlink">
    <!-- Generator: sketchtool 61 (101010) - https://sketch.com -->
    <title>51C538E8-5C05-46E7-BE38-4DA19AFB0009</title>
    <desc>Created with sketchtool.</desc>
    <g id="Page-1" stroke="none" stroke-width="1" fill="none" fill-rule="evenodd">
        <g id="Home-crypto" transform="translate(-80.000000, -573.000000)">
            <g id="Header" transform="translate(-3024.000000, -2802.000000)">
                <g id="Iconos-" transform="translate(3104.000000, 3375.000000)">
                    <g id="Rompecabezas" transform="translate(0.963100, -0.002201)">
                        <path d="M32.0649,7.27700056 L32.0649,2.97000056 L27.7649,2.97000056 C27.7649,4.61000056 26.4349,5.94000056 24.7949,5.94000056 C23.1549,5.94000056 21.8249,4.61000056 21.8249,2.97000056 L17.5249,2.97000056 L14.0029,11.3090006 L17.5249,17.5190006 L24.7949,22.9080006 L32.0739,17.5190006 L32.0739,13.2190006 C33.7139,13.2180006 35.0429,11.8870006 35.0419006,10.2470006 C35.0409,8.60900056 33.7119,7.28000056 32.0739,7.27900056 L32.0649,7.27700056 Z" id="Fill-587" fill="#244797"></path>
                        <path d="M17.519,17.5211006 L10.582,11.7291006 L2.97,17.5211006 L2.97,21.8211006 C1.33,21.8211006 5.86197757e-14,23.1511006 5.86197757e-14,24.7911006 C5.86197757e-14,26.4311006 1.33,27.7611006 2.97,27.7611006 L2.97,32.0611006 L7.27,32.0611006 C7.27,30.4211006 8.6,29.0911006 10.24,29.0911006 C11.88,29.0911006 13.21,30.4211006 13.21,32.0611006 L17.51,32.0611006 L20.939,26.2721006 L17.519,17.5211006 Z" id="Fill-589" fill="#244797"></path>
                        <path d="M32.0669,21.8214006 L32.0669,17.5214006 L27.7669,17.5214006 C27.7669,19.1614006 26.4369,20.4914006 24.7969,20.4914006 C23.1569,20.4914006 21.8269,19.1614006 21.8269,17.5214006 L17.5269,17.5214006 L17.5269,21.8214006 C15.8869,21.8214006 14.5569,23.1514006 14.5569,24.7914006 C14.5569,26.4314006 15.8869,27.7614006 17.5269,27.7614006 L17.5269,32.0614006 L21.8269,32.0614006 C21.8269,33.7014006 23.1569,35.0314006 24.7969,35.0314006 C26.4369,35.0314006 27.7669,33.7014006 27.7669,32.0614006 L32.0669,32.0614006 L32.0669,27.7614006 C30.4269,27.7614006 29.0969,26.4314006 29.0969,24.7914006 C29.0969,23.1514006 30.4269,21.8214006 32.0669,21.8214006" id="Fill-591" fill="#4A6EEB"></path>
                        <path d="M17.519,7.27600056 L17.519,2.97200056 L13.219,2.97200056 C13.22,1.33200056 11.891,0.00100056396 10.251,2.84217094e-14 C8.611,-0.000999436036 7.28,1.32800056 7.279,2.96800056 L7.279,2.97200056 L2.968,2.97200056 L2.968,7.27200056 C4.608,7.27200056 5.938,8.60200056 5.938,10.2420006 C5.938,11.8820006 4.608,13.2120006 2.968,13.2120006 L2.968,17.5120006 L7.268,17.5120006 C7.267,15.8720006 8.596,14.5410006 10.236,14.5400006 C11.876,14.5390006 13.207,15.8680006 13.208,17.5080006 L13.208,17.5120006 L17.508,17.5120006 L17.508,13.2120006 C19.148,13.2120006 20.478,11.8820006 20.478,10.2420006 C20.478,8.60200056 19.148,7.27200056 17.508,7.27200056 L17.519,7.27600056 Z" id="Fill-593" fill="#4A6EEB"></path>
                    </g>
                </g>
            </g>
        </g>
    </g>
</svg>