<?xml version="1.0" encoding="UTF-8"?>
<svg width="32px" height="32px" viewBox="0 0 32 32" version="1.1" xmlns="http://www.w3.org/2000/svg" xmlns:xlink="http://www.w3.org/1999/xlink">
    <!-- Generator: sketchtool 61 (101010) - https://sketch.com -->
    <title>D81B3D36-4221-47DA-9EBB-D352F208FBF4</title>
    <desc>Created with sketchtool.</desc>
    <g id="Page-1" stroke="none" stroke-width="1" fill="none" fill-rule="evenodd">
        <g id="Home-crypto" transform="translate(-84.000000, -638.000000)">
            <g id="Header" transform="translate(-3024.000000, -2802.000000)">
                <g id="Iconos-" transform="translate(3104.000000, 3375.000000)">
                    <g id="Simbolo-dinero" transform="translate(4.000000, 65.963200)">
                        <path d="M15.518,2.4839 C22.717,2.4839 28.553,8.3199 28.553,15.5189 C28.553,22.7179 22.717,28.5539 15.518,28.5539 C8.319,28.5539 2.483,22.7179 2.483,15.5189 C2.483,8.3199 8.319,2.4839 15.518,2.4839" id="Fill-569" fill="#9BC9FF"></path>
                        <path d="M28.5527,15.5186 C28.5527,22.7176 22.7167,28.5536 15.5177,28.5536 C8.3187,28.5536 2.4827,22.7176 2.4827,15.5186 C2.4827,8.3196 8.3187,2.4836 15.5177,2.4836 C22.7167,2.4836 28.5527,8.3196 28.5527,15.5186" id="Fill-571" fill="#244797"></path>
                        <path d="M15.518,2.483 C22.717,2.483 28.553,8.319 28.553,15.518 C28.553,22.717 22.717,28.553 15.518,28.553 C8.319,28.553 2.483,22.717 2.483,15.519 C2.483,8.32 8.319,2.484 15.518,2.484 L15.518,2.483 Z M15.518,31.036 C24.088,31.036 31.036,24.088 31.036,15.518 C31.036,6.947 24.088,-1.98951966e-13 15.518,-1.98951966e-13 C6.947,-1.98951966e-13 0,6.947 0,15.518 L0,15.519 C0,24.089 6.948,31.036 15.518,31.036 L15.518,31.036 Z" id="Fill-573" fill="#244797"></path>
                        <path d="M15.518,14.899 C14.146,14.899 13.035,13.787 13.035,12.416 C13.035,11.045 14.146,9.933 15.518,9.933 C16.889,9.933 18.001,11.045 18.001,12.416 L19.242,12.416 C19.239,10.602 17.93,9.053 16.142,8.748 L16.142,7.448 L14.894,7.448 L14.894,8.748 C12.868,9.1 11.51,11.028 11.862,13.054 C12.171,14.832 13.71,16.133 15.515,16.141 C16.886,16.141 17.998,17.253 17.998,18.624 C17.998,19.995 16.886,21.107 15.515,21.107 C14.143,21.107 13.032,19.995 13.032,18.624 L11.794,18.624 C11.797,20.438 13.106,21.986 14.894,22.292 L14.894,23.592 L16.135,23.592 L16.135,22.292 C18.161,21.94 19.518,20.012 19.166,17.985 C18.857,16.208 17.318,14.907 15.514,14.899 L15.518,14.899 Z" id="Fill-575" fill="#84A0FF"></path>
                        <path d="M15.519,3.105 C8.663,3.105 3.105,8.663 3.105,15.519 C3.105,22.375 8.663,27.933 15.519,27.933 C22.374,27.933 27.932,22.376 27.933,15.52 C27.934,8.664 22.376,3.105 15.52,3.105 L15.519,3.105 Z M15.519,29.175 C7.977,29.175 1.862,23.062 1.862,15.52 C1.861,7.978 7.975,1.863 15.517,1.863 C23.059,1.862 29.173,7.976 29.174,15.518 L29.174,15.52 C29.173,23.061 23.06,29.174 15.519,29.175 L15.519,29.175 Z" id="Fill-577" fill="#84A0FF"></path>
                        <path d="M26.0708,16.1397 C25.7278,16.1397 25.4498,15.8617 25.4498,15.5187 C25.4468,11.8777 23.4548,8.5307 20.2558,6.7917 C19.9638,6.6127 19.8708,6.2307 20.0498,5.9377 C20.2168,5.6657 20.5628,5.5637 20.8498,5.7027 C24.4478,7.6577 26.6888,11.4237 26.6908,15.5187 C26.6908,15.8617 26.4138,16.1397 26.0708,16.1397" id="Fill-579" fill="#84A0FF"></path>
                        <path d="M17.998,5.8838 C17.949,5.8838 17.899,5.8778 17.852,5.8658 C17.087,5.6808 16.303,5.5888 15.516,5.5888 C15.173,5.5748 14.907,5.2858 14.92,4.9438 C14.933,4.6198 15.192,4.3608 15.516,4.34779286 C16.401,4.3468 17.284,4.4508 18.145,4.6578 C18.479,4.7328 18.69,5.0648 18.616,5.3988 C18.551,5.6868 18.293,5.8898 17.999,5.8848 L17.998,5.8838 Z" id="Fill-581" fill="#84A0FF"></path>
                        <path d="M10.4829,25.4117 C10.3779,25.412706 10.2749,25.3867 10.1829,25.3357 C6.5869,23.3797 4.3469,19.6137 4.3459,15.5197 C4.3319,15.1777 4.5989,14.8887 4.9409,14.8747 C5.2839,14.8607 4.1679,14.0547 4.1819,14.3977 C4.1819,14.4137 5.5869,15.5027 5.5869,15.5197 C5.5889,19.1607 7.5819,22.5087 10.7809,24.2467 C11.0819,24.4117 11.1919,24.7887 11.0279,25.0897 C10.9189,25.2897 10.7089,25.4137 10.4809,25.412706 L10.4829,25.4117 Z" id="Fill-583" fill="#84A0FF"></path>
                        <path d="M15.519,26.6920071 C14.633,26.693 13.751,26.589 12.89,26.382 C12.553,26.316 12.334,25.989 12.4,25.652 C12.467,25.316 12.793,25.097 13.13,25.163 C13.147,25.167 13.165,25.171 13.182,25.176 C13.947,25.359 14.732,25.452 15.519,25.451 C15.861,25.464 16.128,25.754 16.114,26.096 C16.102,26.42 15.842,26.679 15.519,26.6920071" id="Fill-585" fill="#84A0FF"></path>
                    </g>
                </g>
            </g>
        </g>
    </g>
</svg>