<svg xmlns="http://www.w3.org/2000/svg" viewBox="0 0 515 836">
  <defs>
    <style>
      .cls-1 {
        opacity: 0.07;
      }

      .cls-2 {
        fill: #d8edff;
        fill-rule: evenodd;
      }
    </style>
  </defs>
  <g id="Textura_Derecha" data-name="Textura Derecha" class="cls-1">
    <g id="Home-crypto" transform="translate(-955)">
      <g id="Header" transform="translate(-3023 -3364)">
        <g id="Textura-Derecha" transform="translate(3978 3238)">
          <g id="Group-104" transform="translate(0 706)">
            <path id="Fill-2" class="cls-2" d="M173,0a5,5,0,1,1-5,5,5,5,0,0,1,5-5"/>
            <path id="Fill-4" class="cls-2" d="M215,0a5,5,0,1,1-5,5,5,5,0,0,1,5-5"/>
            <path id="Fill-6" class="cls-2" d="M215,41a5,5,0,1,1-5,5,5,5,0,0,1,5-5"/>
            <path id="Fill-8" class="cls-2" d="M173,41a5,5,0,1,1-5,5,5,5,0,0,1,5-5"/>
            <path id="Fill-10" class="cls-2" d="M257,41a5,5,0,1,1-5,5,5,5,0,0,1,5-5"/>
            <path id="Fill-12" class="cls-2" d="M299,41a5,5,0,1,1-5,5,5,5,0,0,1,5-5"/>
            <path id="Fill-14" class="cls-2" d="M215,82a5,5,0,1,1-5,5,5,5,0,0,1,5-5"/>
            <path id="Fill-16" class="cls-2" d="M173,82a5,5,0,1,1-5,5,5,5,0,0,1,5-5"/>
            <path id="Fill-18" class="cls-2" d="M257,82a5,5,0,1,1-5,5,5,5,0,0,1,5-5"/>
            <path id="Fill-20" class="cls-2" d="M299,82a5,5,0,1,1-5,5,5,5,0,0,1,5-5"/>
            <path id="Fill-22" class="cls-2" d="M341,82a5,5,0,1,1-5,5,5,5,0,0,1,5-5"/>
            <path id="Fill-24" class="cls-2" d="M215,123a5,5,0,1,1-5,5,5,5,0,0,1,5-5"/>
            <path id="Fill-26" class="cls-2" d="M173,123a5,5,0,1,1-5,5,5,5,0,0,1,5-5"/>
            <path id="Fill-28" class="cls-2" d="M131,123a5,5,0,1,1-5,5,5,5,0,0,1,5-5"/>
            <path id="Fill-30" class="cls-2" d="M257,123a5,5,0,1,1-5,5,5,5,0,0,1,5-5"/>
            <path id="Fill-32" class="cls-2" d="M299,123a5,5,0,1,1-5,5,5,5,0,0,1,5-5"/>
            <path id="Fill-34" class="cls-2" d="M341,123a5,5,0,1,1-5,5,5,5,0,0,1,5-5"/>
            <path id="Fill-36" class="cls-2" d="M215,164a5,5,0,1,1-5,5,5,5,0,0,1,5-5"/>
            <path id="Fill-38" class="cls-2" d="M173,164a5,5,0,1,1-5,5,5,5,0,0,1,5-5"/>
            <path id="Fill-40" class="cls-2" d="M131,164a5,5,0,1,1-5,5,5,5,0,0,1,5-5"/>
            <path id="Fill-42" class="cls-2" d="M257,164a5,5,0,1,1-5,5,5,5,0,0,1,5-5"/>
            <path id="Fill-44" class="cls-2" d="M299,164a5,5,0,1,1-5,5,5,5,0,0,1,5-5"/>
            <path id="Fill-46" class="cls-2" d="M341,164a5,5,0,1,1-5,5,5,5,0,0,1,5-5"/>
            <path id="Fill-48" class="cls-2" d="M215,205a5,5,0,1,1-5,5,5,5,0,0,1,5-5"/>
            <path id="Fill-50" class="cls-2" d="M173,205a5,5,0,1,1-5,5,5,5,0,0,1,5-5"/>
            <path id="Fill-52" class="cls-2" d="M131,205a5,5,0,1,1-5,5,5,5,0,0,1,5-5"/>
            <path id="Fill-54" class="cls-2" d="M257,205a5,5,0,1,1-5,5,5,5,0,0,1,5-5"/>
            <path id="Fill-56" class="cls-2" d="M299,205a5,5,0,1,1-5,5,5,5,0,0,1,5-5"/>
            <path id="Fill-58" class="cls-2" d="M341,205a5,5,0,1,1-5,5,5,5,0,0,1,5-5"/>
            <path id="Fill-60" class="cls-2" d="M215,246a5,5,0,1,1-5,5,5,5,0,0,1,5-5"/>
            <path id="Fill-62" class="cls-2" d="M173,246a5,5,0,1,1-5,5,5,5,0,0,1,5-5"/>
            <path id="Fill-64" class="cls-2" d="M257,246a5,5,0,1,1-5,5,5,5,0,0,1,5-5"/>
            <path id="Fill-66" class="cls-2" d="M299,246a5,5,0,1,1-5,5,5,5,0,0,1,5-5"/>
            <path id="Fill-68" class="cls-2" d="M341,246a5,5,0,1,1-5,5,5,5,0,0,1,5-5"/>
            <path id="Fill-70" class="cls-2" d="M383,123a5,5,0,1,1-5,5,5,5,0,0,1,5-5"/>
            <path id="Fill-72" class="cls-2" d="M383,164a5,5,0,1,1-5,5,5,5,0,0,1,5-5"/>
            <path id="Fill-74" class="cls-2" d="M383,205a5,5,0,1,1-5,5,5,5,0,0,1,5-5"/>
            <path id="Fill-76" class="cls-2" d="M257,0a5,5,0,1,1-5,5,5,5,0,0,1,5-5"/>
            <path id="Fill-78" class="cls-2" d="M131,0a5,5,0,1,1-5,5,5,5,0,0,1,5-5"/>
            <path id="Fill-80" class="cls-2" d="M131,41a5,5,0,1,1-5,5,5,5,0,0,1,5-5"/>
            <path id="Fill-82" class="cls-2" d="M131,82a5,5,0,1,1-5,5,5,5,0,0,1,5-5"/>
            <path id="Fill-84" class="cls-2" d="M89,0a5,5,0,1,1-5,5,5,5,0,0,1,5-5"/>
            <path id="Fill-86" class="cls-2" d="M89,41a5,5,0,1,1-5,5,5,5,0,0,1,5-5"/>
            <path id="Fill-88" class="cls-2" d="M89,82a5,5,0,1,1-5,5,5,5,0,0,1,5-5"/>
            <path id="Fill-90" class="cls-2" d="M47,0a5,5,0,1,1-5,5,5,5,0,0,1,5-5"/>
            <path id="Fill-92" class="cls-2" d="M47,41a5,5,0,1,1-5,5,5,5,0,0,1,5-5"/>
            <path id="Fill-94" class="cls-2" d="M47,82a5,5,0,1,1-5,5,5,5,0,0,1,5-5"/>
            <path id="Fill-96" class="cls-2" d="M5,0A5,5,0,1,1,0,5,5,5,0,0,1,5,0"/>
            <path id="Fill-98" class="cls-2" d="M5,41a5,5,0,1,1-5,5,5,5,0,0,1,5-5"/>
            <path id="Fill-100" class="cls-2" d="M5,82a5,5,0,1,1-5,5,5,5,0,0,1,5-5"/>
            <path id="Fill-102" class="cls-2" d="M89,123a5,5,0,1,1-5,5,5,5,0,0,1,5-5"/>
          </g>
          <g id="Group-189" transform="translate(295 583)">
            <path id="Fill-107" class="cls-2" d="M215,256a5,5,0,1,1,5-5,5,5,0,0,1-5,5"/>
            <path id="Fill-109" class="cls-2" d="M173,256a5,5,0,1,1,5-5,5,5,0,0,1-5,5"/>
            <path id="Fill-111" class="cls-2" d="M173,215a5,5,0,1,1,5-5,5,5,0,0,1-5,5"/>
            <path id="Fill-113" class="cls-2" d="M215,215a5,5,0,1,1,5-5,5,5,0,0,1-5,5"/>
            <path id="Fill-117" class="cls-2" d="M131,215a5,5,0,1,1,5-5,5,5,0,0,1-5,5"/>
            <path id="Fill-119" class="cls-2" d="M89,215a5,5,0,1,1,5-5,5,5,0,0,1-5,5"/>
            <path id="Fill-121" class="cls-2" d="M173,174a5,5,0,1,1,5-5,5,5,0,0,1-5,5"/>
            <path id="Fill-123" class="cls-2" d="M215,174a5,5,0,1,1,5-5,5,5,0,0,1-5,5"/>
            <path id="Fill-127" class="cls-2" d="M131,174a5,5,0,1,1,5-5,5,5,0,0,1-5,5"/>
            <path id="Fill-129" class="cls-2" d="M89,174a5,5,0,1,1,5-5,5,5,0,0,1-5,5"/>
            <path id="Fill-131" class="cls-2" d="M47,174a5,5,0,1,1,5-5,5,5,0,0,1-5,5"/>
            <path id="Fill-133" class="cls-2" d="M173,133a5,5,0,1,1,5-5,5,5,0,0,1-5,5"/>
            <path id="Fill-135" class="cls-2" d="M215,133a5,5,0,1,1,5-5,5,5,0,0,1-5,5"/>
            <path id="Fill-139" class="cls-2" d="M131,133a5,5,0,1,1,5-5,5,5,0,0,1-5,5"/>
            <path id="Fill-141" class="cls-2" d="M89,133a5,5,0,1,1,5-5,5,5,0,0,1-5,5"/>
            <path id="Fill-143" class="cls-2" d="M47,133a5,5,0,1,1,5-5,5,5,0,0,1-5,5"/>
            <path id="Fill-145" class="cls-2" d="M173,92a5,5,0,1,1,5-5,5,5,0,0,1-5,5"/>
            <path id="Fill-147" class="cls-2" d="M215,92a5,5,0,1,1,5-5,5,5,0,0,1-5,5"/>
            <path id="Fill-151" class="cls-2" d="M131,92a5,5,0,1,1,5-5,5,5,0,0,1-5,5"/>
            <path id="Fill-153" class="cls-2" d="M89,92a5,5,0,1,1,5-5,5,5,0,0,1-5,5"/>
            <path id="Fill-155" class="cls-2" d="M47,92a5,5,0,1,1,5-5,5,5,0,0,1-5,5"/>
            <path id="Fill-157" class="cls-2" d="M173,51a5,5,0,1,1,5-5,5,5,0,0,1-5,5"/>
            <path id="Fill-159" class="cls-2" d="M215,51a5,5,0,1,1,5-5,5,5,0,0,1-5,5"/>
            <path id="Fill-163" class="cls-2" d="M131,51a5,5,0,1,1,5-5,5,5,0,0,1-5,5"/>
            <path id="Fill-165" class="cls-2" d="M89,51a5,5,0,1,1,5-5,5,5,0,0,1-5,5"/>
            <path id="Fill-167" class="cls-2" d="M47,51a5,5,0,1,1,5-5,5,5,0,0,1-5,5"/>
            <path id="Fill-169" class="cls-2" d="M173,10a5,5,0,1,1,5-5,5,5,0,0,1-5,5"/>
            <path id="Fill-171" class="cls-2" d="M215,10a5,5,0,1,1,5-5,5,5,0,0,1-5,5"/>
            <path id="Fill-175" class="cls-2" d="M131,10a5,5,0,1,1,5-5,5,5,0,0,1-5,5"/>
            <path id="Fill-177" class="cls-2" d="M89,10a5,5,0,1,1,5-5,5,5,0,0,1-5,5"/>
            <path id="Fill-179" class="cls-2" d="M47,10a5,5,0,1,1,5-5,5,5,0,0,1-5,5"/>
            <path id="Fill-181" class="cls-2" d="M5,133a5,5,0,1,1,5-5,5,5,0,0,1-5,5"/>
            <path id="Fill-183" class="cls-2" d="M5,92a5,5,0,1,1,5-5,5,5,0,0,1-5,5"/>
            <path id="Fill-185" class="cls-2" d="M5,51a5,5,0,1,1,5-5,5,5,0,0,1-5,5"/>
            <path id="Fill-187" class="cls-2" d="M131,256a5,5,0,1,1,5-5,5,5,0,0,1-5,5"/>
          </g>
          <g id="Group-272" transform="translate(297 292)">
            <path id="Fill-190" class="cls-2" d="M0,257a5,5,0,1,1,5,5,5,5,0,0,1-5-5"/>
            <path id="Fill-192" class="cls-2" d="M0,215a5,5,0,1,1,5,5,5,5,0,0,1-5-5"/>
            <path id="Fill-194" class="cls-2" d="M0,173a5,5,0,1,1,5,5,5,5,0,0,1-5-5"/>
            <path id="Fill-196" class="cls-2" d="M41,173a5,5,0,1,1,5,5,5,5,0,0,1-5-5"/>
            <path id="Fill-198" class="cls-2" d="M41,215a5,5,0,1,1,5,5,5,5,0,0,1-5-5"/>
            <path id="Fill-200" class="cls-2" d="M41,257a5,5,0,1,1,5,5,5,5,0,0,1-5-5"/>
            <path id="Fill-202" class="cls-2" d="M41,131a5,5,0,1,1,5,5,5,5,0,0,1-5-5"/>
            <path id="Fill-204" class="cls-2" d="M41,89a5,5,0,1,1,5,5,5,5,0,0,1-5-5"/>
            <path id="Fill-206" class="cls-2" d="M82,173a5,5,0,1,1,5,5,5,5,0,0,1-5-5"/>
            <path id="Fill-208" class="cls-2" d="M82,215a5,5,0,1,1,5,5,5,5,0,0,1-5-5"/>
            <path id="Fill-210" class="cls-2" d="M82,257a5,5,0,1,1,5,5,5,5,0,0,1-5-5"/>
            <path id="Fill-212" class="cls-2" d="M82,131a5,5,0,1,1,5,5,5,5,0,0,1-5-5"/>
            <path id="Fill-214" class="cls-2" d="M82,89a5,5,0,1,1,5,5,5,5,0,0,1-5-5"/>
            <path id="Fill-216" class="cls-2" d="M82,47a5,5,0,1,1,5,5,5,5,0,0,1-5-5"/>
            <path id="Fill-218" class="cls-2" d="M123,173a5,5,0,1,1,5,5,5,5,0,0,1-5-5"/>
            <path id="Fill-220" class="cls-2" d="M123,215a5,5,0,1,1,5,5,5,5,0,0,1-5-5"/>
            <path id="Fill-222" class="cls-2" d="M123,257a5,5,0,1,1,5,5,5,5,0,0,1-5-5"/>
            <path id="Fill-224" class="cls-2" d="M123,131a5,5,0,1,1,5,5,5,5,0,0,1-5-5"/>
            <path id="Fill-226" class="cls-2" d="M123,89a5,5,0,1,1,5,5,5,5,0,0,1-5-5"/>
            <path id="Fill-228" class="cls-2" d="M123,47a5,5,0,1,1,5,5,5,5,0,0,1-5-5"/>
            <path id="Fill-230" class="cls-2" d="M164,173a5,5,0,1,1,5,5,5,5,0,0,1-5-5"/>
            <path id="Fill-232" class="cls-2" d="M164,215a5,5,0,1,1,5,5,5,5,0,0,1-5-5"/>
            <path id="Fill-234" class="cls-2" d="M164,257a5,5,0,1,1,5,5,5,5,0,0,1-5-5"/>
            <path id="Fill-236" class="cls-2" d="M164,131a5,5,0,1,1,5,5,5,5,0,0,1-5-5"/>
            <path id="Fill-238" class="cls-2" d="M164,89a5,5,0,1,1,5,5,5,5,0,0,1-5-5"/>
            <path id="Fill-240" class="cls-2" d="M164,47a5,5,0,1,1,5,5,5,5,0,0,1-5-5"/>
            <path id="Fill-242" class="cls-2" d="M205,173a5,5,0,1,1,5,5,5,5,0,0,1-5-5"/>
            <path id="Fill-244" class="cls-2" d="M205,215a5,5,0,1,1,5,5,5,5,0,0,1-5-5"/>
            <path id="Fill-246" class="cls-2" d="M205,257a5,5,0,1,1,5,5,5,5,0,0,1-5-5"/>
            <path id="Fill-248" class="cls-2" d="M205,131a5,5,0,1,1,5,5,5,5,0,0,1-5-5"/>
            <path id="Fill-250" class="cls-2" d="M205,89a5,5,0,1,1,5,5,5,5,0,0,1-5-5"/>
            <path id="Fill-252" class="cls-2" d="M205,47a5,5,0,1,1,5,5,5,5,0,0,1-5-5"/>
            <path id="Fill-266" class="cls-2" d="M123,5a5,5,0,1,1,5,5,5,5,0,0,1-5-5"/>
            <path id="Fill-268" class="cls-2" d="M164,5a5,5,0,1,1,5,5,5,5,0,0,1-5-5"/>
            <path id="Fill-270" class="cls-2" d="M205,5a5,5,0,1,1,5,5,5,5,0,0,1-5-5"/>
          </g>
          <g id="Group-528" transform="translate(462)">
            <path id="Fill-439" class="cls-2" d="M0,257a5,5,0,1,1,5,5,5,5,0,0,1-5-5"/>
            <path id="Fill-441" class="cls-2" d="M0,215a5,5,0,1,1,5,5,5,5,0,0,1-5-5"/>
            <path id="Fill-443" class="cls-2" d="M41,173a5,5,0,1,1,5,5,5,5,0,0,1-5-5"/>
            <path id="Fill-445" class="cls-2" d="M41,215a5,5,0,1,1,5,5,5,5,0,0,1-5-5"/>
            <path id="Fill-447" class="cls-2" d="M41,257a5,5,0,1,1,5,5,5,5,0,0,1-5-5"/>
            <path id="Fill-449" class="cls-2" d="M41,131a5,5,0,1,1,5,5,5,5,0,0,1-5-5"/>
          </g>
        </g>
      </g>
    </g>
  </g>
</svg>
