<svg xmlns="http://www.w3.org/2000/svg" viewBox="0 0 499 379">
  <defs>
    <style>
      .cls-1 {
        opacity: 0.07;
      }

      .cls-2 {
        fill: #d8edff;
        fill-rule: evenodd;
      }
    </style>
  </defs>
  <g id="Textura_izquierda" data-name="Textura izquierda" class="cls-1">
    <g id="Home-crypto" transform="translate(-1 -48)">
      <g id="Header" transform="translate(-3023 -3364)">
        <g id="Textura-izquierda" transform="translate(2940 3412)">
          <g id="Group-355">
            <path id="Fill-277" class="cls-2" d="M89,0a5,5,0,1,1-5,5,5,5,0,0,1,5-5"/>
            <path id="Fill-279" class="cls-2" d="M89,41a5,5,0,1,1-5,5,5,5,0,0,1,5-5"/>
            <path id="Fill-285" class="cls-2" d="M131,41a5,5,0,1,1-5,5,5,5,0,0,1,5-5"/>
            <path id="Fill-287" class="cls-2" d="M173,41a5,5,0,1,1-5,5,5,5,0,0,1,5-5"/>
            <path id="Fill-289" class="cls-2" d="M89,82a5,5,0,1,1-5,5,5,5,0,0,1,5-5"/>
            <path id="Fill-295" class="cls-2" d="M131,82a5,5,0,1,1-5,5,5,5,0,0,1,5-5"/>
            <path id="Fill-297" class="cls-2" d="M173,82a5,5,0,1,1-5,5,5,5,0,0,1,5-5"/>
            <path id="Fill-299" class="cls-2" d="M215,82a5,5,0,1,1-5,5,5,5,0,0,1,5-5"/>
            <path id="Fill-301" class="cls-2" d="M89,123a5,5,0,1,1-5,5,5,5,0,0,1,5-5"/>
            <path id="Fill-307" class="cls-2" d="M131,123a5,5,0,1,1-5,5,5,5,0,0,1,5-5"/>
            <path id="Fill-309" class="cls-2" d="M173,123a5,5,0,1,1-5,5,5,5,0,0,1,5-5"/>
            <path id="Fill-311" class="cls-2" d="M215,123a5,5,0,1,1-5,5,5,5,0,0,1,5-5"/>
            <path id="Fill-313" class="cls-2" d="M89,164a5,5,0,1,1-5,5,5,5,0,0,1,5-5"/>
            <path id="Fill-319" class="cls-2" d="M131,164a5,5,0,1,1-5,5,5,5,0,0,1,5-5"/>
            <path id="Fill-321" class="cls-2" d="M173,164a5,5,0,1,1-5,5,5,5,0,0,1,5-5"/>
            <path id="Fill-323" class="cls-2" d="M215,164a5,5,0,1,1-5,5,5,5,0,0,1,5-5"/>
            <path id="Fill-325" class="cls-2" d="M89,205a5,5,0,1,1-5,5,5,5,0,0,1,5-5"/>
            <path id="Fill-331" class="cls-2" d="M131,205a5,5,0,1,1-5,5,5,5,0,0,1,5-5"/>
            <path id="Fill-333" class="cls-2" d="M173,205a5,5,0,1,1-5,5,5,5,0,0,1,5-5"/>
            <path id="Fill-335" class="cls-2" d="M215,205a5,5,0,1,1-5,5,5,5,0,0,1,5-5"/>
            <path id="Fill-337" class="cls-2" d="M89,246a5,5,0,1,1-5,5,5,5,0,0,1,5-5"/>
            <path id="Fill-343" class="cls-2" d="M131,246a5,5,0,1,1-5,5,5,5,0,0,1,5-5"/>
            <path id="Fill-345" class="cls-2" d="M173,246a5,5,0,1,1-5,5,5,5,0,0,1,5-5"/>
            <path id="Fill-347" class="cls-2" d="M215,246a5,5,0,1,1-5,5,5,5,0,0,1,5-5"/>
            <path id="Fill-349" class="cls-2" d="M257,123a5,5,0,1,1-5,5,5,5,0,0,1,5-5"/>
            <path id="Fill-351" class="cls-2" d="M257,164a5,5,0,1,1-5,5,5,5,0,0,1,5-5"/>
            <path id="Fill-353" class="cls-2" d="M257,205a5,5,0,1,1-5,5,5,5,0,0,1,5-5"/>
          </g>
          <g id="Group-438" transform="translate(293 123)">
            <path id="Fill-356" class="cls-2" d="M5,0A5,5,0,1,1,0,5,5,5,0,0,1,5,0"/>
            <path id="Fill-358" class="cls-2" d="M47,0a5,5,0,1,1-5,5,5,5,0,0,1,5-5"/>
            <path id="Fill-360" class="cls-2" d="M89,0a5,5,0,1,1-5,5,5,5,0,0,1,5-5"/>
            <path id="Fill-362" class="cls-2" d="M89,41a5,5,0,1,1-5,5,5,5,0,0,1,5-5"/>
            <path id="Fill-364" class="cls-2" d="M47,41a5,5,0,1,1-5,5,5,5,0,0,1,5-5"/>
            <path id="Fill-366" class="cls-2" d="M5,41a5,5,0,1,1-5,5,5,5,0,0,1,5-5"/>
            <path id="Fill-368" class="cls-2" d="M131,41a5,5,0,1,1-5,5,5,5,0,0,1,5-5"/>
            <path id="Fill-370" class="cls-2" d="M173,41a5,5,0,1,1-5,5,5,5,0,0,1,5-5"/>
            <path id="Fill-372" class="cls-2" d="M89,82a5,5,0,1,1-5,5,5,5,0,0,1,5-5"/>
            <path id="Fill-374" class="cls-2" d="M47,82a5,5,0,1,1-5,5,5,5,0,0,1,5-5"/>
            <path id="Fill-376" class="cls-2" d="M5,82a5,5,0,1,1-5,5,5,5,0,0,1,5-5"/>
            <path id="Fill-378" class="cls-2" d="M131,82a5,5,0,1,1-5,5,5,5,0,0,1,5-5"/>
            <path id="Fill-380" class="cls-2" d="M173,82a5,5,0,1,1-5,5,5,5,0,0,1,5-5"/>
            <path id="Fill-382" class="cls-2" d="M215,82a5,5,0,1,1-5,5,5,5,0,0,1,5-5"/>
            <path id="Fill-384" class="cls-2" d="M89,123a5,5,0,1,1-5,5,5,5,0,0,1,5-5"/>
            <path id="Fill-386" class="cls-2" d="M47,123a5,5,0,1,1-5,5,5,5,0,0,1,5-5"/>
            <path id="Fill-388" class="cls-2" d="M5,123a5,5,0,1,1-5,5,5,5,0,0,1,5-5"/>
            <path id="Fill-390" class="cls-2" d="M131,123a5,5,0,1,1-5,5,5,5,0,0,1,5-5"/>
            <path id="Fill-392" class="cls-2" d="M173,123a5,5,0,1,1-5,5,5,5,0,0,1,5-5"/>
            <path id="Fill-394" class="cls-2" d="M215,123a5,5,0,1,1-5,5,5,5,0,0,1,5-5"/>
            <path id="Fill-396" class="cls-2" d="M89,164a5,5,0,1,1-5,5,5,5,0,0,1,5-5"/>
            <path id="Fill-398" class="cls-2" d="M47,164a5,5,0,1,1-5,5,5,5,0,0,1,5-5"/>
            <path id="Fill-400" class="cls-2" d="M5,164a5,5,0,1,1-5,5,5,5,0,0,1,5-5"/>
            <path id="Fill-402" class="cls-2" d="M131,164a5,5,0,1,1-5,5,5,5,0,0,1,5-5"/>
            <path id="Fill-404" class="cls-2" d="M173,164a5,5,0,1,1-5,5,5,5,0,0,1,5-5"/>
            <path id="Fill-406" class="cls-2" d="M215,164a5,5,0,1,1-5,5,5,5,0,0,1,5-5"/>
            <path id="Fill-408" class="cls-2" d="M89,205a5,5,0,1,1-5,5,5,5,0,0,1,5-5"/>
            <path id="Fill-410" class="cls-2" d="M47,205a5,5,0,1,1-5,5,5,5,0,0,1,5-5"/>
            <path id="Fill-412" class="cls-2" d="M5,205a5,5,0,1,1-5,5,5,5,0,0,1,5-5"/>
            <path id="Fill-414" class="cls-2" d="M131,205a5,5,0,1,1-5,5,5,5,0,0,1,5-5"/>
            <path id="Fill-416" class="cls-2" d="M173,205a5,5,0,1,1-5,5,5,5,0,0,1,5-5"/>
            <path id="Fill-418" class="cls-2" d="M215,205a5,5,0,1,1-5,5,5,5,0,0,1,5-5"/>
            <path id="Fill-420" class="cls-2" d="M89,246a5,5,0,1,1-5,5,5,5,0,0,1,5-5"/>
            <path id="Fill-422" class="cls-2" d="M47,246a5,5,0,1,1-5,5,5,5,0,0,1,5-5"/>
            <path id="Fill-424" class="cls-2" d="M5,246a5,5,0,1,1-5,5,5,5,0,0,1,5-5"/>
            <path id="Fill-426" class="cls-2" d="M131,246a5,5,0,1,1-5,5,5,5,0,0,1,5-5"/>
            <path id="Fill-428" class="cls-2" d="M173,246a5,5,0,1,1-5,5,5,5,0,0,1,5-5"/>
            <path id="Fill-430" class="cls-2" d="M215,246a5,5,0,1,1-5,5,5,5,0,0,1,5-5"/>
            <path id="Fill-432" class="cls-2" d="M257,123a5,5,0,1,1-5,5,5,5,0,0,1,5-5"/>
            <path id="Fill-434" class="cls-2" d="M257,164a5,5,0,1,1-5,5,5,5,0,0,1,5-5"/>
            <path id="Fill-436" class="cls-2" d="M285,123a5,5,0,1,1-5,5,5,5,0,0,1,5-5"/>
          </g>
        </g>
      </g>
    </g>
  </g>
</svg>
