<?xml version="1.0" encoding="UTF-8"?>
<svg width="513px" height="836px" viewBox="0 0 513 836" version="1.1" xmlns="http://www.w3.org/2000/svg" xmlns:xlink="http://www.w3.org/1999/xlink">
    <!-- Generator: sketchtool 61 (101010) - https://sketch.com -->
    <title>37183AD8-BB81-478B-98AC-C9C174A11673</title>
    <desc>Created with sketchtool.</desc>
    <g id="Page-1" stroke="none" stroke-width="1" fill="none" fill-rule="evenodd" opacity="0.125558036">
        <g id="Home-crypto" transform="translate(-955.000000, 0.000000)" fill="#D8EDFF">
            <g id="Header" transform="translate(-3023.000000, -3364.000000)">
                <g id="Textura-Derecha" transform="translate(3978.000000, 3238.000000)">
                    <g id="Group-104" transform="translate(0.000000, 706.000000)">
                        <path d="M173.0002,-0.0001 C175.7622,-0.0001 178.0002,2.2389 178.0002,4.9999 C178.0002,7.7619 175.7622,9.9999 173.0002,9.9999 C170.2382,9.9999 168.0002,7.7619 168.0002,4.9999 C168.0002,2.2389 170.2382,-0.0001 173.0002,-0.0001" id="Fill-2"></path>
                        <path d="M215.0002,-0.0001 C217.7622,-0.0001 220.0002,2.2389 220.0002,4.9999 C220.0002,7.7619 217.7622,9.9999 215.0002,9.9999 C212.2382,9.9999 210.0002,7.7619 210.0002,4.9999 C210.0002,2.2389 212.2382,-0.0001 215.0002,-0.0001" id="Fill-4"></path>
                        <path d="M215.0002,40.9999 C217.7622,40.9999 220.0002,43.2389 220.0002,45.9999 C220.0002,48.7619 217.7622,50.9999 215.0002,50.9999 C212.2382,50.9999 210.0002,48.7619 210.0002,45.9999 C210.0002,43.2389 212.2382,40.9999 215.0002,40.9999" id="Fill-6"></path>
                        <path d="M173.0002,40.9999 C175.7622,40.9999 178.0002,43.2389 178.0002,45.9999 C178.0002,48.7619 175.7622,50.9999 173.0002,50.9999 C170.2382,50.9999 168.0002,48.7619 168.0002,45.9999 C168.0002,43.2389 170.2382,40.9999 173.0002,40.9999" id="Fill-8"></path>
                        <path d="M257.0002,40.9999 C259.7622,40.9999 262.0002,43.2389 262.0002,45.9999 C262.0002,48.7619 259.7622,50.9999 257.0002,50.9999 C254.2382,50.9999 252.0002,48.7619 252.0002,45.9999 C252.0002,43.2389 254.2382,40.9999 257.0002,40.9999" id="Fill-10"></path>
                        <path d="M299.0002,40.9999 C301.7622,40.9999 304.0002,43.2389 304.0002,45.9999 C304.0002,48.7619 301.7622,50.9999 299.0002,50.9999 C296.2382,50.9999 294.0002,48.7619 294.0002,45.9999 C294.0002,43.2389 296.2382,40.9999 299.0002,40.9999" id="Fill-12"></path>
                        <path d="M215.0002,81.9999 C217.7622,81.9999 220.0002,84.2389 220.0002,86.9999 C220.0002,89.7619 217.7622,91.9999 215.0002,91.9999 C212.2382,91.9999 210.0002,89.7619 210.0002,86.9999 C210.0002,84.2389 212.2382,81.9999 215.0002,81.9999" id="Fill-14"></path>
                        <path d="M173.0002,81.9999 C175.7622,81.9999 178.0002,84.2389 178.0002,86.9999 C178.0002,89.7619 175.7622,91.9999 173.0002,91.9999 C170.2382,91.9999 168.0002,89.7619 168.0002,86.9999 C168.0002,84.2389 170.2382,81.9999 173.0002,81.9999" id="Fill-16"></path>
                        <path d="M257.0002,81.9999 C259.7622,81.9999 262.0002,84.2389 262.0002,86.9999 C262.0002,89.7619 259.7622,91.9999 257.0002,91.9999 C254.2382,91.9999 252.0002,89.7619 252.0002,86.9999 C252.0002,84.2389 254.2382,81.9999 257.0002,81.9999" id="Fill-18"></path>
                        <path d="M299.0002,81.9999 C301.7622,81.9999 304.0002,84.2389 304.0002,86.9999 C304.0002,89.7619 301.7622,91.9999 299.0002,91.9999 C296.2382,91.9999 294.0002,89.7619 294.0002,86.9999 C294.0002,84.2389 296.2382,81.9999 299.0002,81.9999" id="Fill-20"></path>
                        <path d="M341.0002,81.9999 C343.7622,81.9999 346.0002,84.2389 346.0002,86.9999 C346.0002,89.7619 343.7622,91.9999 341.0002,91.9999 C338.2382,91.9999 336.0002,89.7619 336.0002,86.9999 C336.0002,84.2389 338.2382,81.9999 341.0002,81.9999" id="Fill-22"></path>
                        <path d="M215.0002,122.9999 C217.7622,122.9999 220.0002,125.2389 220.0002,127.9999 C220.0002,130.7619 217.7622,132.9999 215.0002,132.9999 C212.2382,132.9999 210.0002,130.7619 210.0002,127.9999 C210.0002,125.2389 212.2382,122.9999 215.0002,122.9999" id="Fill-24"></path>
                        <path d="M173.0002,122.9999 C175.7622,122.9999 178.0002,125.2389 178.0002,127.9999 C178.0002,130.7619 175.7622,132.9999 173.0002,132.9999 C170.2382,132.9999 168.0002,130.7619 168.0002,127.9999 C168.0002,125.2389 170.2382,122.9999 173.0002,122.9999" id="Fill-26"></path>
                        <path d="M131.0002,122.9999 C133.7622,122.9999 136.0002,125.2389 136.0002,127.9999 C136.0002,130.7619 133.7622,132.9999 131.0002,132.9999 C128.2382,132.9999 126.0002,130.7619 126.0002,127.9999 C126.0002,125.2389 128.2382,122.9999 131.0002,122.9999" id="Fill-28"></path>
                        <path d="M257.0002,122.9999 C259.7622,122.9999 262.0002,125.2389 262.0002,127.9999 C262.0002,130.7619 259.7622,132.9999 257.0002,132.9999 C254.2382,132.9999 252.0002,130.7619 252.0002,127.9999 C252.0002,125.2389 254.2382,122.9999 257.0002,122.9999" id="Fill-30"></path>
                        <path d="M299.0002,122.9999 C301.7622,122.9999 304.0002,125.2389 304.0002,127.9999 C304.0002,130.7619 301.7622,132.9999 299.0002,132.9999 C296.2382,132.9999 294.0002,130.7619 294.0002,127.9999 C294.0002,125.2389 296.2382,122.9999 299.0002,122.9999" id="Fill-32"></path>
                        <path d="M341.0002,122.9999 C343.7622,122.9999 346.0002,125.2389 346.0002,127.9999 C346.0002,130.7619 343.7622,132.9999 341.0002,132.9999 C338.2382,132.9999 336.0002,130.7619 336.0002,127.9999 C336.0002,125.2389 338.2382,122.9999 341.0002,122.9999" id="Fill-34"></path>
                        <path d="M215.0002,163.9999 C217.7622,163.9999 220.0002,166.2389 220.0002,168.9999 C220.0002,171.7619 217.7622,173.9999 215.0002,173.9999 C212.2382,173.9999 210.0002,171.7619 210.0002,168.9999 C210.0002,166.2389 212.2382,163.9999 215.0002,163.9999" id="Fill-36"></path>
                        <path d="M173.0002,163.9999 C175.7622,163.9999 178.0002,166.2389 178.0002,168.9999 C178.0002,171.7619 175.7622,173.9999 173.0002,173.9999 C170.2382,173.9999 168.0002,171.7619 168.0002,168.9999 C168.0002,166.2389 170.2382,163.9999 173.0002,163.9999" id="Fill-38"></path>
                        <path d="M131.0002,163.9999 C133.7622,163.9999 136.0002,166.2389 136.0002,168.9999 C136.0002,171.7619 133.7622,173.9999 131.0002,173.9999 C128.2382,173.9999 126.0002,171.7619 126.0002,168.9999 C126.0002,166.2389 128.2382,163.9999 131.0002,163.9999" id="Fill-40"></path>
                        <path d="M257.0002,163.9999 C259.7622,163.9999 262.0002,166.2389 262.0002,168.9999 C262.0002,171.7619 259.7622,173.9999 257.0002,173.9999 C254.2382,173.9999 252.0002,171.7619 252.0002,168.9999 C252.0002,166.2389 254.2382,163.9999 257.0002,163.9999" id="Fill-42"></path>
                        <path d="M299.0002,163.9999 C301.7622,163.9999 304.0002,166.2389 304.0002,168.9999 C304.0002,171.7619 301.7622,173.9999 299.0002,173.9999 C296.2382,173.9999 294.0002,171.7619 294.0002,168.9999 C294.0002,166.2389 296.2382,163.9999 299.0002,163.9999" id="Fill-44"></path>
                        <path d="M341.0002,163.9999 C343.7622,163.9999 346.0002,166.2389 346.0002,168.9999 C346.0002,171.7619 343.7622,173.9999 341.0002,173.9999 C338.2382,173.9999 336.0002,171.7619 336.0002,168.9999 C336.0002,166.2389 338.2382,163.9999 341.0002,163.9999" id="Fill-46"></path>
                        <path d="M215.0002,204.9999 C217.7622,204.9999 220.0002,207.2389 220.0002,209.9999 C220.0002,212.7619 217.7622,214.9999 215.0002,214.9999 C212.2382,214.9999 210.0002,212.7619 210.0002,209.9999 C210.0002,207.2389 212.2382,204.9999 215.0002,204.9999" id="Fill-48"></path>
                        <path d="M173.0002,204.9999 C175.7622,204.9999 178.0002,207.2389 178.0002,209.9999 C178.0002,212.7619 175.7622,214.9999 173.0002,214.9999 C170.2382,214.9999 168.0002,212.7619 168.0002,209.9999 C168.0002,207.2389 170.2382,204.9999 173.0002,204.9999" id="Fill-50"></path>
                        <path d="M131.0002,204.9999 C133.7622,204.9999 136.0002,207.2389 136.0002,209.9999 C136.0002,212.7619 133.7622,214.9999 131.0002,214.9999 C128.2382,214.9999 126.0002,212.7619 126.0002,209.9999 C126.0002,207.2389 128.2382,204.9999 131.0002,204.9999" id="Fill-52"></path>
                        <path d="M257.0002,204.9999 C259.7622,204.9999 262.0002,207.2389 262.0002,209.9999 C262.0002,212.7619 259.7622,214.9999 257.0002,214.9999 C254.2382,214.9999 252.0002,212.7619 252.0002,209.9999 C252.0002,207.2389 254.2382,204.9999 257.0002,204.9999" id="Fill-54"></path>
                        <path d="M299.0002,204.9999 C301.7622,204.9999 304.0002,207.2389 304.0002,209.9999 C304.0002,212.7619 301.7622,214.9999 299.0002,214.9999 C296.2382,214.9999 294.0002,212.7619 294.0002,209.9999 C294.0002,207.2389 296.2382,204.9999 299.0002,204.9999" id="Fill-56"></path>
                        <path d="M341.0002,204.9999 C343.7622,204.9999 346.0002,207.2389 346.0002,209.9999 C346.0002,212.7619 343.7622,214.9999 341.0002,214.9999 C338.2382,214.9999 336.0002,212.7619 336.0002,209.9999 C336.0002,207.2389 338.2382,204.9999 341.0002,204.9999" id="Fill-58"></path>
                        <path d="M215.0002,245.9999 C217.7622,245.9999 220.0002,248.2389 220.0002,250.9999 C220.0002,253.7619 217.7622,255.9999 215.0002,255.9999 C212.2382,255.9999 210.0002,253.7619 210.0002,250.9999 C210.0002,248.2389 212.2382,245.9999 215.0002,245.9999" id="Fill-60"></path>
                        <path d="M173.0002,245.9999 C175.7622,245.9999 178.0002,248.2389 178.0002,250.9999 C178.0002,253.7619 175.7622,255.9999 173.0002,255.9999 C170.2382,255.9999 168.0002,253.7619 168.0002,250.9999 C168.0002,248.2389 170.2382,245.9999 173.0002,245.9999" id="Fill-62"></path>
                        <path d="M257.0002,245.9999 C259.7622,245.9999 262.0002,248.2389 262.0002,250.9999 C262.0002,253.7619 259.7622,255.9999 257.0002,255.9999 C254.2382,255.9999 252.0002,253.7619 252.0002,250.9999 C252.0002,248.2389 254.2382,245.9999 257.0002,245.9999" id="Fill-64"></path>
                        <path d="M299.0002,245.9999 C301.7622,245.9999 304.0002,248.2389 304.0002,250.9999 C304.0002,253.7619 301.7622,255.9999 299.0002,255.9999 C296.2382,255.9999 294.0002,253.7619 294.0002,250.9999 C294.0002,248.2389 296.2382,245.9999 299.0002,245.9999" id="Fill-66"></path>
                        <path d="M341.0002,245.9999 C343.7622,245.9999 346.0002,248.2389 346.0002,250.9999 C346.0002,253.7619 343.7622,255.9999 341.0002,255.9999 C338.2382,255.9999 336.0002,253.7619 336.0002,250.9999 C336.0002,248.2389 338.2382,245.9999 341.0002,245.9999" id="Fill-68"></path>
                        <path d="M383.0002,122.9999 C385.7622,122.9999 388.0002,125.2389 388.0002,127.9999 C388.0002,130.7619 385.7622,132.9999 383.0002,132.9999 C380.2382,132.9999 378.0002,130.7619 378.0002,127.9999 C378.0002,125.2389 380.2382,122.9999 383.0002,122.9999" id="Fill-70"></path>
                        <path d="M383.0002,163.9999 C385.7622,163.9999 388.0002,166.2389 388.0002,168.9999 C388.0002,171.7619 385.7622,173.9999 383.0002,173.9999 C380.2382,173.9999 378.0002,171.7619 378.0002,168.9999 C378.0002,166.2389 380.2382,163.9999 383.0002,163.9999" id="Fill-72"></path>
                        <path d="M383.0002,204.9999 C385.7622,204.9999 388.0002,207.2389 388.0002,209.9999 C388.0002,212.7619 385.7622,214.9999 383.0002,214.9999 C380.2382,214.9999 378.0002,212.7619 378.0002,209.9999 C378.0002,207.2389 380.2382,204.9999 383.0002,204.9999" id="Fill-74"></path>
                        <path d="M257.0002,-0.0001 C259.7622,-0.0001 262.0002,2.2389 262.0002,4.9999 C262.0002,7.7619 259.7622,9.9999 257.0002,9.9999 C254.2382,9.9999 252.0002,7.7619 252.0002,4.9999 C252.0002,2.2389 254.2382,-0.0001 257.0002,-0.0001" id="Fill-76"></path>
                        <path d="M131.0002,-0.0001 C133.7622,-0.0001 136.0002,2.2389 136.0002,4.9999 C136.0002,7.7619 133.7622,9.9999 131.0002,9.9999 C128.2382,9.9999 126.0002,7.7619 126.0002,4.9999 C126.0002,2.2389 128.2382,-0.0001 131.0002,-0.0001" id="Fill-78"></path>
                        <path d="M131.0002,40.9999 C133.7622,40.9999 136.0002,43.2389 136.0002,45.9999 C136.0002,48.7619 133.7622,50.9999 131.0002,50.9999 C128.2382,50.9999 126.0002,48.7619 126.0002,45.9999 C126.0002,43.2389 128.2382,40.9999 131.0002,40.9999" id="Fill-80"></path>
                        <path d="M131.0002,81.9999 C133.7622,81.9999 136.0002,84.2389 136.0002,86.9999 C136.0002,89.7619 133.7622,91.9999 131.0002,91.9999 C128.2382,91.9999 126.0002,89.7619 126.0002,86.9999 C126.0002,84.2389 128.2382,81.9999 131.0002,81.9999" id="Fill-82"></path>
                        <path d="M89.0002,-0.0001 C91.7622,-0.0001 94.0002,2.2389 94.0002,4.9999 C94.0002,7.7619 91.7622,9.9999 89.0002,9.9999 C86.2382,9.9999 84.0002,7.7619 84.0002,4.9999 C84.0002,2.2389 86.2382,-0.0001 89.0002,-0.0001" id="Fill-84"></path>
                        <path d="M89.0002,40.9999 C91.7622,40.9999 94.0002,43.2389 94.0002,45.9999 C94.0002,48.7619 91.7622,50.9999 89.0002,50.9999 C86.2382,50.9999 84.0002,48.7619 84.0002,45.9999 C84.0002,43.2389 86.2382,40.9999 89.0002,40.9999" id="Fill-86"></path>
                        <path d="M89.0002,81.9999 C91.7622,81.9999 94.0002,84.2389 94.0002,86.9999 C94.0002,89.7619 91.7622,91.9999 89.0002,91.9999 C86.2382,91.9999 84.0002,89.7619 84.0002,86.9999 C84.0002,84.2389 86.2382,81.9999 89.0002,81.9999" id="Fill-88"></path>
                        <path d="M47.0002,-0.0001 C49.7622,-0.0001 52.0002,2.2389 52.0002,4.9999 C52.0002,7.7619 49.7622,9.9999 47.0002,9.9999 C44.2382,9.9999 42.0002,7.7619 42.0002,4.9999 C42.0002,2.2389 44.2382,-0.0001 47.0002,-0.0001" id="Fill-90"></path>
                        <path d="M47.0002,40.9999 C49.7622,40.9999 52.0002,43.2389 52.0002,45.9999 C52.0002,48.7619 49.7622,50.9999 47.0002,50.9999 C44.2382,50.9999 42.0002,48.7619 42.0002,45.9999 C42.0002,43.2389 44.2382,40.9999 47.0002,40.9999" id="Fill-92"></path>
                        <path d="M47.0002,81.9999 C49.7622,81.9999 52.0002,84.2389 52.0002,86.9999 C52.0002,89.7619 49.7622,91.9999 47.0002,91.9999 C44.2382,91.9999 42.0002,89.7619 42.0002,86.9999 C42.0002,84.2389 44.2382,81.9999 47.0002,81.9999" id="Fill-94"></path>
                        <path d="M5.0002,-0.0001 C7.7622,-0.0001 10.0002,2.2389 10.0002,4.9999 C10.0002,7.7619 7.7622,9.9999 5.0002,9.9999 C2.2382,9.9999 0.0002,7.7619 0.0002,4.9999 C0.0002,2.2389 2.2382,-0.0001 5.0002,-0.0001" id="Fill-96"></path>
                        <path d="M5.0002,40.9999 C7.7622,40.9999 10.0002,43.2389 10.0002,45.9999 C10.0002,48.7619 7.7622,50.9999 5.0002,50.9999 C2.2382,50.9999 0.0002,48.7619 0.0002,45.9999 C0.0002,43.2389 2.2382,40.9999 5.0002,40.9999" id="Fill-98"></path>
                        <path d="M5.0002,81.9999 C7.7622,81.9999 10.0002,84.2389 10.0002,86.9999 C10.0002,89.7619 7.7622,91.9999 5.0002,91.9999 C2.2382,91.9999 0.0002,89.7619 0.0002,86.9999 C0.0002,84.2389 2.2382,81.9999 5.0002,81.9999" id="Fill-100"></path>
                        <path d="M89.0002,122.9999 C91.7622,122.9999 94.0002,125.2389 94.0002,127.9999 C94.0002,130.7619 91.7622,132.9999 89.0002,132.9999 C86.2382,132.9999 84.0002,130.7619 84.0002,127.9999 C84.0002,125.2389 86.2382,122.9999 89.0002,122.9999" id="Fill-102"></path>
                    </g>
                    <g id="Group-189" transform="translate(295.000000, 583.000000)">
                        <path d="M215.0002,255.9999 C212.2382,255.9999 210.0002,253.7619 210.0002,250.9999 C210.0002,248.2389 212.2382,245.9999 215.0002,245.9999 C217.7622,245.9999 220.0002,248.2389 220.0002,250.9999 C220.0002,253.7619 217.7622,255.9999 215.0002,255.9999" id="Fill-107"></path>
                        <path d="M173.0002,255.9999 C170.2382,255.9999 168.0002,253.7619 168.0002,250.9999 C168.0002,248.2389 170.2382,245.9999 173.0002,245.9999 C175.7622,245.9999 178.0002,248.2389 178.0002,250.9999 C178.0002,253.7619 175.7622,255.9999 173.0002,255.9999" id="Fill-109"></path>
                        <path d="M173.0002,214.9999 C170.2382,214.9999 168.0002,212.7619 168.0002,209.9999 C168.0002,207.2389 170.2382,204.9999 173.0002,204.9999 C175.7622,204.9999 178.0002,207.2389 178.0002,209.9999 C178.0002,212.7619 175.7622,214.9999 173.0002,214.9999" id="Fill-111"></path>
                        <path d="M215.0002,214.9999 C212.2382,214.9999 210.0002,212.7619 210.0002,209.9999 C210.0002,207.2389 212.2382,204.9999 215.0002,204.9999 C217.7622,204.9999 220.0002,207.2389 220.0002,209.9999 C220.0002,212.7619 217.7622,214.9999 215.0002,214.9999" id="Fill-113"></path>
                        <path d="M131.0002,214.9999 C128.2382,214.9999 126.0002,212.7619 126.0002,209.9999 C126.0002,207.2389 128.2382,204.9999 131.0002,204.9999 C133.7622,204.9999 136.0002,207.2389 136.0002,209.9999 C136.0002,212.7619 133.7622,214.9999 131.0002,214.9999" id="Fill-117"></path>
                        <path d="M89.0002,214.9999 C86.2382,214.9999 84.0002,212.7619 84.0002,209.9999 C84.0002,207.2389 86.2382,204.9999 89.0002,204.9999 C91.7622,204.9999 94.0002,207.2389 94.0002,209.9999 C94.0002,212.7619 91.7622,214.9999 89.0002,214.9999" id="Fill-119"></path>
                        <path d="M173.0002,173.9999 C170.2382,173.9999 168.0002,171.7619 168.0002,168.9999 C168.0002,166.2389 170.2382,163.9999 173.0002,163.9999 C175.7622,163.9999 178.0002,166.2389 178.0002,168.9999 C178.0002,171.7619 175.7622,173.9999 173.0002,173.9999" id="Fill-121"></path>
                        <path d="M215.0002,173.9999 C212.2382,173.9999 210.0002,171.7619 210.0002,168.9999 C210.0002,166.2389 212.2382,163.9999 215.0002,163.9999 C217.7622,163.9999 220.0002,166.2389 220.0002,168.9999 C220.0002,171.7619 217.7622,173.9999 215.0002,173.9999" id="Fill-123"></path>
                        <path d="M131.0002,173.9999 C128.2382,173.9999 126.0002,171.7619 126.0002,168.9999 C126.0002,166.2389 128.2382,163.9999 131.0002,163.9999 C133.7622,163.9999 136.0002,166.2389 136.0002,168.9999 C136.0002,171.7619 133.7622,173.9999 131.0002,173.9999" id="Fill-127"></path>
                        <path d="M89.0002,173.9999 C86.2382,173.9999 84.0002,171.7619 84.0002,168.9999 C84.0002,166.2389 86.2382,163.9999 89.0002,163.9999 C91.7622,163.9999 94.0002,166.2389 94.0002,168.9999 C94.0002,171.7619 91.7622,173.9999 89.0002,173.9999" id="Fill-129"></path>
                        <path d="M47.0002,173.9999 C44.2382,173.9999 42.0002,171.7619 42.0002,168.9999 C42.0002,166.2389 44.2382,163.9999 47.0002,163.9999 C49.7622,163.9999 52.0002,166.2389 52.0002,168.9999 C52.0002,171.7619 49.7622,173.9999 47.0002,173.9999" id="Fill-131"></path>
                        <path d="M173.0002,132.9999 C170.2382,132.9999 168.0002,130.7619 168.0002,127.9999 C168.0002,125.2389 170.2382,122.9999 173.0002,122.9999 C175.7622,122.9999 178.0002,125.2389 178.0002,127.9999 C178.0002,130.7619 175.7622,132.9999 173.0002,132.9999" id="Fill-133"></path>
                        <path d="M215.0002,132.9999 C212.2382,132.9999 210.0002,130.7619 210.0002,127.9999 C210.0002,125.2389 212.2382,122.9999 215.0002,122.9999 C217.7622,122.9999 220.0002,125.2389 220.0002,127.9999 C220.0002,130.7619 217.7622,132.9999 215.0002,132.9999" id="Fill-135"></path>
                        <path d="M131.0002,132.9999 C128.2382,132.9999 126.0002,130.7619 126.0002,127.9999 C126.0002,125.2389 128.2382,122.9999 131.0002,122.9999 C133.7622,122.9999 136.0002,125.2389 136.0002,127.9999 C136.0002,130.7619 133.7622,132.9999 131.0002,132.9999" id="Fill-139"></path>
                        <path d="M89.0002,132.9999 C86.2382,132.9999 84.0002,130.7619 84.0002,127.9999 C84.0002,125.2389 86.2382,122.9999 89.0002,122.9999 C91.7622,122.9999 94.0002,125.2389 94.0002,127.9999 C94.0002,130.7619 91.7622,132.9999 89.0002,132.9999" id="Fill-141"></path>
                        <path d="M47.0002,132.9999 C44.2382,132.9999 42.0002,130.7619 42.0002,127.9999 C42.0002,125.2389 44.2382,122.9999 47.0002,122.9999 C49.7622,122.9999 52.0002,125.2389 52.0002,127.9999 C52.0002,130.7619 49.7622,132.9999 47.0002,132.9999" id="Fill-143"></path>
                        <path d="M173.0002,91.9999 C170.2382,91.9999 168.0002,89.7619 168.0002,86.9999 C168.0002,84.2389 170.2382,81.9999 173.0002,81.9999 C175.7622,81.9999 178.0002,84.2389 178.0002,86.9999 C178.0002,89.7619 175.7622,91.9999 173.0002,91.9999" id="Fill-145"></path>
                        <path d="M215.0002,91.9999 C212.2382,91.9999 210.0002,89.7619 210.0002,86.9999 C210.0002,84.2389 212.2382,81.9999 215.0002,81.9999 C217.7622,81.9999 220.0002,84.2389 220.0002,86.9999 C220.0002,89.7619 217.7622,91.9999 215.0002,91.9999" id="Fill-147"></path>
                        <path d="M131.0002,91.9999 C128.2382,91.9999 126.0002,89.7619 126.0002,86.9999 C126.0002,84.2389 128.2382,81.9999 131.0002,81.9999 C133.7622,81.9999 136.0002,84.2389 136.0002,86.9999 C136.0002,89.7619 133.7622,91.9999 131.0002,91.9999" id="Fill-151"></path>
                        <path d="M89.0002,91.9999 C86.2382,91.9999 84.0002,89.7619 84.0002,86.9999 C84.0002,84.2389 86.2382,81.9999 89.0002,81.9999 C91.7622,81.9999 94.0002,84.2389 94.0002,86.9999 C94.0002,89.7619 91.7622,91.9999 89.0002,91.9999" id="Fill-153"></path>
                        <path d="M47.0002,91.9999 C44.2382,91.9999 42.0002,89.7619 42.0002,86.9999 C42.0002,84.2389 44.2382,81.9999 47.0002,81.9999 C49.7622,81.9999 52.0002,84.2389 52.0002,86.9999 C52.0002,89.7619 49.7622,91.9999 47.0002,91.9999" id="Fill-155"></path>
                        <path d="M173.0002,50.9999 C170.2382,50.9999 168.0002,48.7619 168.0002,45.9999 C168.0002,43.2389 170.2382,40.9999 173.0002,40.9999 C175.7622,40.9999 178.0002,43.2389 178.0002,45.9999 C178.0002,48.7619 175.7622,50.9999 173.0002,50.9999" id="Fill-157"></path>
                        <path d="M215.0002,50.9999 C212.2382,50.9999 210.0002,48.7619 210.0002,45.9999 C210.0002,43.2389 212.2382,40.9999 215.0002,40.9999 C217.7622,40.9999 220.0002,43.2389 220.0002,45.9999 C220.0002,48.7619 217.7622,50.9999 215.0002,50.9999" id="Fill-159"></path>
                        <path d="M131.0002,50.9999 C128.2382,50.9999 126.0002,48.7619 126.0002,45.9999 C126.0002,43.2389 128.2382,40.9999 131.0002,40.9999 C133.7622,40.9999 136.0002,43.2389 136.0002,45.9999 C136.0002,48.7619 133.7622,50.9999 131.0002,50.9999" id="Fill-163"></path>
                        <path d="M89.0002,50.9999 C86.2382,50.9999 84.0002,48.7619 84.0002,45.9999 C84.0002,43.2389 86.2382,40.9999 89.0002,40.9999 C91.7622,40.9999 94.0002,43.2389 94.0002,45.9999 C94.0002,48.7619 91.7622,50.9999 89.0002,50.9999" id="Fill-165"></path>
                        <path d="M47.0002,50.9999 C44.2382,50.9999 42.0002,48.7619 42.0002,45.9999 C42.0002,43.2389 44.2382,40.9999 47.0002,40.9999 C49.7622,40.9999 52.0002,43.2389 52.0002,45.9999 C52.0002,48.7619 49.7622,50.9999 47.0002,50.9999" id="Fill-167"></path>
                        <path d="M173.0002,9.9999 C170.2382,9.9999 168.0002,7.7619 168.0002,4.9999 C168.0002,2.2389 170.2382,-0.0001 173.0002,-0.0001 C175.7622,-0.0001 178.0002,2.2389 178.0002,4.9999 C178.0002,7.7619 175.7622,9.9999 173.0002,9.9999" id="Fill-169"></path>
                        <path d="M215.0002,9.9999 C212.2382,9.9999 210.0002,7.7619 210.0002,4.9999 C210.0002,2.2389 212.2382,-0.0001 215.0002,-0.0001 C217.7622,-0.0001 220.0002,2.2389 220.0002,4.9999 C220.0002,7.7619 217.7622,9.9999 215.0002,9.9999" id="Fill-171"></path>
                        <path d="M131.0002,9.9999 C128.2382,9.9999 126.0002,7.7619 126.0002,4.9999 C126.0002,2.2389 128.2382,-0.0001 131.0002,-0.0001 C133.7622,-0.0001 136.0002,2.2389 136.0002,4.9999 C136.0002,7.7619 133.7622,9.9999 131.0002,9.9999" id="Fill-175"></path>
                        <path d="M89.0002,9.9999 C86.2382,9.9999 84.0002,7.7619 84.0002,4.9999 C84.0002,2.2389 86.2382,-0.0001 89.0002,-0.0001 C91.7622,-0.0001 94.0002,2.2389 94.0002,4.9999 C94.0002,7.7619 91.7622,9.9999 89.0002,9.9999" id="Fill-177"></path>
                        <path d="M47.0002,9.9999 C44.2382,9.9999 42.0002,7.7619 42.0002,4.9999 C42.0002,2.2389 44.2382,-0.0001 47.0002,-0.0001 C49.7622,-0.0001 52.0002,2.2389 52.0002,4.9999 C52.0002,7.7619 49.7622,9.9999 47.0002,9.9999" id="Fill-179"></path>
                        <path d="M5.0002,132.9999 C2.2382,132.9999 0.0002,130.7619 0.0002,127.9999 C0.0002,125.2389 2.2382,122.9999 5.0002,122.9999 C7.7622,122.9999 10.0002,125.2389 10.0002,127.9999 C10.0002,130.7619 7.7622,132.9999 5.0002,132.9999" id="Fill-181"></path>
                        <path d="M5.0002,91.9999 C2.2382,91.9999 0.0002,89.7619 0.0002,86.9999 C0.0002,84.2389 2.2382,81.9999 5.0002,81.9999 C7.7622,81.9999 10.0002,84.2389 10.0002,86.9999 C10.0002,89.7619 7.7622,91.9999 5.0002,91.9999" id="Fill-183"></path>
                        <path d="M5.0002,50.9999 C2.2382,50.9999 0.0002,48.7619 0.0002,45.9999 C0.0002,43.2389 2.2382,40.9999 5.0002,40.9999 C7.7622,40.9999 10.0002,43.2389 10.0002,45.9999 C10.0002,48.7619 7.7622,50.9999 5.0002,50.9999" id="Fill-185"></path>
                        <path d="M131.0002,255.9999 C128.2382,255.9999 126.0002,253.7619 126.0002,250.9999 C126.0002,248.2389 128.2382,245.9999 131.0002,245.9999 C133.7622,245.9999 136.0002,248.2389 136.0002,250.9999 C136.0002,253.7619 133.7622,255.9999 131.0002,255.9999" id="Fill-187"></path>
                    </g>
                    <g id="Group-272" transform="translate(297.000000, 292.000000)">
                        <path d="M0.0002,256.9999 C0.0002,254.2389 2.2382,251.9999 5.0002,251.9999 C7.7622,251.9999 10.0002,254.2389 10.0002,256.9999 C10.0002,259.7619 7.7622,261.9999 5.0002,261.9999 C2.2382,261.9999 0.0002,259.7619 0.0002,256.9999" id="Fill-190"></path>
                        <path d="M0.0002,214.9999 C0.0002,212.2389 2.2382,209.9999 5.0002,209.9999 C7.7622,209.9999 10.0002,212.2389 10.0002,214.9999 C10.0002,217.7619 7.7622,219.9999 5.0002,219.9999 C2.2382,219.9999 0.0002,217.7619 0.0002,214.9999" id="Fill-192"></path>
                        <path d="M0.0002,172.9999 C0.0002,170.2389 2.2382,167.9999 5.0002,167.9999 C7.7622,167.9999 10.0002,170.2389 10.0002,172.9999 C10.0002,175.7619 7.7622,177.9999 5.0002,177.9999 C2.2382,177.9999 0.0002,175.7619 0.0002,172.9999" id="Fill-194"></path>
                        <path d="M41.0002,172.9999 C41.0002,170.2389 43.2382,167.9999 46.0002,167.9999 C48.7622,167.9999 51.0002,170.2389 51.0002,172.9999 C51.0002,175.7619 48.7622,177.9999 46.0002,177.9999 C43.2382,177.9999 41.0002,175.7619 41.0002,172.9999" id="Fill-196"></path>
                        <path d="M41.0002,214.9999 C41.0002,212.2389 43.2382,209.9999 46.0002,209.9999 C48.7622,209.9999 51.0002,212.2389 51.0002,214.9999 C51.0002,217.7619 48.7622,219.9999 46.0002,219.9999 C43.2382,219.9999 41.0002,217.7619 41.0002,214.9999" id="Fill-198"></path>
                        <path d="M41.0002,256.9999 C41.0002,254.2389 43.2382,251.9999 46.0002,251.9999 C48.7622,251.9999 51.0002,254.2389 51.0002,256.9999 C51.0002,259.7619 48.7622,261.9999 46.0002,261.9999 C43.2382,261.9999 41.0002,259.7619 41.0002,256.9999" id="Fill-200"></path>
                        <path d="M41.0002,130.9999 C41.0002,128.2389 43.2382,125.9999 46.0002,125.9999 C48.7622,125.9999 51.0002,128.2389 51.0002,130.9999 C51.0002,133.7619 48.7622,135.9999 46.0002,135.9999 C43.2382,135.9999 41.0002,133.7619 41.0002,130.9999" id="Fill-202"></path>
                        <path d="M41.0002,88.9999 C41.0002,86.2389 43.2382,83.9999 46.0002,83.9999 C48.7622,83.9999 51.0002,86.2389 51.0002,88.9999 C51.0002,91.7619 48.7622,93.9999 46.0002,93.9999 C43.2382,93.9999 41.0002,91.7619 41.0002,88.9999" id="Fill-204"></path>
                        <path d="M82.0002,172.9999 C82.0002,170.2389 84.2382,167.9999 87.0002,167.9999 C89.7622,167.9999 92.0002,170.2389 92.0002,172.9999 C92.0002,175.7619 89.7622,177.9999 87.0002,177.9999 C84.2382,177.9999 82.0002,175.7619 82.0002,172.9999" id="Fill-206"></path>
                        <path d="M82.0002,214.9999 C82.0002,212.2389 84.2382,209.9999 87.0002,209.9999 C89.7622,209.9999 92.0002,212.2389 92.0002,214.9999 C92.0002,217.7619 89.7622,219.9999 87.0002,219.9999 C84.2382,219.9999 82.0002,217.7619 82.0002,214.9999" id="Fill-208"></path>
                        <path d="M82.0002,256.9999 C82.0002,254.2389 84.2382,251.9999 87.0002,251.9999 C89.7622,251.9999 92.0002,254.2389 92.0002,256.9999 C92.0002,259.7619 89.7622,261.9999 87.0002,261.9999 C84.2382,261.9999 82.0002,259.7619 82.0002,256.9999" id="Fill-210"></path>
                        <path d="M82.0002,130.9999 C82.0002,128.2389 84.2382,125.9999 87.0002,125.9999 C89.7622,125.9999 92.0002,128.2389 92.0002,130.9999 C92.0002,133.7619 89.7622,135.9999 87.0002,135.9999 C84.2382,135.9999 82.0002,133.7619 82.0002,130.9999" id="Fill-212"></path>
                        <path d="M82.0002,88.9999 C82.0002,86.2389 84.2382,83.9999 87.0002,83.9999 C89.7622,83.9999 92.0002,86.2389 92.0002,88.9999 C92.0002,91.7619 89.7622,93.9999 87.0002,93.9999 C84.2382,93.9999 82.0002,91.7619 82.0002,88.9999" id="Fill-214"></path>
                        <path d="M82.0002,46.9999 C82.0002,44.2389 84.2382,41.9999 87.0002,41.9999 C89.7622,41.9999 92.0002,44.2389 92.0002,46.9999 C92.0002,49.7619 89.7622,51.9999 87.0002,51.9999 C84.2382,51.9999 82.0002,49.7619 82.0002,46.9999" id="Fill-216"></path>
                        <path d="M123.0002,172.9999 C123.0002,170.2389 125.2382,167.9999 128.0002,167.9999 C130.7622,167.9999 133.0002,170.2389 133.0002,172.9999 C133.0002,175.7619 130.7622,177.9999 128.0002,177.9999 C125.2382,177.9999 123.0002,175.7619 123.0002,172.9999" id="Fill-218"></path>
                        <path d="M123.0002,214.9999 C123.0002,212.2389 125.2382,209.9999 128.0002,209.9999 C130.7622,209.9999 133.0002,212.2389 133.0002,214.9999 C133.0002,217.7619 130.7622,219.9999 128.0002,219.9999 C125.2382,219.9999 123.0002,217.7619 123.0002,214.9999" id="Fill-220"></path>
                        <path d="M123.0002,256.9999 C123.0002,254.2389 125.2382,251.9999 128.0002,251.9999 C130.7622,251.9999 133.0002,254.2389 133.0002,256.9999 C133.0002,259.7619 130.7622,261.9999 128.0002,261.9999 C125.2382,261.9999 123.0002,259.7619 123.0002,256.9999" id="Fill-222"></path>
                        <path d="M123.0002,130.9999 C123.0002,128.2389 125.2382,125.9999 128.0002,125.9999 C130.7622,125.9999 133.0002,128.2389 133.0002,130.9999 C133.0002,133.7619 130.7622,135.9999 128.0002,135.9999 C125.2382,135.9999 123.0002,133.7619 123.0002,130.9999" id="Fill-224"></path>
                        <path d="M123.0002,88.9999 C123.0002,86.2389 125.2382,83.9999 128.0002,83.9999 C130.7622,83.9999 133.0002,86.2389 133.0002,88.9999 C133.0002,91.7619 130.7622,93.9999 128.0002,93.9999 C125.2382,93.9999 123.0002,91.7619 123.0002,88.9999" id="Fill-226"></path>
                        <path d="M123.0002,46.9999 C123.0002,44.2389 125.2382,41.9999 128.0002,41.9999 C130.7622,41.9999 133.0002,44.2389 133.0002,46.9999 C133.0002,49.7619 130.7622,51.9999 128.0002,51.9999 C125.2382,51.9999 123.0002,49.7619 123.0002,46.9999" id="Fill-228"></path>
                        <path d="M164.0002,172.9999 C164.0002,170.2389 166.2382,167.9999 169.0002,167.9999 C171.7622,167.9999 174.0002,170.2389 174.0002,172.9999 C174.0002,175.7619 171.7622,177.9999 169.0002,177.9999 C166.2382,177.9999 164.0002,175.7619 164.0002,172.9999" id="Fill-230"></path>
                        <path d="M164.0002,214.9999 C164.0002,212.2389 166.2382,209.9999 169.0002,209.9999 C171.7622,209.9999 174.0002,212.2389 174.0002,214.9999 C174.0002,217.7619 171.7622,219.9999 169.0002,219.9999 C166.2382,219.9999 164.0002,217.7619 164.0002,214.9999" id="Fill-232"></path>
                        <path d="M164.0002,256.9999 C164.0002,254.2389 166.2382,251.9999 169.0002,251.9999 C171.7622,251.9999 174.0002,254.2389 174.0002,256.9999 C174.0002,259.7619 171.7622,261.9999 169.0002,261.9999 C166.2382,261.9999 164.0002,259.7619 164.0002,256.9999" id="Fill-234"></path>
                        <path d="M164.0002,130.9999 C164.0002,128.2389 166.2382,125.9999 169.0002,125.9999 C171.7622,125.9999 174.0002,128.2389 174.0002,130.9999 C174.0002,133.7619 171.7622,135.9999 169.0002,135.9999 C166.2382,135.9999 164.0002,133.7619 164.0002,130.9999" id="Fill-236"></path>
                        <path d="M164.0002,88.9999 C164.0002,86.2389 166.2382,83.9999 169.0002,83.9999 C171.7622,83.9999 174.0002,86.2389 174.0002,88.9999 C174.0002,91.7619 171.7622,93.9999 169.0002,93.9999 C166.2382,93.9999 164.0002,91.7619 164.0002,88.9999" id="Fill-238"></path>
                        <path d="M164.0002,46.9999 C164.0002,44.2389 166.2382,41.9999 169.0002,41.9999 C171.7622,41.9999 174.0002,44.2389 174.0002,46.9999 C174.0002,49.7619 171.7622,51.9999 169.0002,51.9999 C166.2382,51.9999 164.0002,49.7619 164.0002,46.9999" id="Fill-240"></path>
                        <path d="M205.0002,172.9999 C205.0002,170.2389 207.2382,167.9999 210.0002,167.9999 C212.7622,167.9999 215.0002,170.2389 215.0002,172.9999 C215.0002,175.7619 212.7622,177.9999 210.0002,177.9999 C207.2382,177.9999 205.0002,175.7619 205.0002,172.9999" id="Fill-242"></path>
                        <path d="M205.0002,214.9999 C205.0002,212.2389 207.2382,209.9999 210.0002,209.9999 C212.7622,209.9999 215.0002,212.2389 215.0002,214.9999 C215.0002,217.7619 212.7622,219.9999 210.0002,219.9999 C207.2382,219.9999 205.0002,217.7619 205.0002,214.9999" id="Fill-244"></path>
                        <path d="M205.0002,256.9999 C205.0002,254.2389 207.2382,251.9999 210.0002,251.9999 C212.7622,251.9999 215.0002,254.2389 215.0002,256.9999 C215.0002,259.7619 212.7622,261.9999 210.0002,261.9999 C207.2382,261.9999 205.0002,259.7619 205.0002,256.9999" id="Fill-246"></path>
                        <path d="M205.0002,130.9999 C205.0002,128.2389 207.2382,125.9999 210.0002,125.9999 C212.7622,125.9999 215.0002,128.2389 215.0002,130.9999 C215.0002,133.7619 212.7622,135.9999 210.0002,135.9999 C207.2382,135.9999 205.0002,133.7619 205.0002,130.9999" id="Fill-248"></path>
                        <path d="M205.0002,88.9999 C205.0002,86.2389 207.2382,83.9999 210.0002,83.9999 C212.7622,83.9999 215.0002,86.2389 215.0002,88.9999 C215.0002,91.7619 212.7622,93.9999 210.0002,93.9999 C207.2382,93.9999 205.0002,91.7619 205.0002,88.9999" id="Fill-250"></path>
                        <path d="M205.0002,46.9999 C205.0002,44.2389 207.2382,41.9999 210.0002,41.9999 C212.7622,41.9999 215.0002,44.2389 215.0002,46.9999 C215.0002,49.7619 212.7622,51.9999 210.0002,51.9999 C207.2382,51.9999 205.0002,49.7619 205.0002,46.9999" id="Fill-252"></path>
                        <path d="M123.0002,4.9999 C123.0002,2.2389 125.2382,-0.0001 128.0002,-0.0001 C130.7622,-0.0001 133.0002,2.2389 133.0002,4.9999 C133.0002,7.7619 130.7622,9.9999 128.0002,9.9999 C125.2382,9.9999 123.0002,7.7619 123.0002,4.9999" id="Fill-266"></path>
                        <path d="M164.0002,4.9999 C164.0002,2.2389 166.2382,-0.0001 169.0002,-0.0001 C171.7622,-0.0001 174.0002,2.2389 174.0002,4.9999 C174.0002,7.7619 171.7622,9.9999 169.0002,9.9999 C166.2382,9.9999 164.0002,7.7619 164.0002,4.9999" id="Fill-268"></path>
                        <path d="M205.0002,4.9999 C205.0002,2.2389 207.2382,-0.0001 210.0002,-0.0001 C212.7622,-0.0001 215.0002,2.2389 215.0002,4.9999 C215.0002,7.7619 212.7622,9.9999 210.0002,9.9999 C207.2382,9.9999 205.0002,7.7619 205.0002,4.9999" id="Fill-270"></path>
                    </g>
                    <g id="Group-528" transform="translate(462.000000, 0.000000)">
                        <path d="M0.0002,256.9999 C0.0002,254.2389 2.2382,251.9999 5.0002,251.9999 C7.7622,251.9999 10.0002,254.2389 10.0002,256.9999 C10.0002,259.7619 7.7622,261.9999 5.0002,261.9999 C2.2382,261.9999 0.0002,259.7619 0.0002,256.9999" id="Fill-439"></path>
                        <path d="M0.0002,214.9999 C0.0002,212.2389 2.2382,209.9999 5.0002,209.9999 C7.7622,209.9999 10.0002,212.2389 10.0002,214.9999 C10.0002,217.7619 7.7622,219.9999 5.0002,219.9999 C2.2382,219.9999 0.0002,217.7619 0.0002,214.9999" id="Fill-441"></path>
                        <path d="M41.0002,172.9999 C41.0002,170.2389 43.2382,167.9999 46.0002,167.9999 C48.7622,167.9999 51.0002,170.2389 51.0002,172.9999 C51.0002,175.7619 48.7622,177.9999 46.0002,177.9999 C43.2382,177.9999 41.0002,175.7619 41.0002,172.9999" id="Fill-443"></path>
                        <path d="M41.0002,214.9999 C41.0002,212.2389 43.2382,209.9999 46.0002,209.9999 C48.7622,209.9999 51.0002,212.2389 51.0002,214.9999 C51.0002,217.7619 48.7622,219.9999 46.0002,219.9999 C43.2382,219.9999 41.0002,217.7619 41.0002,214.9999" id="Fill-445"></path>
                        <path d="M41.0002,256.9999 C41.0002,254.2389 43.2382,251.9999 46.0002,251.9999 C48.7622,251.9999 51.0002,254.2389 51.0002,256.9999 C51.0002,259.7619 48.7622,261.9999 46.0002,261.9999 C43.2382,261.9999 41.0002,259.7619 41.0002,256.9999" id="Fill-447"></path>
                        <path d="M41.0002,130.9999 C41.0002,128.2389 43.2382,125.9999 46.0002,125.9999 C48.7622,125.9999 51.0002,128.2389 51.0002,130.9999 C51.0002,133.7619 48.7622,135.9999 46.0002,135.9999 C43.2382,135.9999 41.0002,133.7619 41.0002,130.9999" id="Fill-449"></path>
                    </g>
                </g>
            </g>
        </g>
    </g>
</svg>