<?xml version="1.0" encoding="UTF-8"?>
<svg width="19px" height="109px" viewBox="0 0 19 109" version="1.1" xmlns="http://www.w3.org/2000/svg" xmlns:xlink="http://www.w3.org/1999/xlink">
    <!-- Generator: sketchtool 61 (101010) - https://sketch.com -->
    <title>93EF8092-F5D2-44A5-8626-5F14E636005D</title>
    <desc>Created with sketchtool.</desc>
    <g id="Page-1" stroke="none" stroke-width="1" fill="none" fill-rule="evenodd">
        <g id="Home-crypto" transform="translate(-908.000000, -358.000000)" fill="#244797">
            <g id="Header" transform="translate(-3024.000000, -2802.000000)">
                <g id="Tabla-conversion-" transform="translate(3907.000000, 3065.000000)">
                    <g id="Transicion" transform="translate(25.480196, 95.060000)">
                        <polygon id="Fill-606" points="4.899804 108.78 12.739804 108.78 12.739804 4.26325641e-14 4.899804 4.26325641e-14"></polygon>
                        <path d="M8.82,24.499902 C13.69158,24.499902 17.64,28.449302 17.64,33.319902 C17.64,38.191482 13.69158,42.139902 8.82,42.139902 C3.94842,42.139902 4.97379915e-14,38.191482 4.97379915e-14,33.319902 C4.97379915e-14,28.449302 3.94842,24.499902 8.82,24.499902" id="Fill-608"></path>
                        <path d="M8.82,68.599902 C13.69158,68.599902 17.64,72.549302 17.64,77.419902 C17.64,82.291482 13.69158,86.239902 8.82,86.239902 C3.94842,86.239902 4.97379915e-14,82.291482 4.97379915e-14,77.419902 C4.97379915e-14,72.549302 3.94842,68.599902 8.82,68.599902" id="Fill-610"></path>
                    </g>
                </g>
            </g>
        </g>
    </g>
</svg>