<?xml version="1.0" encoding="UTF-8"?>
<svg width="491px" height="280px" viewBox="0 0 491 280" version="1.1" xmlns="http://www.w3.org/2000/svg" xmlns:xlink="http://www.w3.org/1999/xlink">
    <!-- Generator: sketchtool 61.2 (101010) - https://sketch.com -->
    <title>F2D0E1CF-F096-4D63-9EF1-8117633BCF0D</title>
    <desc>Created with sketchtool.</desc>
    <g id="Page-1" stroke="none" stroke-width="1" fill="none" fill-rule="evenodd">
        <g id="Enviar-solicitud-2" transform="translate(-489.000000, -184.000000)" fill-rule="nonzero">
            <g id="undraw_done_a34v" transform="translate(489.000000, 184.000000)">
                <path d="M186,264 C186,272.834595 145.034509,280 94.5,280 C43.9654907,280 3,272.834595 3,264 C3,261.79027 5.55686916,259.688649 10.1831776,257.777297 C23.6516355,252.203243 54.6632944,248.242162 91.1136449,248.012973 C92.2381542,248.004342 93.3669393,248 94.5,248 C145.034509,248 186,255.16541 186,264 Z" id="Path" fill="#4070F4"></path>
                <path d="M91,248 C82.6862867,261.658601 68.6277178,270.732683 52.8393664,272.630725 C37.051015,274.528766 21.2687774,269.042081 10,257.737645 C23.4800296,252.178821 54.5183326,248.228576 91,248 Z" id="Path" fill="#000000" opacity="0.1"></path>
                <ellipse id="Oval" fill="#4070F4" cx="48" cy="214" rx="48" ry="51"></ellipse>
                <path d="M148,21.2721188 C148,21.2721188 153.195887,19.785176 154.482638,18.2856343 C155.769389,16.7860927 161.899463,13.8298011 162.758999,15.4928931 C163.618535,17.1559852 172.957709,22.261042 167.056686,23.8083662 C161.155663,25.3556904 153.07747,26.3947652 151.252869,25.8563273 C149.428268,25.3178894 148,21.2721188 148,21.2721188 Z" id="Path" fill="#A8A8A8"></path>
                <path d="M167.000591,23.0370538 C161.09917,24.6559719 153.020448,25.7431109 151.195721,25.1797599 C149.806093,24.7507406 148.647168,22.1951511 148.1731,21 C148.063543,21.0342928 148,21.0534007 148,21.0534007 C148,21.0534007 149.428359,25.286328 151.253086,25.8496789 C153.077813,26.4130299 161.156544,25.3258865 167.057957,23.7069728 C168.761466,23.2396586 169.193466,22.4618816 168.927592,21.5504069 C168.831512,22.1692587 168.268536,22.689234 167.000591,23.0370538 Z" id="Path" fill="#000000" opacity="0.2"></path>
                <rect id="Rectangle" fill="#F2F2F2" x="147" y="0" width="344" height="199"></rect>
                <rect id="Rectangle" fill="#04147A" opacity="0.3" x="154" y="60" width="189" height="99"></rect>
                <rect id="Rectangle" fill="#3F3D56" x="358" y="56" width="76" height="4"></rect>
                <rect id="Rectangle" fill="#3F3D56" x="358" y="63" width="110" height="4"></rect>
                <rect id="Rectangle" fill="#3F3D56" x="358" y="82" width="76" height="4"></rect>
                <rect id="Rectangle" fill="#3F3D56" x="358" y="113" width="76" height="4"></rect>
                <rect id="Rectangle" fill="#3F3D56" x="358" y="90" width="110" height="4"></rect>
                <rect id="Rectangle" fill="#3F3D56" x="358" y="98" width="110" height="4"></rect>
                <rect id="Rectangle" fill="#3F3D56" x="358" y="105" width="110" height="4"></rect>
                <rect id="Rectangle" fill="#4070F4" x="358" y="132" width="40" height="11"></rect>
                <path d="M134,119.876862 C134,119.876862 140.875709,99.9666917 145.841501,106.213018 C150.807293,112.459344 138.201822,123 138.201822,123 L134,119.876862 Z" id="Path" fill="#DEAEA2"></path>
                <path d="M100.244593,100 L104.529155,101.588398 C104.529155,101.588398 106.575532,110.686904 105.784163,112.270149 C104.992794,113.853393 104.597112,112.665959 105.784163,115.832447 C106.971214,118.998936 110.532363,127.310972 110.928059,128.498406 C111.323754,129.68584 133.877697,120.977995 133.877697,116.624072 C133.877697,116.624072 138.625902,122.165425 141,123.352859 C141,123.352859 114.88489,142.351795 111.323741,144.726663 C107.762591,147.101532 105.784171,145.914098 102.618704,143.143419 C99.4532372,140.372741 86,117.415692 86,117.415692 L100.244593,100 Z" id="Path" fill="#0E2E82"></path>
                <path d="M112.348421,240.486288 C112.348421,240.486288 111.953827,244.746727 111.164636,245.134038 C110.375444,245.521349 104.456524,255.204164 111.164636,257.140726 C117.872747,259.077287 121.818702,258.302664 123.397082,259.077291 C124.975461,259.851918 152.597109,261.401164 152.991703,257.140726 C153.386296,252.880288 139.575479,252.105652 139.575479,252.105652 C139.575479,252.105652 126.948439,243.972104 124.975466,239.711649 C123.002492,235.451194 112.348421,240.486288 112.348421,240.486288 Z" id="Path" fill="#2F2E41"></path>
                <path d="M31.5548641,248 C31.5548641,248 21.9932411,264.382006 24.3836447,266.379824 C26.7740483,268.377642 50.0538218,275.658111 53.466922,275.969294 C57.8493336,276.368854 61.0365412,272.772804 57.4509337,270.774986 C53.8653262,268.777168 46.2957027,260.386391 46.2957027,257.589466 L46.2957027,250.39737 L31.5548641,248 Z" id="Path" fill="#2F2E41"></path>
                <path d="M22.6041945,142 C22.6041945,142 14.2999983,152.246198 27.3494575,168.797739 L49.0985845,196.383658 C49.0985845,196.383658 35.653675,217.664221 35.258229,228.69859 C34.8627829,239.73296 32.0947204,237.368451 31.3038453,242.09746 C30.5129703,246.826469 26.9540199,244.461969 29.722091,248.008728 C32.4901621,251.555487 42.7715673,254.708167 45.9350759,251.949575 C49.0985845,249.190982 49.0985845,245.644223 49.0985845,244.067885 C49.0985845,242.491548 54.6347267,233.4276 55.0301642,230.669016 C55.4256017,227.910432 70.0568322,205.447606 70.0568322,205.447606 C70.0568322,205.447606 74.8020994,192.048736 69.2659572,184.561126 C63.729815,177.073516 60.0715117,166.45397 60.0715117,166.45397 C60.0715117,166.45397 76.3838537,186.137464 87.8515756,190.866461 C87.8515756,190.866461 92.201401,191.654627 91.4105217,193.625053 C90.6196425,195.595478 91.4105217,196.777729 92.5968385,198.748163 C93.7831553,200.718597 102.087364,223.575489 104.855435,229.486761 C107.623507,235.398034 106.43719,238.944789 109.600703,240.91521 C112.764216,242.885631 127,241.309297 127,239.338872 C127,237.368446 125.022808,232.245349 123.836491,229.486761 C122.650175,226.728173 113.159649,194.80732 113.950528,189.290153 C114.741407,183.772985 113.555086,176.285362 107.623507,173.132686 C101.691927,169.980011 71.6385865,144.364513 70.0568322,144.364513 C68.4750779,144.364513 22.6041945,142 22.6041945,142 Z" id="Path" fill="#2F2E41"></path>
                <circle id="Oval" fill="#DEAEA2" cx="102.5" cy="63.5" r="16.5"></circle>
                <path d="M88.6956271,65 C88.6956271,65 83.5042001,74.1999958 77.1147746,75.4000129 C70.7253492,76.60003 93.8870456,95 93.8870456,95 C93.8870456,95 99.4777982,77.4000141 104.2699,76.6000127 C109.062001,75.8000114 88.6956271,65 88.6956271,65 Z" id="Path" fill="#DEAEA2"></path>
                <path d="M105,101.858559 C105,106.96555 89.6737229,121.50079 89.6737229,121.50079 L75.1334065,133.678978 C75.1334065,133.678978 74.7404219,138.000269 73.1684962,138.393113 C71.5965704,138.785956 69.6316643,138.785956 71.20359,141.143026 C72.7755158,143.500095 76.7053323,148.607074 73.1684962,149.392748 C72.1022269,149.554861 71.0277129,149.657156 69.9500006,149.699155 C69.0068103,149.754156 67.8986488,149.80523 66.652835,149.852369 C63.7448065,149.954513 60.105795,150.02129 56.164177,149.993785 C55.0441431,149.989854 53.9045037,149.976764 52.7452587,149.954513 C37.8866061,149.659895 20.6739951,147.950989 22.0808987,142.321544 C24.4387894,132.893269 22.8668637,129.750513 27.9756213,124.643534 C33.0843789,119.536556 41.3369881,101.858542 41.3369881,101.858542 C41.3369881,101.858542 57.8422148,73.9665712 71.5965662,73.9665712 L74.4535494,73.2162213 C77.1759651,72.4992899 80.0519199,73.6037138 81.5939923,75.9582935 C84.3527326,80.1578068 88.703065,86.4668938 91.2456444,88.5018239 C95.1754566,91.6445806 95.7885346,89.389655 95.7885346,89.389655 C95.7885346,89.389655 105,96.7515761 105,101.858559 Z" id="Path" fill="#0E2E82"></path>
                <path d="M69.5211197,162 C69.5211197,162 80.6453804,179.566632 73.7406667,182.689588 C66.835953,185.812545 63,164.342211 63,164.342211 L69.5211197,162 Z" id="Path" fill="#DEAEA2"></path>
                <path d="M91.2099354,61.4753742 C91.8496206,61.3948896 92.0519305,60.5901256 92.1596018,59.956289 C92.7361818,56.5620379 95.2731715,53.3433706 98.6819227,52.7954361 C99.9848094,52.6226152 101.309687,52.7290729 102.568001,53.1076937 C104.370624,53.6008695 106.062754,54.4312993 107.554238,55.5547391 C108.341434,56.1483825 109.099006,56.8374974 110.046018,57.1147955 C110.671452,57.2979349 113.327032,58.4750709 113.947518,58.6742448 C115.311719,59.1121485 116.440627,60.5358093 117.845617,60.2539189 C119.189782,59.9842361 119.70028,58.3658825 119.916322,57.0158948 C120.408504,53.940345 118.642908,49.351337 116.887476,46.7752077 C115.555344,44.820284 113.301082,43.6952024 111.047189,42.9632776 C108.406717,42.1641266 105.693622,41.626614 102.94731,41.3585469 C99.2399035,40.9219815 95.4000853,40.6903667 91.847159,41.8329623 C88.2942328,42.9755578 85.0591056,45.7706027 84.395838,49.433549 C84.2576711,50.1965764 84.2317858,50.978114 84.062463,51.734873 C83.649412,53.5809802 82.4243254,55.1327372 81.7097029,56.884891 C80.667133,59.4870818 80.777359,62.4075847 82.013127,64.9242922 C83.0027022,66.9084756 84.7235736,68.8152018 84.3521896,71 L87.4146361,68.5923225 C88.326563,68.075674 88.752546,66.9940287 88.4368468,65.9967509 L87.9916535,62.1734427 C87.9101377,61.4733816 87.8391459,60.7179396 88.1902924,60.1063333 C89.5514231,57.7356591 90.1433731,61.609555 91.2099354,61.4753742 Z" id="Path" fill="#2F2E41"></path>
                <path d="M63.0638271,135.446102 L66.8192253,150.849103 C63.0318866,150.982811 58.0207284,151.053594 52.7104393,150.951349 C51.3708732,146.987533 50.0911686,142.854632 49.1104655,138.985217 C45.5224598,124.828764 51.5024651,103.200851 54.691805,92.9767476 C57.8811449,82.7526438 65.8545141,80 65.8545141,80 C65.8545141,80 69.8411857,81.1797051 75.023855,84.7188162 C80.2065242,88.2579272 63.0638271,135.446102 63.0638271,135.446102 Z" id="Path" fill="#000000" opacity="0.1"></path>
                <path d="M66.1995155,134.690989 L70.1456903,150.699377 C69.1802358,150.754337 68.0459158,150.805374 66.7706943,150.852478 C63.794021,150.954547 60.0691097,151.021274 56.0344487,150.99379 C54.5823547,146.789541 53.1783812,142.353648 52.1204674,138.223984 C48.5001433,124.091997 54.5340167,102.501468 57.7520797,92.29503 C60.9701426,82.0885921 68.009658,93.2764193 68.009658,93.2764193 C68.009658,93.2764193 65.1938519,86.6029843 70.423203,90.1359788 C75.6525542,93.6689733 66.1995155,134.690989 66.1995155,134.690989 Z" id="Path" fill="#000000" opacity="0.1"></path>
                <path d="M66.8544863,79 C66.8544863,79 58.8811441,81.757572 55.6918072,92 C52.5024703,102.242421 46.5224583,123.909088 50.1104655,138.090908 C53.6984727,152.272728 61.2731446,170 61.2731446,170 C61.2731446,170 68.8478251,164.484847 71.6385132,165.666666 L64.063837,134.545455 C64.063837,134.545455 81.2065282,87.2727246 76.0238525,83.7272718 C70.8411768,80.181819 66.8544863,79 66.8544863,79 Z" id="Path" fill="#0E2E82"></path>
                <rect id="Rectangle" fill="#2A3F77" x="146" y="50" width="189" height="99"></rect>
                <ellipse id="Oval" fill="#FFFFFF" cx="240.5" cy="99" rx="24.5" ry="24"></ellipse>
                <path d="M241.432727,71.0070923 C225.41647,71.0070923 212.432727,83.9908346 212.432727,100.007092 C212.432727,116.02335 225.41647,129.007092 241.432727,129.007092 C257.448985,129.007092 270.432727,116.02335 270.432727,100.007092 C270.385904,84.0102696 257.42955,71.0539158 241.432727,71.0070923 Z M235.064801,116.007092 L220.432727,101.108081 L224.536845,96.9290956 L235.078528,107.663093 L257.328609,85.0070923 L261.432727,89.1860829 L235.064801,116.007092 L235.064801,116.007092 Z" id="Shape" fill="#00D171"></path>
            </g>
        </g>
    </g>
</svg>