<?xml version="1.0" encoding="utf-8"?>
<!-- Generator: Adobe Illustrator 16.0.0, SVG Export Plug-In . SVG Version: 6.00 Build 0)  -->
<!DOCTYPE svg PUBLIC "-//W3C//DTD SVG 1.1//EN" "http://www.w3.org/Graphics/SVG/1.1/DTD/svg11.dtd">
<svg version="1.1" id="Capa_1" xmlns="http://www.w3.org/2000/svg" xmlns:xlink="http://www.w3.org/1999/xlink" x="0px" y="0px"
	 width="250px" height="250px" viewBox="0 0 250 250" enable-background="new 0 0 250 250" xml:space="preserve">
<circle opacity="0.8" fill="#141937" enable-background="new    " cx="125" cy="125" r="125"/>
<path fill="#3DD4FF" d="M125,14.12C63.764,14.12,14.121,63.763,14.121,125c0,61.236,49.643,110.88,110.879,110.88
	S235.88,186.236,235.88,125C235.88,63.763,186.236,14.12,125,14.12z M173.324,93.059c1.814-0.918,4.027-0.191,4.944,1.622
	c0.002,0.004,0.004,0.008,0.006,0.012c0.916,1.823,0.188,4.043-1.631,4.969c-1.82,0.915-4.038,0.181-4.953-1.641
	c-0.001-0.001-0.002-0.002-0.002-0.002C170.772,96.196,171.505,93.978,173.324,93.059z M160.999,104.864
	c1.303,2.602,0.257,5.778-2.34,7.089c-2.598,1.312-5.766,0.266-7.072-2.339c-1.309-2.601-0.27-5.777,2.332-7.087
	C156.518,101.211,159.685,102.26,160.999,104.864z M155.063,125.906c-0.267,4.757-4.193,8.479-8.931,8.479
	c-0.179,0-0.348-0.012-0.517-0.019c-4.938-0.278-8.72-4.539-8.438-9.478c0.278-4.93,4.492-8.755,9.458-8.465
	c2.374,0.128,4.598,1.204,6.173,2.987C154.396,121.188,155.209,123.526,155.063,125.906z M154.278,68.512
	c0.87-1.335,2.656-1.711,3.991-0.842c0.007,0.004,0.012,0.008,0.017,0.012c1.338,0.88,1.712,2.676,0.838,4.018
	c-0.872,1.337-2.664,1.715-4.001,0.843c-0.004-0.003-0.007-0.005-0.011-0.007C153.775,71.652,153.402,69.854,154.278,68.512z
	 M144.643,82.167c1.345-2.067,4.109-2.652,6.175-1.309c0.007,0.005,0.014,0.009,0.02,0.013c2.067,1.364,2.645,4.142,1.291,6.216
	c-1.347,2.068-4.116,2.652-6.184,1.305c-0.005-0.004-0.009-0.005-0.014-0.009C143.86,87.021,143.285,84.238,144.643,82.167z
	 M140.412,99.551c0.007,0.005,0.014,0.009,0.021,0.014c4.134,2.713,5.292,8.295,2.584,12.44c-1.653,2.535-4.476,4.063-7.502,4.062
	c-1.738,0-3.438-0.506-4.903-1.474c-4.136-2.72-5.288-8.299-2.579-12.442C130.732,98.014,136.275,96.85,140.412,99.551z
	 M125.076,63.8c0.002,0.001,0.005,0.001,0.009,0.001c2.035,0.117,3.592,1.864,3.474,3.9c0,0.001,0,0.001-0.001,0.003v-0.002
	c-0.112,2.035-1.854,3.594-3.89,3.48c-0.001,0-0.002,0-0.004,0c-2.034-0.119-3.586-1.864-3.471-3.898
	C121.304,65.25,123.042,63.689,125.076,63.8z M125.218,83.896c2.911,0.17,5.135,2.665,4.97,5.575
	c-0.166,2.908-2.658,5.141-5.565,4.973c-2.908-0.17-5.128-2.665-4.958-5.573C119.829,85.957,122.314,83.732,125.218,83.896z
	 M110.37,99.097c1.248-0.627,2.625-0.956,4.023-0.96c3.407,0,6.476,1.895,8.012,4.939c2.226,4.426,0.442,9.841-3.97,12.065
	c-1.247,0.634-2.627,0.965-4.026,0.967v0.001c-3.393,0.01-6.497-1.905-8.009-4.942C104.182,106.74,105.959,101.329,110.37,99.097z
	 M112.831,125.997c-0.272,4.76-4.203,8.479-8.938,8.479c-0.176,0-0.346-0.006-0.52-0.012c-4.925-0.288-8.714-4.542-8.432-9.487
	c0.277-4.927,4.488-8.753,9.453-8.463C109.327,116.792,113.109,121.052,112.831,125.997z M99.429,80.722
	c2.208-1.111,4.897-0.222,6.009,1.985c0.001,0.001,0.001,0.002,0.002,0.004c1.114,2.212,0.224,4.917-1.981,6.027
	c-2.202,1.113-4.889,0.231-6.004-1.97c-0.003-0.005-0.004-0.009-0.006-0.015C96.332,84.542,97.219,81.843,99.429,80.722z
	 M91.757,67.652c1.43-0.72,3.172-0.144,3.892,1.286v0.001c0.721,1.431,0.146,3.176-1.282,3.901
	c-1.426,0.721-3.165,0.148-3.885-1.277c-0.002-0.004-0.004-0.008-0.006-0.012C89.756,70.121,90.329,68.378,91.757,67.652z
	 M64.257,125.744c-0.094,1.602-1.46,2.832-3.054,2.732c-1.595-0.089-2.815-1.453-2.728-3.047c0-0.005,0.001-0.009,0.001-0.014
	c0.089-1.598,1.456-2.82,3.054-2.734c1.598,0.092,2.818,1.462,2.727,3.06C64.257,125.742,64.257,125.743,64.257,125.744z
	 M71.811,94.549c1.11-1.7,3.389-2.18,5.09-1.069c0.005,0.003,0.009,0.006,0.014,0.009v0.001c1.704,1.115,2.177,3.41,1.061,5.117
	c-1.106,1.7-3.383,2.181-5.083,1.075c-0.007-0.005-0.014-0.01-0.021-0.015C71.168,98.546,70.693,96.256,71.811,94.549z
	 M76.678,157.832c-1.815,0.916-4.03,0.188-4.946-1.628c0-0.002-0.002-0.006-0.004-0.007c-0.912-1.822-0.184-4.051,1.634-4.969
	c1.812-0.919,4.024-0.194,4.942,1.618c0.004,0.006,0.007,0.012,0.01,0.019C79.229,154.688,78.498,156.91,76.678,157.832z
	 M77.812,130.032c-2.467-0.146-4.352-2.265-4.215-4.742c0.139-2.471,2.253-4.362,4.723-4.227c2.47,0.14,4.356,2.262,4.217,4.737
	C82.398,128.272,80.284,130.166,77.812,130.032z M89.234,104.479c1.596-2.435,4.86-3.12,7.29-1.516h0.002
	c2.431,1.594,3.11,4.869,1.515,7.307c-1.581,2.43-4.832,3.118-7.262,1.537c-0.01-0.006-0.021-0.012-0.03-0.019
	C88.314,110.194,87.637,106.922,89.234,104.479z M89.017,146.028c-1.31-2.605-0.268-5.782,2.33-7.095
	c2.598-1.315,5.766-0.264,7.075,2.338c1.306,2.604,0.263,5.781-2.334,7.095C93.493,149.68,90.322,148.627,89.017,146.028z
	 M95.728,182.373c-0.874,1.339-2.666,1.715-4.005,0.841c-0.001-0.001-0.003-0.002-0.004-0.003c-1.339-0.885-1.712-2.685-0.834-4.027
	l-0.001,0.001c0.87-1.337,2.66-1.716,3.997-0.845c0.006,0.004,0.012,0.007,0.017,0.011
	C96.237,179.233,96.607,181.033,95.728,182.373z M105.362,168.72c-1.35,2.068-4.121,2.65-6.189,1.3
	c-0.003-0.002-0.005-0.003-0.008-0.005c-2.066-1.366-2.641-4.146-1.284-6.219c1.345-2.065,4.11-2.649,6.175-1.305
	c0.006,0.004,0.013,0.009,0.02,0.012C106.144,163.859,106.721,166.643,105.362,168.72z M114.475,152.79L114.475,152.79
	c-1.744,0-3.44-0.507-4.906-1.471c-1.992-1.304-3.381-3.35-3.858-5.682c-0.49-2.333-0.03-4.766,1.277-6.759
	c1.653-2.534,4.475-4.061,7.5-4.06c1.744,0,3.446,0.514,4.908,1.473c1.995,1.303,3.385,3.351,3.86,5.687
	c0.492,2.347,0.035,4.745-1.28,6.754C120.325,151.269,117.502,152.796,114.475,152.79L114.475,152.79L114.475,152.79z
	 M128.432,183.604c-0.107,2.031-1.842,3.591-3.873,3.483c-0.006,0-0.011,0-0.016,0c-2.032-0.116-3.588-1.858-3.472-3.892
	c0-0.005,0.001-0.008,0.001-0.013v0.001c0.109-2.031,1.844-3.589,3.876-3.48c0.003,0,0.008,0,0.012,0
	c2.034,0.118,3.589,1.862,3.472,3.896C128.432,183.602,128.432,183.602,128.432,183.604z M124.401,166.987
	c-2.902-0.167-5.122-2.661-4.959-5.572c0.167-2.91,2.657-5.135,5.558-4.976c2.907,0.164,5.127,2.665,4.961,5.573
	C129.798,164.926,127.31,167.155,124.401,166.987z M139.635,151.786c-1.25,0.63-2.63,0.959-4.029,0.961
	c-3.39,0.008-6.491-1.908-8.003-4.942c-1.077-2.127-1.26-4.596-0.508-6.857c0.738-2.264,2.35-4.14,4.478-5.209
	c1.248-0.633,2.627-0.964,4.027-0.964c3.407,0,6.476,1.894,8.006,4.944C145.824,144.143,144.047,149.555,139.635,151.786z
	 M150.574,170.159c-2.197,1.114-4.882,0.235-5.995-1.962c-0.006-0.008-0.009-0.017-0.013-0.024c-1.112-2.21-0.229-4.904,1.978-6.023
	c2.205-1.114,4.896-0.23,6.01,1.974c0.002,0.004,0.003,0.005,0.003,0.009C153.673,166.344,152.78,169.05,150.574,170.159z
	 M158.246,183.229c-1.426,0.721-3.166,0.15-3.888-1.275c0-0.002-0.001-0.004-0.002-0.005c-0.723-1.434-0.147-3.181,1.284-3.905
	c1.421-0.72,3.156-0.152,3.876,1.268c0.003,0.007,0.007,0.013,0.01,0.019C160.249,180.76,159.676,182.505,158.246,183.229z
	 M160.769,146.404c-1.583,2.432-4.836,3.119-7.268,1.537c-0.006-0.003-0.012-0.008-0.019-0.012
	c-2.431-1.606-3.111-4.874-1.521-7.316c1.591-2.431,4.852-3.112,7.282-1.522c0.003,0.002,0.005,0.005,0.008,0.007
	C161.686,140.692,162.362,143.967,160.769,146.404z M167.469,125.084c0.14-2.48,2.252-4.372,4.723-4.229
	c2.465,0.137,4.359,2.259,4.221,4.739c-0.138,2.472-2.254,4.364-4.726,4.226c-0.001,0-0.003,0-0.004,0
	C169.21,129.681,167.33,127.558,167.469,125.084z M178.191,156.334c-1.11,1.703-3.391,2.183-5.094,1.072
	c-0.004-0.003-0.008-0.005-0.013-0.009c-1.701-1.124-2.174-3.41-1.06-5.117c1.112-1.703,3.395-2.183,5.099-1.069
	c0.001,0.002,0.005,0.003,0.007,0.004C178.83,152.341,179.305,154.626,178.191,156.334z M191.522,125.468
	c-0.088,1.599-1.452,2.823-3.051,2.738l0,0h-0.001c0,0,0,0,0.001,0c-1.601-0.095-2.822-1.468-2.73-3.068
	c0.087-1.598,1.452-2.822,3.049-2.735c0.005,0,0.009,0,0.014,0.001c1.593,0.09,2.811,1.454,2.72,3.047
	C191.523,125.456,191.522,125.463,191.522,125.468z"/>
<path opacity="0.4" fill="#FFFFFF" enable-background="new    " d="M46.596,46.598c-43.3,43.304-43.301,113.513,0,156.816
	c83.813-20.631,62.767-148.31,156.806-156.816C160.102,3.294,89.898,3.294,46.596,46.598z"/>
</svg>
