<?xml version="1.0" encoding="utf-8"?>
<!-- Generator: Adobe Illustrator 16.0.0, SVG Export Plug-In . SVG Version: 6.00 Build 0)  -->
<!DOCTYPE svg PUBLIC "-//W3C//DTD SVG 1.1//EN" "http://www.w3.org/Graphics/SVG/1.1/DTD/svg11.dtd">
<svg version="1.1" id="Capa_1" xmlns="http://www.w3.org/2000/svg" xmlns:xlink="http://www.w3.org/1999/xlink" x="0px" y="0px"
	 width="250px" height="250px" viewBox="0 0 250 250" enable-background="new 0 0 250 250" xml:space="preserve">
<ellipse opacity="0.8" fill="#141937" enable-background="new    " cx="125" cy="125.001" rx="125" ry="125.006"/>
<path fill="#8991B1" d="M191.336,182.033H58.874l-11.948,21.689c20.039,19.875,47.624,32.154,78.075,32.154
	c30.51,0,58.144-12.328,78.19-32.27L191.336,182.033z M125.001,14.117c-61.237,0-110.88,49.644-110.88,110.88
	c0,22.11,6.474,42.708,17.628,60.002L125.001,14.117z M235.882,124.998c0-61.236-49.644-110.88-110.881-110.88l93.147,171.048
	C229.364,167.835,235.882,147.176,235.882,124.998L235.882,124.998z M93.41,118.683h63.279l-31.688-57.941L93.41,118.683z
	 M70.815,160.133h108.542l-10.688-19.547h-87.2L70.815,160.133z"/>
<path opacity="0.4" fill="#FFFFFF" enable-background="new    " d="M46.596,46.598c-43.3,43.304-43.301,113.513,0,156.816
	c83.813-20.631,62.767-148.31,156.806-156.816C160.102,3.294,89.898,3.294,46.596,46.598z"/>
</svg>
