<?xml version="1.0" encoding="utf-8"?>
<!-- Generator: Adobe Illustrator 16.0.0, SVG Export Plug-In . SVG Version: 6.00 Build 0)  -->
<!DOCTYPE svg PUBLIC "-//W3C//DTD SVG 1.1//EN" "http://www.w3.org/Graphics/SVG/1.1/DTD/svg11.dtd">
<svg version="1.1" id="Capa_1" xmlns="http://www.w3.org/2000/svg" xmlns:xlink="http://www.w3.org/1999/xlink" x="0px" y="0px"
	 width="250px" height="250px" viewBox="0 0 250 250" enable-background="new 0 0 250 250" xml:space="preserve">
<circle opacity="0.8" fill="#141937" enable-background="new    " cx="125" cy="125" r="125"/>
<g>
	<path fill="#FFD100" d="M119.13,14.122h11.555c12.053,0.799,24.039,3.205,35.238,7.729c27.721,10.9,50.597,33.51,61.763,61.142
		c15.368,36.791,8.771,81.667-16.888,112.28c-17.364,21.312-42.901,35.828-70.156,39.52c-25.581,3.648-52.426-1.863-74.314-15.689
		c-16.876-10.512-30.848-25.637-39.896-43.355c-11.609-22.254-15.136-48.557-10.035-73.106c5.455-27.211,21.7-52.037,44.354-68.038
		C77.715,22.328,98.284,15.419,119.13,14.122 M112.256,19.145c-33.731,3.87-64.734,25.115-80.812,54.987
		c-10.878,19.859-15.225,43.277-11.942,65.709c3.715,27.012,18.407,52.281,39.918,69.002c16.378,12.918,36.637,20.848,57.438,22.398
		c23.562,1.875,47.69-4.412,67.25-17.686c23.984-15.879,41.005-41.848,45.896-70.199c2.816-16.711,1.862-34.12-3.305-50.275
		c-7.374-23.497-23.175-44.265-43.909-57.571C162.176,21.984,136.728,16.118,112.256,19.145z"/>
	<path fill="#FFD100" d="M114.928,62.811c19.282-3.227,39.962,3.094,53.834,16.932c12.309,11.621,19.493,28.508,19.139,45.44
		c0.243,16.842-6.975,33.598-19.228,45.118c-13.339,13.262-32.954,19.594-51.55,17.143c-17.52-2.105-33.919-12.062-43.877-26.645
		c-11.021-15.613-14.06-36.392-8.338-54.588C71.605,83.812,91.83,66.303,114.928,62.811 M118.775,66.648
		c0.011,5.51,0.022,11.021,0.011,16.532c2.75,0,5.5,0,8.25,0.011c0.011-5.654,0.022-11.31,0-16.954
		C124.286,66.326,121.525,66.458,118.775,66.648 M138.612,83.447c7.241,0.976,15.024,2.084,20.802,6.975
		c8.815,7.917,7.673,24.538-3.115,30.282c6.464,1.508,12.862,5.822,14.459,12.607c2.073,8.904,0.421,19.594-6.73,25.869
		c-7.086,5.832-16.678,6.598-25.438,7.43c0.045,5.156,0.022,10.312,0.012,15.479c18.439-4.512,34.352-18.24,41.115-36.004
		c6.42-16.389,4.901-35.67-4.158-50.762c-8.006-13.616-21.622-23.618-36.913-27.455C138.602,73.056,138.602,78.246,138.612,83.447
		 M83.581,83.224c7.983,0.389,15.978,0.3,23.973,0.289c0-4.868,0.011-9.725-0.022-14.593C98.584,71.826,90.611,77.037,83.581,83.224
		 M82.627,83.868c-2.117,2.605-6.043,7.529-8.371,11.887c-9.393,16.001-10.457,36.537-2.617,53.369
		c6.764,15.092,20.181,26.834,35.893,31.891c0.022-4.857,0.012-9.715,0.012-14.561c-8.017-0.076-16.057,0.211-24.062-0.221
		c0.089-4.469,1.143-8.838,2.662-13.051c3.925-0.078,8.017,0.609,11.809-0.678c2.218-1.861,1.586-4.945,1.708-7.494
		c-0.122-14.582,0.056-29.164-0.078-43.734c0.145-2.351-1.33-4.89-3.77-5.355c-4.025-0.81-8.173-0.487-12.242-0.521
		c-0.477-3.282-0.532-6.598-0.576-9.913c0,0,0.056-1.043-0.3-1.719L82.627,83.868L82.627,83.868z M119.119,96.397v21.49
		c7.174-0.134,15.136,0.665,21.411-3.505c5.212-3.415,4.879-12.053-0.498-15.124C133.744,95.543,126.082,96.597,119.119,96.397
		 M119.119,129.451v23.84c8.859-0.709,18.795,0.777,26.501-4.568c5.511-3.658,4.846-12.717-0.831-15.889
		C137.071,128.221,127.69,129.686,119.119,129.451 M118.798,166.775c0,5.512-0.012,11.033-0.022,16.543
		c2.872,0.189,5.732,0.301,8.604,0.389c0.022-5.645,0.011-11.287,0.011-16.932H118.798L118.798,166.775z"/>
	<path fill="#FFD100" d="M112.898,24.9c19.427-2.085,39.541,0.876,56.994,9.835c22.454,11.011,40.406,30.804,49.255,54.189
		c9.025,23.418,8.826,50.208-0.521,73.515c-14.216,36.736-51.749,63.148-91.269,63.203c-23.208,0.844-46.56-6.963-64.733-21.4
		c-19.383-15.068-32.788-37.588-36.925-61.795c-4.225-23.973,0.511-49.443,13.328-70.167C54.695,46.29,82.761,28.326,112.898,24.9
		 M109.517,57.433c-15.79,3.56-30.227,12.885-39.907,25.869c-10.688,14.06-15.59,32.345-13.405,49.854
		c2.051,18.738,12.286,36.414,27.51,47.514c14.249,10.711,32.767,15.412,50.396,12.994c21.789-2.66,41.825-16.533,51.993-35.992
		c7.618-13.883,9.703-30.383,6.908-45.873c-3.56-18.784-15.291-35.849-31.613-45.806C146.119,56.479,127.047,53.43,109.517,57.433z"
		/>
</g>
<path opacity="0.4" fill="#FFFFFF" enable-background="new    " d="M46.596,46.598c-43.3,43.304-43.301,113.513,0,156.816
	c83.813-20.631,62.767-148.31,156.806-156.816C160.102,3.294,89.898,3.294,46.596,46.598z"/>
</svg>
