<?xml version="1.0" encoding="utf-8"?>
<!-- Generator: Adobe Illustrator 16.0.0, SVG Export Plug-In . SVG Version: 6.00 Build 0)  -->
<!DOCTYPE svg PUBLIC "-//W3C//DTD SVG 1.1//EN" "http://www.w3.org/Graphics/SVG/1.1/DTD/svg11.dtd">
<svg version="1.1" id="Capa_1" xmlns="http://www.w3.org/2000/svg" xmlns:xlink="http://www.w3.org/1999/xlink" x="0px" y="0px"
	 width="250px" height="250px" viewBox="0 0 250 250" enable-background="new 0 0 250 250" xml:space="preserve">
<circle opacity="0.8" fill="#141937" enable-background="new    " cx="125" cy="125" r="125"/>
<path fill="#0082CA" d="M125,14.12c-61.236,0-110.879,49.643-110.879,110.879S63.763,235.878,125,235.878
	c61.236,0,110.878-49.643,110.878-110.879S186.236,14.12,125,14.12z M69.431,116.603h44.264l-5.122,16.647H64.311L69.431,116.603z
	 M184.104,108.752c-1.762,6.361-7.486,25.446-9.836,32.215c-2.348,6.77-6.678,12.452-12.229,15.702
	c-5.553,3.25-7.627,4.607-15.385,4.607H67.221l5.595-18.132h74.704l11.162-36.288H84.569l5.596-18.13h82.705
	c3.789,0,8.797,1.752,11.234,6.492C186.539,99.953,185.861,102.39,184.104,108.752z"/>
<path opacity="0.4" fill="#FFFFFF" enable-background="new    " d="M46.596,46.598c-43.3,43.304-43.301,113.513,0,156.816
	c83.813-20.631,62.767-148.31,156.806-156.816C160.102,3.294,89.898,3.294,46.596,46.598z"/>
</svg>
