<?xml version="1.0" encoding="utf-8"?>
<!-- Generator: Adobe Illustrator 16.0.0, SVG Export Plug-In . SVG Version: 6.00 Build 0)  -->
<!DOCTYPE svg PUBLIC "-//W3C//DTD SVG 1.1//EN" "http://www.w3.org/Graphics/SVG/1.1/DTD/svg11.dtd">
<svg version="1.1" id="Capa_1" xmlns="http://www.w3.org/2000/svg" xmlns:xlink="http://www.w3.org/1999/xlink" x="0px" y="0px"
	 width="250px" height="250px" viewBox="0 0 250 250" enable-background="new 0 0 250 250" xml:space="preserve">
<circle opacity="0.8" fill="#141937" enable-background="new    " cx="125" cy="125" r="125"/>
<g>
	<path fill="#758085" d="M121.267,84.02V63.005L94.445,97.931l6.354,18.425L121.267,84.02z M95.69,124.426l-4.886-14.166
		l-9.323,36.611L95.69,124.426L95.69,124.426z M117.572,164.989v0.002h14.725l13.602-39.915L125,92.062l-21.09,33.316
		L117.572,164.989z M168.295,146.518l-9.453-36.294l-4.732,13.887L168.295,146.518z M155.15,97.925L128.732,63.11V84.02
		l20.252,31.996L155.15,97.925z M98.802,133.448l-19.968,31.543h30.846L98.802,133.448z M124.979,186.467l4.787-14.045h-9.631
		L124.979,186.467z M86.48,172.422l31.833,17.601l-6.07-17.601H86.48z M131.641,190.047l31.879-17.625h-25.873L131.641,190.047z
		 M140.18,164.991h30.984l-20.141-31.82L140.18,164.991z"/>
	<path fill="#758085" d="M125,14.12c-61.236,0-110.879,49.643-110.879,110.879S63.763,235.878,125,235.878
		c61.237,0,110.879-49.643,110.879-110.879S186.236,14.12,125,14.12z M179.74,171.955l-52.93,29.266
		c-1.129,0.622-2.496,0.622-3.624,0l-52.929-29.266c-1.479-0.815-2.221-2.525-1.806-4.163l18.194-71.45
		c0.124-0.488,0.346-0.945,0.653-1.345l34.733-45.228c1.26-1.638,3.609-1.944,5.248-0.683c0.262,0.2,0.494,0.436,0.695,0.698
		l34.32,45.229c0.297,0.389,0.512,0.834,0.635,1.307l18.607,71.452C181.965,169.414,181.225,171.137,179.74,171.955z"/>
</g>
<path opacity="0.4" fill="#FFFFFF" enable-background="new    " d="M46.596,46.598c-43.3,43.304-43.301,113.513,0,156.816
	c83.813-20.631,62.767-148.31,156.806-156.816C160.102,3.294,89.898,3.294,46.596,46.598z"/>
</svg>
