<?xml version="1.0" encoding="utf-8"?>
<!-- Generator: Adobe Illustrator 16.0.0, SVG Export Plug-In . SVG Version: 6.00 Build 0)  -->
<!DOCTYPE svg PUBLIC "-//W3C//DTD SVG 1.1//EN" "http://www.w3.org/Graphics/SVG/1.1/DTD/svg11.dtd">
<svg version="1.1" id="Capa_1" xmlns="http://www.w3.org/2000/svg" xmlns:xlink="http://www.w3.org/1999/xlink" x="0px" y="0px"
	 width="250px" height="250px" viewBox="0 0 250 250" enable-background="new 0 0 250 250" xml:space="preserve">
<circle opacity="0.8" fill="#141937" enable-background="new    " cx="125" cy="125" r="125"/>
<path fill="#4CAD41" d="M125.001,14.121c-61.233,0-110.88,49.644-110.88,110.88c0,61.237,49.646,110.882,110.88,110.882
	c61.241,0,110.878-49.645,110.878-110.882C235.879,63.764,186.242,14.121,125.001,14.121z M125,37.598v-0.024l51.653,85.911
	L125,100.864l-50.931,22.304L125,37.598z M125,212.615l-52.272-73.942L125,169.277l52.277-30.604L125,212.615z M125,158.441
	l-52.624-30.822L125,104.565v0.001l52.663,23.068L125,158.441z"/>
<path opacity="0.4" fill="#FFFFFF" enable-background="new    " d="M46.596,46.598c-43.3,43.304-43.301,113.513,0,156.816
	c83.813-20.631,62.767-148.31,156.806-156.816C160.102,3.294,89.898,3.294,46.596,46.598z"/>
</svg>
