<?xml version="1.0" encoding="utf-8"?>
<!-- Generator: Adobe Illustrator 16.0.0, SVG Export Plug-In . SVG Version: 6.00 Build 0)  -->
<!DOCTYPE svg PUBLIC "-//W3C//DTD SVG 1.1//EN" "http://www.w3.org/Graphics/SVG/1.1/DTD/svg11.dtd">
<svg version="1.1" id="Capa_1" xmlns="http://www.w3.org/2000/svg" xmlns:xlink="http://www.w3.org/1999/xlink" x="0px" y="0px"
	 width="250px" height="250px" viewBox="0 0 250 250" enable-background="new 0 0 250 250" xml:space="preserve">
<circle opacity="0.8" fill="#141937" enable-background="new    " cx="125" cy="125" r="125"/>
<path fill="#1CCFC9" d="M124.999,14.122C63.764,14.122,14.12,63.765,14.12,125c0,61.236,49.644,110.878,110.88,110.878
	c61.235,0,110.879-49.643,110.879-110.878C235.878,63.765,186.234,14.122,124.999,14.122z M123.947,68.701
	c12.143,0,23.369,3.94,32.463,10.619l-15.089,15.075c-5.09-3.036-11.031-4.767-17.387-4.767c-18.783,0-34.001,15.23-34.001,34
	c0,6.355,1.744,12.298,4.767,17.387L79.626,156.09c-6.666-9.094-10.606-20.319-10.606-32.462
	C69.02,93.297,93.616,68.701,123.947,68.701z M68.42,195.88c-7.905,0-14.3-6.407-14.3-14.313c0-7.905,6.407-14.312,14.313-14.312
	s14.3,6.42,14.3,14.312C82.733,189.473,76.326,195.88,68.42,195.88z M123.947,178.555c-12.181,0-23.433-3.966-32.54-10.67
	l15.088-15.075c5.103,3.062,11.07,4.818,17.452,4.818c18.77,0,34-15.218,34-34c0-6.382-1.757-12.35-4.819-17.465l15.075-15.075
	c6.705,9.107,10.671,20.358,10.671,32.541C178.874,153.959,154.278,178.555,123.947,178.555z M181.566,82.747
	c-7.905,0-14.3-6.408-14.3-14.313s6.407-14.313,14.3-14.313s14.313,6.407,14.313,14.313S189.473,82.747,181.566,82.747z"/>
<path opacity="0.4" fill="#FFFFFF" enable-background="new    " d="M46.596,46.598c-43.3,43.304-43.301,113.513,0,156.816
	c83.813-20.631,62.767-148.31,156.806-156.816C160.102,3.294,89.898,3.294,46.596,46.598z"/>
<title>ICON</title>
<desc>Created using Figma</desc>
</svg>
