<?xml version="1.0" encoding="utf-8"?>
<!-- Generator: Adobe Illustrator 16.0.0, SVG Export Plug-In . SVG Version: 6.00 Build 0)  -->
<!DOCTYPE svg PUBLIC "-//W3C//DTD SVG 1.1//EN" "http://www.w3.org/Graphics/SVG/1.1/DTD/svg11.dtd">
<svg version="1.1" id="Capa_1" xmlns="http://www.w3.org/2000/svg" xmlns:xlink="http://www.w3.org/1999/xlink" x="0px" y="0px"
	 width="250px" height="250px" viewBox="0 0 250 250" enable-background="new 0 0 250 250" xml:space="preserve">
<circle opacity="0.8" fill="#141937" enable-background="new    " cx="125" cy="125" r="125"/>
<path fill="#909C9C" d="M125,14.121c-61.209,0-110.88,49.67-110.88,110.879c0,61.208,49.671,110.879,110.88,110.879
	c61.208,0,110.878-49.671,110.878-110.879C235.879,63.791,186.209,14.121,125,14.121z M169.385,86.274
	c1.023-4.298,5.336-6.952,9.635-5.928c4.297,1.024,6.951,5.338,5.928,9.637c-1.025,4.297-5.338,6.951-9.635,5.928
	s-6.953-5.335-5.93-9.632C169.383,86.277,169.383,86.275,169.385,86.274z M168.227,105.534c0.795-3.484,4.26-5.666,7.746-4.873
	c3.482,0.792,5.666,4.261,4.871,7.743c-0.01,0.043-0.02,0.086-0.031,0.128c-0.861,3.469-4.373,5.579-7.84,4.716
	C169.557,112.396,167.445,108.968,168.227,105.534z M160.346,138.608c-2.238-0.532-3.621-2.78-3.086-5.019
	c0.531-2.238,2.777-3.621,5.016-3.088l0,0c2.24,0.534,3.621,2.78,3.088,5.019C164.832,137.759,162.584,139.142,160.346,138.608
	L160.346,138.608z M162.943,154.927c-0.705,1.545-2.529,2.225-4.074,1.521c-1.545-0.705-2.225-2.528-1.518-4.073
	c0.012-0.033,0.027-0.065,0.045-0.096c0.758-1.521,2.604-2.137,4.123-1.379C163.002,151.641,163.631,153.42,162.943,154.927z
	 M155.48,111.126c-3.852,0-6.973-3.122-6.973-6.973c0-3.852,3.121-6.973,6.973-6.973s6.973,3.121,6.973,6.973
	C162.453,108.004,159.332,111.126,155.48,111.126z M165.506,146.854c0.822-1.761,2.916-2.521,4.676-1.697
	c1.762,0.821,2.523,2.916,1.699,4.677c-0.006,0.017-0.016,0.036-0.025,0.054c-0.852,1.747-2.959,2.471-4.705,1.619
	C165.426,150.664,164.693,148.595,165.506,146.854z M167.1,128.233c-3.209-0.765-5.191-3.987-4.426-7.198
	c0.764-3.21,3.986-5.192,7.197-4.429c3.211,0.767,5.191,3.988,4.426,7.199C173.533,127.017,170.311,128.999,167.1,128.233
	L167.1,128.233z M158.17,92.604c-4.17,0-7.551-3.38-7.551-7.549s3.381-7.549,7.551-7.549s7.549,3.38,7.549,7.549
	S162.34,92.604,158.17,92.604z M156.059,53.545c5.156,0,9.334,4.18,9.334,9.336s-4.178,9.336-9.334,9.336s-9.338-4.18-9.338-9.336
	S150.902,53.545,156.059,53.545z M150.619,115.009c2.686-0.038,4.893,2.108,4.93,4.793c0.037,2.686-2.109,4.892-4.795,4.929
	c-0.043,0-0.09,0-0.135,0c-2.686-0.038-4.83-2.244-4.793-4.93C145.863,117.169,147.988,115.046,150.619,115.009z M143.123,135.702
	c-2.344,0.002-4.246-1.898-4.248-4.243c-0.002-2.346,1.898-4.247,4.242-4.247c0.002,0,0.004,0,0.006,0
	c2.346,0,4.244,1.901,4.242,4.247C147.365,133.802,145.465,135.7,143.123,135.702z M147.09,148.585
	c-0.432,1.814-2.252,2.935-4.066,2.502c-1.812-0.432-2.932-2.252-2.5-4.066c0.432-1.812,2.25-2.933,4.064-2.501
	S147.521,146.772,147.09,148.585L147.09,148.585z M134.334,135.702c2.174-0.05,3.977,1.675,4.027,3.852
	c0.047,2.175-1.678,3.978-3.852,4.025c-0.061,0.002-0.117,0.002-0.176,0c-2.176-0.048-3.9-1.851-3.854-4.025
	C130.529,137.445,132.225,135.748,134.334,135.702z M129.686,97.216c-1.916,0.607-3.961-0.453-4.571-2.368
	c-0.607-1.915,0.454-3.961,2.368-4.57c0.043-0.013,0.084-0.024,0.125-0.036c1.936-0.54,3.943,0.593,4.484,2.528
	C132.617,94.657,131.553,96.622,129.686,97.216z M137.158,114.642c-1.869,1.115-4.285,0.506-5.402-1.362
	c-1.115-1.868-0.506-4.286,1.363-5.401c0.033-0.021,0.066-0.04,0.102-0.059c1.898-1.06,4.299-0.379,5.357,1.521
	C139.617,111.201,138.986,113.55,137.158,114.642z M136.557,95.709c1.785-0.532,3.666,0.485,4.199,2.271
	c0.531,1.787-0.486,3.667-2.273,4.198c-1.785,0.533-3.666-0.482-4.197-2.271C133.752,98.122,134.77,96.242,136.557,95.709z
	 M140.541,84.913c1.57-0.122,2.943,1.051,3.066,2.621c0.123,1.571-1.051,2.942-2.621,3.065s-2.943-1.051-3.064-2.62
	C137.799,86.409,138.973,85.037,140.541,84.913L140.541,84.913z M134.121,78.811c1.691-0.132,3.172,1.133,3.305,2.826
	c0.131,1.691-1.133,3.172-2.826,3.304c-1.693,0.133-3.172-1.133-3.305-2.825S132.43,78.943,134.121,78.811L134.121,78.811z
	 M125.299,73.611c1.937-0.152,3.63,1.295,3.785,3.231c0.15,1.938-1.297,3.632-3.234,3.783l0,0c-1.937,0.153-3.63-1.295-3.783-3.232
	C121.916,75.457,123.362,73.763,125.299,73.611z M127.383,105.588c1.172,2.031,0.475,4.627-1.555,5.8
	c-2.032,1.173-4.628,0.477-5.801-1.555c-1.172-2.03-0.477-4.627,1.555-5.8S126.209,103.558,127.383,105.588L127.383,105.588z
	 M95.769,137.521c1.381-1.461,3.684-1.523,5.145-0.143c1.459,1.381,1.523,3.684,0.143,5.143c-1.382,1.461-3.685,1.524-5.145,0.144
	S94.388,138.98,95.769,137.521L95.769,137.521z M96.041,127.408c1.281-1.354,3.418-1.413,4.772-0.132s1.413,3.418,0.132,4.772
	c-1.281,1.355-3.419,1.415-4.773,0.134C94.818,130.899,94.757,128.762,96.041,127.408z M98.186,148.649
	c1.581-1.671,4.218-1.745,5.889-0.164c1.672,1.581,1.745,4.219,0.163,5.89c-1.581,1.671-4.217,1.743-5.889,0.162
	C96.677,152.958,96.605,150.32,98.186,148.649z M112.351,111.222c-2.321,1.346-5.295,0.556-6.643-1.767s-0.557-5.296,1.766-6.643
	c0.006-0.003,0.012-0.007,0.018-0.01c2.327-1.338,5.299-0.536,6.635,1.792C115.46,106.915,114.667,109.878,112.351,111.222z
	 M113.708,127.574c-1.06,1.9-3.459,2.582-5.359,1.522c-1.9-1.061-2.581-3.461-1.521-5.361c0.02-0.033,0.038-0.066,0.059-0.1
	c1.115-1.868,3.533-2.479,5.402-1.362C114.117,123.365,114.747,125.714,113.708,127.574z M103.793,159.686
	c2.268-2.396,6.05-2.503,8.446-0.234c2.398,2.267,2.504,6.048,0.236,8.446c-2.268,2.396-6.049,2.504-8.447,0.235
	C101.631,165.865,101.526,162.085,103.793,159.686z M110.867,140.986c-2.029-1.171-2.726-3.768-1.554-5.798s3.768-2.728,5.798-1.555
	s2.727,3.768,1.555,5.798S112.898,142.158,110.867,140.986z M115.068,147.164c1.316-2.34,4.279-3.17,6.62-1.854
	s3.171,4.28,1.855,6.621c-0.019,0.03-0.036,0.063-0.056,0.096c-1.369,2.311-4.352,3.072-6.661,1.703
	C114.554,152.381,113.773,149.467,115.068,147.164z M121.288,89.22c0.688,2.194-0.532,4.532-2.727,5.222
	c-2.194,0.688-4.532-0.532-5.222-2.728c-0.012-0.038-0.023-0.076-0.034-0.114c-0.626-2.215,0.662-4.516,2.876-5.142
	C118.35,85.846,120.613,87.069,121.288,89.22z M113.564,69.466c2.778-0.218,5.208,1.86,5.426,4.639
	c0.218,2.779-1.859,5.21-4.639,5.428s-5.209-1.86-5.426-4.639C108.707,72.113,110.784,69.684,113.564,69.466z M108.925,88.558
	c0.985,3.149-0.77,6.502-3.919,7.487c-3.149,0.986-6.503-0.768-7.488-3.918c-0.017-0.052-0.032-0.104-0.047-0.157
	c-0.899-3.176,0.947-6.479,4.123-7.377C104.708,83.71,107.958,85.469,108.925,88.558z M99.595,68.188
	c3.006-0.273,5.664,1.943,5.938,4.949c0.272,3.007-1.943,5.665-4.949,5.938c-0.045,0.004-0.09,0.008-0.135,0.01
	c-3.012,0.198-5.615-2.081-5.813-5.094C94.441,71.032,96.641,68.457,99.595,68.188z M99.919,107.174
	c1.926,3.335,0.783,7.6-2.552,9.524s-7.599,0.783-9.524-2.552c-1.926-3.336-0.783-7.599,2.551-9.525
	C93.73,102.696,97.994,103.839,99.919,107.174L99.919,107.174z M84.83,134.127c-0.916-1.282-0.619-3.062,0.662-3.979
	c1.281-0.915,3.062-0.618,3.979,0.663c0.02,0.028,0.039,0.057,0.059,0.086c0.867,1.313,0.506,3.082-0.809,3.951
	C87.441,135.694,85.721,135.375,84.83,134.127z M87.027,143.531c-1.398,0.961-3.311,0.607-4.271-0.792
	c-0.961-1.397-0.605-3.312,0.793-4.272c1.398-0.96,3.312-0.604,4.271,0.793C88.781,140.659,88.425,142.571,87.027,143.531z
	 M93.056,90.882c1.054,3.414-0.858,7.037-4.272,8.092c-3.415,1.055-7.037-0.858-8.092-4.272c-0.013-0.041-0.024-0.082-0.036-0.123
	c-0.986-3.435,0.998-7.018,4.432-8.005C88.474,85.601,92.015,87.517,93.056,90.882z M83.609,69.676
	c3.719-0.331,7.002,2.414,7.334,6.132c0.332,3.719-2.413,7.001-6.131,7.334c-0.049,0.005-0.099,0.008-0.148,0.011
	c-3.724,0.252-6.946-2.564-7.197-6.29C77.22,73.195,79.949,70.004,83.609,69.676z M66.876,92.226
	c4.226-1.29,8.697,1.091,9.988,5.316c1.289,4.227-1.091,8.699-5.316,9.989c-0.034,0.01-0.068,0.02-0.103,0.029
	c-4.243,1.234-8.683-1.205-9.917-5.448C60.306,97.909,62.689,93.503,66.876,92.226z M62.518,138.882
	c-4.466,2.578-10.175,1.048-12.753-3.417s-1.049-10.175,3.417-12.753c4.466-2.579,10.175-1.048,12.753,3.417
	C68.512,130.596,66.982,136.304,62.518,138.882z M79.771,124.42c-3.61,2.083-8.227,0.846-10.311-2.766
	c-2.084-3.61-0.846-8.228,2.765-10.311c3.609-2.084,8.226-0.847,10.31,2.763c2.084,3.61,0.849,8.227-2.762,10.312
	C79.773,124.418,79.772,124.419,79.771,124.42z M82.662,152.978c-1.125-1.584-0.754-3.781,0.831-4.906
	c1.584-1.125,3.781-0.755,4.906,0.831c0.022,0.03,0.043,0.061,0.063,0.091c1.074,1.62,0.633,3.805-0.986,4.88
	C85.892,154.923,83.761,154.526,82.662,152.978z M84.941,165.215c-1.598-2.284-1.042-5.432,1.243-7.03
	c2.284-1.598,5.433-1.042,7.03,1.241c0.016,0.025,0.033,0.05,0.049,0.073c1.559,2.312,0.947,5.45-1.365,7.009
	C89.615,168.047,86.519,167.472,84.941,165.215z M90.818,177.95c-1.709-2.488-1.076-5.892,1.413-7.601
	c2.488-1.707,5.892-1.075,7.6,1.413s1.076,5.892-1.413,7.599C95.929,181.07,92.527,180.438,90.818,177.95z M109.498,192.796
	c-3.077,2.112-7.284,1.331-9.396-1.745c-2.113-3.076-1.332-7.283,1.744-9.397c3.077-2.112,7.285-1.331,9.398,1.745
	C113.356,186.476,112.575,190.685,109.498,192.796L109.498,192.796z M123.142,181.156c-2.438,2.613-6.531,2.754-9.145,0.317
	c-2.612-2.438-2.754-6.531-0.316-9.144c0.02-0.023,0.039-0.044,0.06-0.063c2.474-2.579,6.568-2.667,9.147-0.194
	C125.444,174.522,125.559,178.569,123.142,181.156z M124.418,158.178c1.927-3.337,6.189-4.479,9.525-2.554
	c3.334,1.927,4.477,6.189,2.551,9.525l0,0c-1.924,3.335-6.189,4.477-9.523,2.552C123.636,165.776,122.494,161.512,124.418,158.178z
	 M139.305,193.952c-3.006,3.238-8.068,3.43-11.309,0.424c-3.239-3.006-3.429-8.068-0.424-11.308c0.037-0.038,0.07-0.074,0.107-0.112
	c3.066-3.18,8.131-3.271,11.312-0.205C142.131,185.776,142.268,190.757,139.305,193.952z M152.191,177.314
	c-2.086,3.611-6.701,4.849-10.312,2.766c-3.611-2.086-4.85-6.701-2.764-10.312c2.084-3.611,6.701-4.849,10.311-2.764
	C153.037,169.088,154.273,173.705,152.191,177.314L152.191,177.314z M154.445,157.437c-0.678,1.421-2.379,2.024-3.801,1.344
	c-1.422-0.678-2.023-2.379-1.346-3.802c0.678-1.421,2.383-2.022,3.803-1.345C154.523,154.312,155.127,156.016,154.445,157.437z
	 M156.301,143.57c-0.467,1.953-2.43,3.162-4.383,2.696c-1.955-0.466-3.162-2.43-2.697-4.383l0,0
	c0.467-1.956,2.428-3.162,4.383-2.696S156.764,141.614,156.301,143.57z M173.998,187.467c-2.578,4.465-8.289,5.994-12.754,3.418
	c-4.467-2.58-5.994-8.288-3.418-12.753c2.578-4.467,8.289-5.997,12.754-3.419C175.047,177.291,176.574,183.002,173.998,187.467z
	 M181.314,141.796c-1.201,2.515-4.215,3.581-6.73,2.38s-3.58-4.215-2.379-6.73l0,0c1.201-2.517,4.215-3.582,6.729-2.381
	C181.449,136.266,182.516,139.279,181.314,141.796z M189.404,130.338c-1.299,2.725-4.562,3.878-7.287,2.578
	c-2.725-1.301-3.879-4.564-2.578-7.288c1.301-2.725,4.562-3.879,7.287-2.579C189.553,124.351,190.705,127.612,189.404,130.338z
	 M196.109,115.749c-1.609,3.368-5.643,4.795-9.012,3.187c-3.367-1.608-4.795-5.643-3.188-9.011c1.611-3.369,5.645-4.795,9.014-3.188
	C196.291,108.347,197.719,112.381,196.109,115.749z"/>
<path opacity="0.4" fill="#FFFFFF" enable-background="new    " d="M46.596,46.598c-43.3,43.304-43.301,113.513,0,156.816
	c83.813-20.631,62.767-148.31,156.806-156.816C160.102,3.294,89.898,3.294,46.596,46.598z"/>
</svg>
