<?xml version="1.0" encoding="utf-8"?>
<!-- Generator: Adobe Illustrator 16.0.0, SVG Export Plug-In . SVG Version: 6.00 Build 0)  -->
<!DOCTYPE svg PUBLIC "-//W3C//DTD SVG 1.1//EN" "http://www.w3.org/Graphics/SVG/1.1/DTD/svg11.dtd">
<svg version="1.1" id="Capa_1" xmlns="http://www.w3.org/2000/svg" xmlns:xlink="http://www.w3.org/1999/xlink" x="0px" y="0px"
	 width="250px" height="250px" viewBox="0 0 250 250" enable-background="new 0 0 250 250" xml:space="preserve">
<ellipse opacity="0.8" fill="#141937" enable-background="new    " cx="125" cy="125.002" rx="125" ry="125.006"/>
<g>
	<path fill="#EC6C1E" d="M52.901,159.805V66.723l72.139,72.141l72.071-72.068v93.011h33.195c3.711-11.229,5.596-22.981,5.584-34.814
		c0-61.236-49.643-110.879-110.882-110.879c-61.245,0-110.89,49.643-110.89,110.879c0,12.167,1.969,23.863,5.586,34.814H52.9
		L52.901,159.805L52.901,159.805z"/>
	<path fill="#4D4C4C" d="M173.052,182.359v-58.845l-48.42,48.419l-48.081-48.08v58.503H30.1
		c19.432,32.072,54.667,53.511,94.911,53.511c40.242,0,75.47-21.438,94.904-53.511h-46.863V182.359z"/>
</g>
<path opacity="0.4" fill="#FFFFFF" enable-background="new    " d="M46.596,46.598c-43.3,43.304-43.301,113.513,0,156.816
	c83.813-20.631,62.767-148.31,156.806-156.816C160.102,3.294,89.898,3.294,46.596,46.598z"/>
</svg>
