<?xml version="1.0" encoding="utf-8"?>
<!-- Generator: Adobe Illustrator 16.0.0, SVG Export Plug-In . SVG Version: 6.00 Build 0)  -->
<!DOCTYPE svg PUBLIC "-//W3C//DTD SVG 1.1//EN" "http://www.w3.org/Graphics/SVG/1.1/DTD/svg11.dtd">
<svg version="1.1" id="Capa_1" xmlns="http://www.w3.org/2000/svg" xmlns:xlink="http://www.w3.org/1999/xlink" x="0px" y="0px"
	 width="250px" height="250px" viewBox="0 0 250 250" enable-background="new 0 0 250 250" xml:space="preserve">
<circle opacity="0.8" fill="#141937" enable-background="new    " cx="125" cy="125" r="125"/>
<g>
	<path fill="#00ADD8" d="M118.742,90.764c0.23-0.152,0.501-0.249,0.811-0.287c0.307-0.039,0.617-0.058,0.928-0.058
		c0.309,0,0.598,0.019,0.868,0.058c0.271,0.038,0.522,0.096,0.755,0.172l12.286-16.475c-0.223-0.29-0.416-0.598-0.582-0.922
		c-0.148-0.293-0.266-0.603-0.346-0.921h-25.963c-0.062,0.343-0.179,0.673-0.347,0.979c-0.175,0.3-0.368,0.588-0.58,0.864
		l12.171,16.475V90.764z"/>
	<path fill="#00ADD8" d="M89.301,147.449c0.154-0.078,0.328-0.115,0.521-0.115h1.449l8.691-18.32
		c-0.376-0.296-0.707-0.645-0.984-1.035c-0.271-0.385-0.483-0.846-0.638-1.383H81.075h-0.002c-0.154,0.461-0.349,0.883-0.58,1.268
		c-0.232,0.383-0.541,0.729-0.928,1.037L89.301,147.449z"/>
	<path fill="#00ADD8" d="M124.882,154.016l21.094-2.648c0.078-0.615,0.252-1.172,0.521-1.672c0.279-0.508,0.652-0.959,1.102-1.324
		l-8.691-18.316c-0.117,0.008-0.234,0.025-0.35,0.055c-0.189,0.042-0.385,0.061-0.58,0.058c-0.23,0-0.443-0.019-0.637-0.058
		c-0.215-0.045-0.43-0.103-0.637-0.174l-12.867,22.353c0.233,0.23,0.427,0.499,0.581,0.806L124.882,154.016z"/>
	<path fill="#00ADD8" d="M151.135,147.334c0.193,0,0.367,0.037,0.521,0.115l9.967-18.664c-0.381-0.226-0.699-0.543-0.926-0.924
		c-0.24-0.398-0.434-0.824-0.58-1.266h-17.502c-0.154,0.538-0.367,0.998-0.637,1.383c-0.277,0.391-0.609,0.74-0.984,1.037
		l-0.002-0.002l8.693,18.32H151.135z"/>
	<path fill="#00ADD8" d="M124.827,93.184c0.192,0.384,0.289,0.806,0.289,1.268l21.093,2.764c0.154-0.384,0.348-0.751,0.58-1.094
		c0.232-0.346,0.541-0.634,0.926-0.864l-8.807-19.47c-0.156,0-0.312,0.019-0.463,0.057c-0.152,0.038-0.309,0.058-0.465,0.058
		c-0.295,0.002-0.586-0.037-0.869-0.115c-0.289-0.082-0.578-0.158-0.869-0.23v0l-12.054,16.59
		C124.42,92.455,124.632,92.8,124.827,93.184z"/>
	<path fill="#00ADD8" d="M90.923,103.611c-0.151,0.038-0.307,0.058-0.463,0.058c-0.232,0-0.445-0.019-0.638-0.058
		c-0.172-0.036-0.346-0.055-0.521-0.057l-9.735,18.435c0.387,0.307,0.696,0.652,0.928,1.036s0.425,0.808,0.579,1.269h17.386
		c0.077-0.539,0.251-0.999,0.521-1.384c0.277-0.39,0.609-0.74,0.986-1.036h-0.002l-8.575-18.318
		C91.231,103.554,91.075,103.574,90.923,103.611z"/>
	<path fill="#00ADD8" d="M150.15,94.222h0.463c0.771,0,1.467,0.173,2.086,0.518c0.613,0.343,1.164,0.792,1.623,1.325l7.877-3.455
		c-0.006-0.098-0.023-0.196-0.053-0.289c-0.043-0.131-0.062-0.267-0.061-0.404c0-0.307,0.039-0.615,0.117-0.922
		s0.154-0.577,0.232-0.807l-21.326-15.437c-0.078,0-0.115,0.019-0.115,0.058v0.057l8.789,19.427
		C149.904,94.246,150.027,94.222,150.15,94.222z"/>
	<path fill="#00ADD8" d="M94.517,149.695c0.312,0.508,0.51,1.078,0.579,1.672l20.978,2.648c0.154-0.307,0.329-0.615,0.521-0.923
		c0.194-0.306,0.405-0.575,0.639-0.805l-12.982-22.353c-0.183,0.087-0.378,0.145-0.579,0.174c-0.23,0.037-0.462,0.057-0.695,0.058
		c-0.156-0.001-0.311-0.021-0.463-0.058c-0.151-0.039-0.307-0.058-0.464-0.058l-8.692,18.319
		C93.813,148.745,94.205,149.193,94.517,149.695z"/>
	<path fill="#00ADD8" d="M146.439,101.192c-0.311-0.509-0.51-1.079-0.58-1.671l-20.977-2.65c-0.155,0.307-0.328,0.595-0.521,0.864
		c-0.191,0.267-0.404,0.517-0.637,0.748l12.981,22.467c0.23-0.076,0.463-0.134,0.695-0.172c0.232-0.039,0.463-0.058,0.695-0.058
		c0.154,0,0.309,0.019,0.463,0.058c0.154,0.038,0.27,0.058,0.348,0.058l8.693-18.319
		C147.143,102.141,146.752,101.694,146.439,101.192z"/>
	<path fill="#00ADD8" d="M169.273,124.292h3.941c0.139-0.583,0.395-1.132,0.754-1.613c0.348-0.462,0.791-0.845,1.332-1.152
		l-7.648-23.618l-1.508,22.928c0.76,0.298,1.449,0.749,2.027,1.324C168.752,122.736,169.119,123.446,169.273,124.292z"/>
	<path fill="#00ADD8" d="M155.307,98.6c0.039,0.153,0.059,0.269,0.059,0.346c0,0.692-0.154,1.343-0.465,1.958
		c-0.309,0.615-0.695,1.113-1.158,1.497l9.736,18.435c0.076-0.078,0.135-0.116,0.174-0.116h0.174l1.621-24.308l-0.115-0.116
		c-0.387-0.077-0.773-0.269-1.158-0.576c-0.365-0.288-0.713-0.595-1.045-0.921l-7.881,3.341
		C155.248,98.293,155.268,98.445,155.307,98.6z"/>
	<path fill="#00ADD8" d="M119.842,151.077c0.192-0.038,0.405-0.058,0.636-0.058c0.232,0,0.464,0.02,0.696,0.058
		c0.231,0.038,0.425,0.058,0.578,0.058l12.982-22.35c-0.301-0.299-0.574-0.627-0.811-0.979c-0.24-0.365-0.398-0.778-0.465-1.21
		h-25.961c-0.076,0.461-0.23,0.864-0.463,1.21c-0.231,0.346-0.502,0.671-0.811,0.979h-0.001l12.98,22.35v0.115
		C119.435,151.174,119.647,151.115,119.842,151.077z"/>
	<path fill="#00ADD8" d="M142.035,122.967c0.232,0.423,0.426,0.865,0.58,1.325h17.502c0.076-0.462,0.23-0.902,0.463-1.325
		c0.232-0.423,0.549-0.795,0.928-1.095l-9.736-18.434c-0.207,0.07-0.422,0.128-0.637,0.172c-0.172,0.037-0.348,0.056-0.521,0.058
		c-0.156,0-0.312-0.02-0.463-0.058c-0.152-0.037-0.309-0.057-0.465-0.057l-8.576,18.318
		C141.488,122.172,141.803,122.544,142.035,122.967z"/>
	<path fill="#00ADD8" d="M121.116,99.694c-0.21,0.04-0.423,0.059-0.638,0.058c-0.23,0-0.443-0.019-0.636-0.058
		c-0.172-0.036-0.347-0.055-0.521-0.058l-13.098,22.466c0.309,0.308,0.578,0.634,0.811,0.979c0.232,0.347,0.387,0.75,0.464,1.21
		h25.961c0.156-0.462,0.328-0.864,0.521-1.21c0.193-0.345,0.445-0.671,0.754-0.979l-12.982-22.466
		C121.522,99.637,121.309,99.656,121.116,99.694z"/>
	<path fill="#00ADD8" d="M116.074,96.756l-20.978,2.765c-0.069,0.592-0.268,1.162-0.579,1.671c-0.312,0.501-0.704,0.948-1.159,1.324
		l8.692,18.319c0.154,0,0.31-0.02,0.464-0.058c0.152-0.038,0.307-0.058,0.463-0.058c0.233,0,0.444,0.019,0.639,0.058
		c0.192,0.038,0.405,0.096,0.636,0.172l12.982-22.467c-0.233-0.23-0.446-0.481-0.639-0.748
		C116.384,97.431,116.208,97.103,116.074,96.756z"/>
	<path fill="#00ADD8" d="M116.886,158.738c-0.287-0.348-0.521-0.736-0.694-1.152c-0.161-0.408-0.278-0.833-0.349-1.266
		l-20.979-2.651H94.75c-0.155,0.384-0.35,0.75-0.58,1.095c-0.232,0.346-0.503,0.635-0.812,0.863l8.807,19.468
		c0.118-0.007,0.235-0.025,0.35-0.054c0.151-0.038,0.307-0.058,0.463-0.058c0.311,0,0.618,0.038,0.928,0.114
		s0.579,0.154,0.811,0.231l10.084-13.825L116.886,158.738z"/>
	<path fill="#00ADD8" d="M121.407,160.294c-0.616,0.076-1.239,0.076-1.854,0c-0.289-0.031-0.568-0.13-0.812-0.288l-12.169,16.705
		c0.232,0.23,0.426,0.518,0.58,0.864c0.144,0.315,0.261,0.643,0.347,0.979h25.963c0.076-0.307,0.191-0.615,0.346-0.923
		c0.156-0.306,0.35-0.614,0.582-0.921l-12.14-16.664C121.982,160.173,121.698,160.256,121.407,160.294z"/>
	<path fill="#00ADD8" d="M154.322,154.937c-0.449,0.527-1.002,0.958-1.623,1.267c-0.617,0.307-1.312,0.463-2.086,0.463h-0.463
		c-0.154,0-0.271-0.039-0.348-0.115l-8.578,18.893l-0.23,0.576v0.116h0.115l23.414-16.937l-10.201-4.378V154.937z"/>
	<path fill="#00ADD8" d="M146.789,154.706c-0.238-0.319-0.434-0.668-0.58-1.037l-21.093,2.651c0,0.461-0.097,0.881-0.289,1.266
		c-0.194,0.384-0.444,0.768-0.755,1.153l12.17,16.589c0.309-0.076,0.6-0.154,0.869-0.23s0.561-0.115,0.869-0.115
		c0.154,0,0.309,0.02,0.465,0.059c0.152,0.038,0.307,0.057,0.461,0.057h0.002l0.232-0.691l8.459-18.777
		C147.309,155.341,147.037,155.033,146.789,154.706z"/>
	<path fill="#00ADD8" d="M163.594,129.936l-9.852,18.55c0.465,0.461,0.85,0.979,1.16,1.554c0.311,0.586,0.471,1.239,0.463,1.902
		c0,0.152-0.02,0.288-0.059,0.403c-0.037,0.115-0.057,0.249-0.057,0.403h-0.002l10.318,4.493l-1.74-27.306H163.594z"/>
	<path fill="#00ADD8" d="M125,14.122C63.762,14.122,14.121,63.764,14.121,125S63.762,235.879,125,235.879
		c61.237,0,110.879-49.643,110.879-110.879S186.236,14.122,125,14.122z M189.498,178.958c-1.352,1.345-2.955,2.017-4.809,2.017
		c-1.932,0-3.555-0.672-4.869-2.016c-1.312-1.346-1.971-2.938-1.971-4.781c0-0.615,0.078-1.229,0.232-1.845
		c0.137-0.573,0.373-1.119,0.695-1.612l-11.938-10.254l-24.455,17.513c0.154,0.308,0.25,0.594,0.289,0.864
		c0.039,0.269,0.059,0.556,0.059,0.863c0,1.306-0.463,2.42-1.391,3.342c-0.928,0.921-2.008,1.382-3.244,1.382
		c-1.16,0-2.166-0.326-3.014-0.979c-0.852-0.653-1.393-1.518-1.623-2.592h-25.963c-0.23,1.074-0.772,1.938-1.623,2.592
		c-0.826,0.645-1.848,0.99-2.896,0.979c-1.313,0-2.435-0.461-3.361-1.382c-0.927-0.922-1.391-2.036-1.391-3.342
		c0-0.308,0.04-0.595,0.116-0.863c0.077-0.269,0.154-0.557,0.231-0.864l-21.44-15.323c-0.404,0.316-0.854,0.569-1.334,0.748
		c-0.502,0.193-1.062,0.289-1.681,0.289c-1.312,0-2.435-0.461-3.36-1.383c-0.927-0.922-1.392-2.035-1.392-3.341
		c0-0.846,0.214-1.612,0.638-2.304c0.409-0.676,0.988-1.232,1.68-1.613l-8.229-25.001h-0.23c-1.314,0-2.436-0.462-3.362-1.382
		c-0.927-0.922-1.391-2.036-1.391-3.342c0-1.306,0.464-2.418,1.391-3.34c0.927-0.924,2.048-1.384,3.362-1.384h0.347l8.112-24.77
		H71.57c-0.619-0.384-1.141-0.921-1.565-1.613c-0.425-0.693-0.646-1.492-0.638-2.304c0-1.306,0.465-2.418,1.392-3.34
		c0.926-0.923,2.048-1.384,3.362-1.384c0.616,0,1.177,0.097,1.679,0.29c0.5,0.19,0.955,0.485,1.334,0.864l21.44-15.439
		c-0.077-0.23-0.154-0.498-0.23-0.806c-0.077-0.302-0.115-0.611-0.115-0.922c0-1.306,0.462-2.419,1.389-3.341
		c0.927-0.922,2.048-1.383,3.362-1.383c1.082,0,2.047,0.346,2.897,1.037c0.849,0.692,1.391,1.536,1.621,2.534h25.963
		c0.23-1.075,0.771-1.939,1.623-2.592c0.85-0.653,1.854-0.979,3.014-0.979c1.236,0,2.316,0.461,3.244,1.383
		c0.928,0.922,1.391,2.035,1.391,3.341c0,0.308-0.02,0.615-0.059,0.922c-0.031,0.288-0.131,0.564-0.289,0.805l21.441,15.439
		c0.393-0.388,0.869-0.684,1.391-0.864c0.521-0.189,1.07-0.286,1.623-0.289c1.312,0,2.434,0.462,3.361,1.382
		c0.926,0.923,1.391,2.036,1.391,3.342c0,0.845-0.213,1.613-0.639,2.304c-0.424,0.692-0.945,1.229-1.562,1.613l8.111,24.885h0.348
		c1.238,0,2.318,0.461,3.246,1.383c0.928,0.921,1.391,2.036,1.391,3.341c0,1.307-0.463,2.42-1.391,3.342s-2.008,1.382-3.246,1.382
		h-0.348l-9.271,28.457l12.055,10.368c0.596-0.523,1.283-0.934,2.027-1.209c0.762-0.273,1.566-0.41,2.377-0.403
		c1.854,0,3.457,0.653,4.809,1.958c1.354,1.307,2.029,2.919,2.029,4.838C191.527,176.021,190.852,177.613,189.498,178.958z"/>
	<path fill="#00ADD8" d="M173.969,128.207c-0.359-0.48-0.615-1.029-0.754-1.612h-4.057c-0.143,0.744-0.506,1.427-1.045,1.958
		c-0.539,0.537-1.197,0.961-1.969,1.269l1.508,23.156l7.648-23.618C174.781,129.071,174.328,128.68,173.969,128.207z"/>
	<path fill="#00ADD8" d="M85.709,152.345v-0.403c0-0.693,0.135-1.344,0.405-1.959c0.26-0.602,0.682-1.119,1.217-1.497l-9.736-18.435
		h-0.231l-1.738,24.54c0.465,0.154,0.87,0.346,1.217,0.576c0.348,0.231,0.677,0.538,0.985,0.921l7.997-3.34
		C85.755,152.623,85.716,152.486,85.709,152.345z"/>
	<path fill="#00ADD8" d="M73.077,128.61c-0.539-0.571-0.936-1.263-1.159-2.016h-4.173c-0.141,0.583-0.396,1.132-0.755,1.612
		c-0.346,0.461-0.79,0.846-1.332,1.152l7.766,23.618l1.624-23.042h-0.116C74.229,129.624,73.599,129.174,73.077,128.61z"/>
	<path fill="#00ADD8" d="M77.595,120.834l9.736-18.434c-0.535-0.378-0.957-0.896-1.217-1.498c-0.263-0.58-0.4-1.207-0.405-1.843
		v-0.461c0-0.153,0.038-0.307,0.115-0.461l-7.997-3.34v0.001c-0.262,0.335-0.574,0.626-0.927,0.863
		c-0.393,0.272-0.821,0.486-1.275,0.635l1.738,24.539H77.595z"/>
	<path fill="#00ADD8" d="M78.872,91.802v0.461c0,0.153-0.039,0.27-0.116,0.346l7.997,3.456c0.386-0.537,0.908-0.979,1.563-1.325
		c0.662-0.347,1.398-0.525,2.145-0.518h0.406c0.115,0,0.251,0.038,0.405,0.116l8.809-19.471c-0.076,0-0.115-0.02-0.115-0.058v-0.058
		v0L78.524,90.189c0.076,0.231,0.154,0.48,0.23,0.749C78.833,91.207,78.872,91.495,78.872,91.802z"/>
	<path fill="#00ADD8" d="M65.774,121.41c0.488,0.331,0.92,0.739,1.275,1.21c0.386,0.499,0.618,1.055,0.695,1.67h4.173v0.001
		c0.223-0.754,0.619-1.445,1.158-2.018c0.551-0.582,1.224-1.034,1.972-1.324l-1.624-23.042L65.774,121.41z"/>
	<path fill="#00ADD8" d="M94.17,96.122c0.231,0.346,0.424,0.709,0.578,1.094l21.094-2.764c0.079-0.462,0.193-0.884,0.35-1.269
		c0.157-0.389,0.395-0.742,0.694-1.036l-12.17-16.59c-0.231,0.077-0.501,0.154-0.811,0.231c-0.303,0.076-0.614,0.115-0.928,0.115
		v-0.001c-0.156,0-0.312-0.02-0.463-0.058c-0.114-0.031-0.23-0.05-0.348-0.057l-8.809,19.47
		C93.667,95.488,93.938,95.776,94.17,96.122z"/>
	<path fill="#00ADD8" d="M90.809,156.664h-0.464c-0.773,0-1.468-0.173-2.086-0.518c-0.615-0.344-1.165-0.792-1.624-1.325
		l-7.837,3.437c0.048,0.121,0.073,0.243,0.073,0.365v0.461c0,0.308-0.039,0.614-0.116,0.922c-0.077,0.307-0.155,0.576-0.231,0.807
		l21.441,15.321l0.115-0.114l-8.809-19.471C91.118,156.627,90.963,156.664,90.809,156.664z"/>
</g>
<path opacity="0.4" fill="#FFFFFF" enable-background="new    " d="M46.596,46.598c-43.3,43.304-43.301,113.513,0,156.816
	c83.813-20.631,62.767-148.31,156.806-156.816C160.102,3.294,89.898,3.294,46.596,46.598z"/>
</svg>
