<?xml version="1.0" encoding="utf-8"?>
<!-- Generator: Adobe Illustrator 16.0.0, SVG Export Plug-In . SVG Version: 6.00 Build 0)  -->
<!DOCTYPE svg PUBLIC "-//W3C//DTD SVG 1.1//EN" "http://www.w3.org/Graphics/SVG/1.1/DTD/svg11.dtd">
<svg version="1.1" id="Capa_1" xmlns="http://www.w3.org/2000/svg" xmlns:xlink="http://www.w3.org/1999/xlink" x="0px" y="0px"
	 width="250px" height="250px" viewBox="0 0 250 250" enable-background="new 0 0 250 250" xml:space="preserve">
<circle opacity="0.8" fill="#141937" enable-background="new    " cx="125" cy="125" r="125"/>
<g>
	<path fill="#9BE7D8" d="M141.923,83.222c-8.303,0-15.032,6.728-15.032,15.03c0,8.3,6.729,15.029,15.032,15.029
		c8.298,0,15.028-6.729,15.028-15.029C156.952,89.95,150.222,83.222,141.923,83.222z M98.135,145.926
		c-0.027,0.038-0.056,0.07-0.082,0.107c-6.673,9.033-7.978,19.392-2.909,23.134c5.066,3.741,14.58-0.546,21.256-9.582
		c0.048-0.064,0.089-0.131,0.137-0.197c-3.491-2.454-7.277-5.406-10.442-7.704C103.691,149.944,100.832,147.941,98.135,145.926z"/>
	<path fill="#9BE7D8" d="M125,14.121C63.764,14.121,14.121,63.764,14.121,125c0,34.069,15.372,64.546,39.551,84.886l15.229-21.387
		c0.69-1.004,2.064-1.259,3.069-0.569c1.005,0.691,1.259,2.065,0.569,3.07c-0.014,0.021-0.029,0.041-0.044,0.062l-15.383,21.604
		c1.513,1.175,3.059,2.306,4.631,3.402c0.068-0.207,0.165-0.403,0.289-0.583l12.146-16.933c0.736-0.974,2.122-1.166,3.095-0.431
		c0.939,0.711,1.157,2.032,0.494,3.006l-12.146,16.932c-0.1,0.139-0.216,0.265-0.346,0.374
		c17.239,11.043,37.734,17.445,59.725,17.445c61.236,0,110.878-49.642,110.878-110.878S186.236,14.121,125,14.121z M164.067,123.284
		c-6.994,8.462-13.805,16.807-13.805,16.807s5.987,9.521,3.546,22.981c-2.438,13.456-10.17,22.567-10.17,22.567
		s-0.644-7.914-2.395-12.331c-1.747-4.419-8.648-13.16-8.648-13.16s-3.127,3.805-6.746,3.989c-1.369,0.067-3.567-0.999-6.134-2.617
		c-0.304,0.459-0.617,0.915-0.938,1.367c-10.075,14.234-24.11,21.62-31.348,16.5c-7.237-5.126-4.938-20.815,5.139-35.05
		c0.426-0.604,0.86-1.188,1.302-1.765c-2.826-2.382-4.878-4.568-5.014-6.104c-0.307-3.497,1.287-5.887,1.287-5.887
		s-6.747-2.821-13.496-3.007c-6.747-0.187-13.804,1.839-13.804,1.839s6.504-11.043,17.117-16.931
		c10.613-5.89,24.048-5.645,24.048-5.645s6.133-10.612,9.08-15.581c2.944-4.971,8.896-15.768,24.6-24.231
		c15.703-8.465,34.477-7.177,34.477-7.177s5.029,14.23,5.029,28.955C177.194,103.527,171.06,114.815,164.067,123.284z"/>
</g>
<path opacity="0.4" fill="#FFFFFF" enable-background="new    " d="M46.596,46.598c-43.3,43.304-43.301,113.513,0,156.816
	c83.813-20.631,62.767-148.31,156.806-156.816C160.102,3.294,89.898,3.294,46.596,46.598z"/>
</svg>
