<?xml version="1.0" encoding="utf-8"?>
<!-- Generator: Adobe Illustrator 16.0.0, SVG Export Plug-In . SVG Version: 6.00 Build 0)  -->
<!DOCTYPE svg PUBLIC "-//W3C//DTD SVG 1.1//EN" "http://www.w3.org/Graphics/SVG/1.1/DTD/svg11.dtd">
<svg version="1.1" id="Capa_1" xmlns="http://www.w3.org/2000/svg" xmlns:xlink="http://www.w3.org/1999/xlink" x="0px" y="0px"
	 width="250px" height="250px" viewBox="0 0 250 250" enable-background="new 0 0 250 250" xml:space="preserve">
<circle opacity="0.8" fill="#141937" enable-background="new    " cx="125" cy="125" r="125"/>
<path fill="#BB80D1" d="M125,14.122C63.762,14.122,14.121,63.764,14.121,125S63.762,235.879,125,235.879
	c61.237,0,110.879-49.643,110.879-110.879S186.236,14.122,125,14.122z M134.833,205.814c0.129,0-8.258,12.386-20.257,1.289
	l-6.064-12.127L45.42,67.503c0,0-1.418-4.257,1.419-4.902c9.29-0.258,17.805-0.258,26.321-0.387c0,0,1.032,0,1.807,1.935
	c0.109,0.272,1.189,2.479,2.967,6.069l-0.129-0.52l45.393,90.913l0.153,0.175l0.182,0.756c1.363,2.723,2.139,4.276,2.139,4.276
	s11.096,10.322,19.869-0.128c6.969-13.678,33.288-66.446,51.223-102.573c0,0,3.354-1.936,6.192-0.774
	c2.838,1.161,1.548,3.483,1.548,3.483L134.833,205.814z"/>
<path opacity="0.4" fill="#FFFFFF" enable-background="new    " d="M46.596,46.598c-43.3,43.304-43.301,113.513,0,156.816
	c83.813-20.631,62.767-148.31,156.806-156.816C160.102,3.294,89.898,3.294,46.596,46.598z"/>
</svg>
