<?xml version="1.0" encoding="utf-8"?>
<!-- Generator: Adobe Illustrator 16.0.0, SVG Export Plug-In . SVG Version: 6.00 Build 0)  -->
<!DOCTYPE svg PUBLIC "-//W3C//DTD SVG 1.1//EN" "http://www.w3.org/Graphics/SVG/1.1/DTD/svg11.dtd">
<svg version="1.1" id="Capa_1" xmlns="http://www.w3.org/2000/svg" xmlns:xlink="http://www.w3.org/1999/xlink" x="0px" y="0px"
	 width="250px" height="250px" viewBox="0 0 250 250" enable-background="new 0 0 250 250" xml:space="preserve">
<ellipse opacity="0.8" fill="#141937" enable-background="new    " cx="125" cy="125.002" rx="125" ry="125.006"/>
<path fill="#35A536" d="M125.001,14.107c-61.239,0-110.88,49.645-110.88,110.881c0,61.237,49.641,110.881,110.88,110.881
	c61.235,0,110.881-49.645,110.881-110.881C235.882,63.752,186.236,14.107,125.001,14.107z M69.695,127.457l7.043-8.2l6.068,8.2
	H69.695z M84.447,127.457h-0.009l-6.826-9.224l0.013-0.013l0.022,0.03l27.872,0.021l16.146,21.499l-13.414,19.825L84.447,127.457z
	 M126.117,173.551c-0.271,0.422-0.605,0.779-0.979,1.074c-0.16,0.262-0.25,0.406-0.25,0.406c-2.031,1.381-4.778,0.824-6.134-1.25
	l-9.676-13.066l13.423-19.836l44.396-64.505c0,0,2.838,2.014,7.797,8.779c4.966,6.765,5.822,9.894,5.822,9.894L126.117,173.551z"/>
<path opacity="0.4" fill="#FFFFFF" enable-background="new    " d="M46.596,46.598c-43.3,43.304-43.301,113.513,0,156.816
	c83.813-20.631,62.767-148.31,156.806-156.816C160.102,3.294,89.898,3.294,46.596,46.598z"/>
</svg>
