<?xml version="1.0" encoding="utf-8"?>
<!-- Generator: Adobe Illustrator 16.0.0, SVG Export Plug-In . SVG Version: 6.00 Build 0)  -->
<!DOCTYPE svg PUBLIC "-//W3C//DTD SVG 1.1//EN" "http://www.w3.org/Graphics/SVG/1.1/DTD/svg11.dtd">
<svg version="1.1" id="Capa_1" xmlns="http://www.w3.org/2000/svg" xmlns:xlink="http://www.w3.org/1999/xlink" x="0px" y="0px"
	 width="250px" height="250px" viewBox="0 0 250 250" enable-background="new 0 0 250 250" xml:space="preserve">
<circle opacity="0.8" fill="#141937" enable-background="new    " cx="125" cy="125" r="125"/>
<path fill="#FFD700" d="M124.999,14.121C63.763,14.121,14.121,63.763,14.121,125c0,61.237,49.642,110.879,110.878,110.879
	S235.878,186.236,235.878,125C235.878,63.763,186.235,14.121,124.999,14.121z M69.054,121.31c-0.385-1.553-0.739-3.114-1.062-4.682
	c-1.424-6.958-2.25-14.025-2.465-21.125c-0.013-0.438,0.027-0.527,0.169-0.771c0.064-0.114,0.122-0.213,0.963-0.66
	c17.888-9.526,38.06-14.561,58.33-14.561c4.366,0,8.788,0.24,13.201,0.717c-10.892,6.31-17.677,17.901-17.677,30.892l0.001,0.072
	c-0.041,9.437-4.904,17.971-13.038,22.852c-4.146,2.473-8.883,3.777-13.71,3.777C83.087,137.822,73.173,131.191,69.054,121.31z
	 M146.256,181.373c-1.161,1.119-2.346,2.217-3.551,3.289c-4.93,4.369-10.2,8.34-15.761,11.873c-0.531,0.336-0.794,0.443-1.873,0.443
	c-1.192,0-1.531-0.135-2.021-0.447c-20.437-12.971-36.917-32.156-46.856-54.418c5.361,3.039,11.439,4.674,17.572,4.674
	c6.067,0,12.059-1.549,17.312-4.471c0.356-0.191,0.713-0.398,0.982-0.566c3.916-2.182,8.39-3.334,12.939-3.334
	c4.524,0,8.997,1.152,12.846,3.281l0.246,0.143c0.202,0.113,0.406,0.23,0.629,0.367c8.031,4.809,13.02,13.605,13.02,22.959
	C151.739,170.971,149.793,176.723,146.256,181.373z M160.704,164.807c-0.126-12.354-6.751-23.932-17.344-30.273
	c-0.278-0.17-0.562-0.332-0.849-0.488l-0.116-0.072c-8.082-4.893-12.909-13.447-12.912-22.884v-0.342
	c0.178-14.596,12.105-26.415,26.74-26.415c1.351,0,2.726,0.106,4.092,0.315c1.52,0.449,3.014,0.921,4.441,1.403
	c6.402,2.163,12.617,4.846,18.582,8.022c0.843,0.448,0.901,0.551,0.965,0.659c0.144,0.25,0.179,0.326,0.166,0.764
	C183.723,120.257,175.323,144.662,160.704,164.807z"/>
<path opacity="0.4" fill="#FFFFFF" enable-background="new    " d="M46.596,46.598c-43.3,43.304-43.301,113.513,0,156.816
	c83.813-20.631,62.767-148.31,156.806-156.816C160.102,3.294,89.898,3.294,46.596,46.598z"/>
</svg>
