<?xml version="1.0" encoding="utf-8"?>
<!-- Generator: Adobe Illustrator 16.0.0, SVG Export Plug-In . SVG Version: 6.00 Build 0)  -->
<!DOCTYPE svg PUBLIC "-//W3C//DTD SVG 1.1//EN" "http://www.w3.org/Graphics/SVG/1.1/DTD/svg11.dtd">
<svg version="1.1" id="Capa_1" xmlns="http://www.w3.org/2000/svg" xmlns:xlink="http://www.w3.org/1999/xlink" x="0px" y="0px"
	 width="250px" height="250px" viewBox="0 0 250 250" enable-background="new 0 0 250 250" xml:space="preserve">
<ellipse opacity="0.8" fill="#141937" enable-background="new    " cx="125" cy="125.001" rx="125" ry="125.006"/>
<path fill="#3274B9" d="M124.957,14.121c-61.216,0-110.836,49.636-110.836,110.882c0,61.235,49.621,110.875,110.836,110.875
	c61.214,0,110.843-49.642,110.843-110.875C235.8,63.757,186.171,14.121,124.957,14.121L124.957,14.121z M172.072,91.907
	c-0.836,4.497-5.889,8.415-9.244,12.351c-10.643,12.62-21.297,24.959-32.223,37.588c-4.205,5.041-8.402,9.531-13.167,14.58h54.634
	v27.488H138.45c0.558,7.855,0.839,15.145,1.401,22.998h-28.293v-22.719H77.94c0-8.979-1.128-17.949,0.557-26.366
	c0.837-4.487,5.888-8.411,8.967-12.341c10.645-12.621,21.291-24.968,32.213-37.588c4.203-4.765,8.409-9.248,13.169-14.588H80.462
	V65.825h31.097V42.827h27.166v22.436h33.905C172.63,74.519,173.757,83.496,172.072,91.907L172.072,91.907z"/>
<path opacity="0.4" fill="#FFFFFF" enable-background="new    " d="M46.596,46.598c-43.3,43.304-43.301,113.513,0,156.816
	c83.813-20.631,62.767-148.31,156.806-156.816C160.102,3.294,89.898,3.294,46.596,46.598z"/>
</svg>
