<?xml version="1.0" encoding="utf-8"?>
<!-- Generator: Adobe Illustrator 16.0.0, SVG Export Plug-In . SVG Version: 6.00 Build 0)  -->
<!DOCTYPE svg PUBLIC "-//W3C//DTD SVG 1.1//EN" "http://www.w3.org/Graphics/SVG/1.1/DTD/svg11.dtd">
<svg version="1.1" id="Capa_1" xmlns="http://www.w3.org/2000/svg" xmlns:xlink="http://www.w3.org/1999/xlink" x="0px" y="0px"
	 width="250px" height="250px" viewBox="0 0 250 250" enable-background="new 0 0 250 250" xml:space="preserve">
<circle opacity="0.8" fill="#141937" enable-background="new    " cx="125" cy="125" r="125"/>
<g>
	<path fill="#F4B20C" d="M146.805,133.635c-2.556-1.281-8.248-3.005-15.022-3.455c-6.781-0.447-15.476,0-15.476,0v29.354
		c0,0,9.08,0.189,15.157-0.258c6.072-0.445,12.339-1.98,15.475-3.709c3.131-1.728,6.905-4.41,6.905-11.127
		C153.842,137.725,149.361,134.912,146.805,133.635z M127.688,116.557c4.989-0.191,10.295-1.341,14.129-3.454
		c3.839-2.108,6.015-5.432,5.888-10.42c-0.134-4.99-3.453-9.207-9.077-10.937c-5.631-1.727-9.4-1.853-13.688-1.918
		c-4.284-0.062-8.633,0.321-8.633,0.321v26.407C116.305,116.557,122.701,116.752,127.688,116.557L127.688,116.557z"/>
	<path fill="#F4B20C" d="M124.999,14.12c-61.235,0-110.878,49.642-110.878,110.879c0,61.237,49.643,110.881,110.878,110.881
		c61.237,0,110.88-49.644,110.88-110.881C235.879,63.762,186.236,14.12,124.999,14.12z M170.146,167.396
		c-8.252,5.756-17.074,6.775-20.975,7.287c-1.928,0.254-5.227,0.521-8.76,0.729v22.23h-13.688v-21.871h-10.424v21.871H102.62
		v-21.871H75.701l2.812-16.437h8.184c2.75,0,3.902-0.257,5.052-1.341c1.15-1.09,1.406-2.751,1.406-4.098V97.278
		c0-3.549-0.288-4.508-1.919-6.33c-1.632-1.826-5.467-2.063-7.625-2.063H75.7V74.676h26.921V52.742h13.683v21.934h10.422V52.742
		h13.687v22.197c10.203,0.635,17.794,2.575,24.426,7.472c8.565,6.334,8.119,17.331,7.931,19.951
		c-0.192,2.625-1.343,7.675-3.646,10.938c-2.301,3.258-7.926,6.52-7.926,6.52s6.646,1.406,11.316,4.924
		c4.664,3.518,8.122,9.719,7.928,18.801C180.247,152.626,178.395,161.645,170.146,167.396z"/>
</g>
<path opacity="0.4" fill="#FFFFFF" enable-background="new    " d="M46.596,46.598c-43.3,43.304-43.301,113.513,0,156.816
	c83.813-20.631,62.767-148.31,156.806-156.816C160.102,3.294,89.898,3.294,46.596,46.598z"/>
</svg>
