<?xml version="1.0" encoding="utf-8"?>
<!-- Generator: Adobe Illustrator 16.0.0, SVG Export Plug-In . SVG Version: 6.00 Build 0)  -->
<!DOCTYPE svg PUBLIC "-//W3C//DTD SVG 1.1//EN" "http://www.w3.org/Graphics/SVG/1.1/DTD/svg11.dtd">
<svg version="1.1" id="Capa_1" xmlns="http://www.w3.org/2000/svg" xmlns:xlink="http://www.w3.org/1999/xlink" x="0px" y="0px"
	 width="250px" height="250px" viewBox="0 0 250 250" enable-background="new 0 0 250 250" xml:space="preserve">
<circle opacity="0.8" fill="#141937" enable-background="new    " cx="125" cy="125" r="125"/>
<path fill="#3CD52E" d="M125,14.12C63.763,14.12,14.121,63.763,14.121,125c0,61.236,49.643,110.879,110.879,110.879
	c61.238,0,110.88-49.643,110.88-110.879C235.88,63.763,186.237,14.12,125,14.12z M115.317,187.033l-41.605-19.681V92.124
	l41.605,19.727V187.033z M116.375,104.188L75.429,84.774l60.23-21.809l40.946,19.415L116.375,104.188z M177.266,165.891
	l-42.663-20.213V105.45l42.663-15.447V165.891z"/>
<path opacity="0.4" fill="#FFFFFF" enable-background="new    " d="M46.596,46.598c-43.3,43.304-43.301,113.513,0,156.816
	c83.813-20.631,62.767-148.31,156.806-156.816C160.102,3.294,89.898,3.294,46.596,46.598z"/>
</svg>
