<?xml version="1.0" encoding="utf-8"?>
<!-- Generator: Adobe Illustrator 16.0.0, SVG Export Plug-In . SVG Version: 6.00 Build 0)  -->
<!DOCTYPE svg PUBLIC "-//W3C//DTD SVG 1.1//EN" "http://www.w3.org/Graphics/SVG/1.1/DTD/svg11.dtd">
<svg version="1.1" id="Capa_1" xmlns="http://www.w3.org/2000/svg" xmlns:xlink="http://www.w3.org/1999/xlink" x="0px" y="0px"
	 width="250px" height="250px" viewBox="0 0 250 250" enable-background="new 0 0 250 250" xml:space="preserve">
<circle opacity="0.8" fill="#141937" enable-background="new    " cx="125" cy="125" r="125"/>
<g>
	<path fill="#00AE8D" d="M138.631,112.229v16.604c-9.456,0.472-18.931,0.451-28.385-0.062v-13.256h-0.003v-3.234
		c-26.087,1.256-45.398,5.767-45.398,11.14c0,6.348,26.932,11.489,60.156,11.489c33.222,0,60.155-5.141,60.155-11.489
		C185.155,117.967,165.285,113.407,138.631,112.229z"/>
	<path fill="#00AE8D" d="M125,14.121c-61.236,0-110.879,49.641-110.879,110.878c0,61.233,49.644,110.88,110.879,110.88
		c61.234,0,110.878-49.646,110.878-110.88C235.878,63.761,186.233,14.121,125,14.121L125,14.121z M138.629,143.824v48.908h-28.387
		v-48.976c-30.386-1.758-53.118-8.826-53.118-17.282c0-8.455,22.732-15.522,53.118-17.283V95.486H71.599V67.102h105.679v28.385
		h-38.648l0.002,13.64c30.953,1.646,54.245,8.79,54.245,17.349C192.875,135.035,169.584,142.179,138.629,143.824z"/>
</g>
<path opacity="0.4" fill="#FFFFFF" enable-background="new    " d="M46.596,46.598c-43.3,43.304-43.301,113.513,0,156.816
	c83.813-20.631,62.767-148.31,156.806-156.816C160.102,3.294,89.898,3.294,46.596,46.598z"/>
</svg>
