<?xml version="1.0" encoding="utf-8"?>
<!-- Generator: Adobe Illustrator 16.0.0, SVG Export Plug-In . SVG Version: 6.00 Build 0)  -->
<!DOCTYPE svg PUBLIC "-//W3C//DTD SVG 1.1//EN" "http://www.w3.org/Graphics/SVG/1.1/DTD/svg11.dtd">
<svg version="1.1" id="Capa_1" xmlns="http://www.w3.org/2000/svg" xmlns:xlink="http://www.w3.org/1999/xlink" x="0px" y="0px"
	 width="250px" height="250px" viewBox="0 0 250 250" enable-background="new 0 0 250 250" xml:space="preserve">
<circle opacity="0.8" fill="#141937" enable-background="new    " cx="125" cy="125.34" r="125"/>
<g>
	<path fill="#FFAB4C" d="M211.902,194.216H172.84c21.492-15.065,35.543-40.008,35.543-68.229c0-28.22-14.051-53.162-35.543-68.228
		h40.07c-20.273-26.329-52.109-43.298-87.909-43.298c-35.803,0-67.639,16.968-87.912,43.298h40.073
		c-21.494,15.066-35.544,40.01-35.544,68.228c0,28.221,14.05,53.163,35.544,68.229H38.098c20.312,25.594,51.69,42.008,86.903,42.008
		C160.213,236.224,191.592,219.81,211.902,194.216z M58.825,142.582c-9.34-36.509,12.719-73.666,49.268-82.994
		c36.548-9.329,73.746,12.705,83.083,49.214c9.34,36.507-12.719,73.666-49.268,82.994
		C105.361,201.123,68.163,179.089,58.825,142.582z"/>
	<path fill="#FFAB4C" d="M160.914,128.302c-1.266-5.443-4.275-8.614-7.598-10.001c-3.32-1.386-7.506-1.211-7.506-1.211
		s2.861-2.803,3.738-5.097c0.877-2.295,0.793-5.48,0.508-7.073c-0.287-1.592-1.695-8.217-7.775-10.686
		c-4.703-1.91-9.531-1.912-15.717-0.735l-3.384-13.232l-8.168,2.085l3.343,13.075l-6.22,1.588l-3.345-13.075l-8.167,2.083
		l3.346,13.076L87.903,103.2l2.166,8.47l4.723-1.204c1.288-0.33,3.613-0.771,4.865,0.068c1.251,0.839,1.57,1.366,2.11,3.481
		l8.635,33.756c0.205,0.803,0.306,1.832-0.215,2.656c-0.521,0.822-1.169,1.15-2.811,1.569l-4.885,1.245l0.828,10.229l16.067-4.102
		l3.335,13.038l8.165-2.084l-3.334-13.038l6.219-1.587l3.336,13.037l8.168-2.084l-3.389-13.254c2.078-0.662,4.006-1.322,5.115-1.768
		l0.176-0.069c2.332-0.928,7.287-2.9,11.232-7.473C162.457,139.401,162.188,133.744,160.914,128.302L160.914,128.302z
		 M118.523,121.982l-4.027-15.743c0,0,2.537-0.89,5.104-1.505s4.837-1.114,8.46-0.941c3.621,0.174,6.246,2.182,7.086,5.137
		c0.836,2.954,0.045,5.268-1.924,7.109c-1.967,1.843-4.957,3.335-7.907,4.211C122.369,121.124,118.523,121.982,118.523,121.982
		L118.523,121.982z M142.752,140.572c-1.607,1.507-5.113,3.377-8.668,4.568c-3.559,1.194-9.006,2.462-9.006,2.462l-4.477-17.498
		c0,0,5.122-1.592,9.235-2.357c4.113-0.764,7.773-0.604,9.496-0.229c1.721,0.372,4.82,1.367,5.846,5.371
		C146.201,136.889,144.357,139.065,142.752,140.572z"/>
</g>
<path opacity="0.3" fill="#FFFFFF" enable-background="new    " d="M46.596,46.598c-43.3,43.304-43.301,113.513,0,156.816
	c83.813-20.631,62.767-148.31,156.806-156.816C160.102,3.294,89.898,3.294,46.596,46.598z"/>
</svg>
