<?xml version="1.0" encoding="UTF-8"?>
<svg width="36px" height="36px" viewBox="0 0 36 36" version="1.1" xmlns="http://www.w3.org/2000/svg" xmlns:xlink="http://www.w3.org/1999/xlink">
    <!-- Generator: sketchtool 58 (101010) - https://sketch.com -->
    <title>83D45186-74ED-4E93-B840-100CB6E76CE9</title>
    <desc>Created with sketchtool.</desc>
    <g id="Page-1" stroke="none" stroke-width="1" fill="none" fill-rule="evenodd">
        <g id="CRYPTOSTORE-JHON-version" transform="translate(-346.000000, -955.000000)" fill="#312D5C" fill-rule="nonzero">
            <g id="bitcoin" transform="translate(346.000000, 955.000000)">
                <path d="M17.93386,-6.48562535e-06 C8.03628,-0.00833 0.00833,8.00856 -6.48562535e-06,17.90614 C-0.00833,27.80372 8.00856,35.83167 17.90614,35.84 C27.80239,35.83167 35.82474,27.81625 35.84,17.92 C35.84,8.02795 27.82591,0.00833 17.93386,-6.48562535e-06 Z M17.90614,32.858 C9.65629,32.858 2.96821,26.16985 2.96821,17.92 C2.96821,9.67015 9.65629,2.98207 17.90614,2.98207 C26.15319,2.9904 32.83574,9.67295 32.84407,17.92 C32.84407,26.16985 26.15599,32.858 17.90614,32.858 Z" id="Shape"></path>
                <path d="M22.74678,17.04619 C23.94518,16.37069 24.59289,15.01843 24.36959,13.6619 C24.09218,11.56757 21.59563,10.77692 19.62604,10.61053 L19.62604,7.46207 L17.68424,7.46207 L17.68424,10.58281 L16.38049,10.58281 L16.38049,7.46207 L14.43869,7.46207 L14.43869,10.58281 L10.5273,10.58281 L10.5273,12.59398 L11.98365,12.59398 C12.63556,12.59398 12.95455,12.78816 12.95455,13.31519 L12.95455,21.9562 C12.95455,22.67741 12.59391,22.89938 12.20555,22.89938 L10.72148,22.89938 L10.72148,24.95213 L14.49413,24.95213 L14.49413,28.14224 L16.44979,28.14224 L16.44979,24.95213 L17.75354,24.95213 L17.75354,28.14224 L19.65376,28.14224 L19.65376,24.95213 L20.06984,24.95213 C24.06439,24.95213 25.39593,22.99647 25.39593,20.33346 C25.36401,18.76329 24.27523,17.41236 22.74678,17.04619 Z M16.38042,12.71879 L17.7674,12.71879 C18.7383,12.71879 20.65238,12.88525 20.65238,14.46641 C20.71895,15.49835 19.97135,16.40268 18.94634,16.53302 L16.38042,16.53302 C16.38042,16.53302 16.38042,12.71879 16.38042,12.71879 Z M18.53026,22.70513 L18.53026,22.69127 L16.38042,22.69127 L16.38042,18.53026 L18.87704,18.53026 C19.45958,18.53026 21.651,18.72444 21.651,20.27788 C21.651,21.83132 20.6108,22.70513 18.53026,22.70513 Z" id="Shape"></path>
            </g>
        </g>
    </g>
</svg>