<?xml version="1.0" encoding="utf-8"?>
<!-- Generator: Adobe Illustrator 16.0.0, SVG Export Plug-In . SVG Version: 6.00 Build 0)  -->
<!DOCTYPE svg PUBLIC "-//W3C//DTD SVG 1.1//EN" "http://www.w3.org/Graphics/SVG/1.1/DTD/svg11.dtd">
<svg version="1.1" id="Capa_1" xmlns="http://www.w3.org/2000/svg" xmlns:xlink="http://www.w3.org/1999/xlink" x="0px" y="0px"
	 width="250px" height="250px" viewBox="0 0 250 250" enable-background="new 0 0 250 250" xml:space="preserve">
<circle opacity="0.8" fill="#141937" enable-background="new    " cx="125" cy="125" r="125"/>
<g>
	<path fill="#0098CE" d="M167.048,82.742c-11.457,0-20.744,9.295-20.744,20.762c0,11.468,9.289,20.763,20.744,20.763
		c11.447-0.021,20.725-9.305,20.742-20.763C187.79,92.037,178.507,82.742,167.048,82.742z M103.502,124.256
		c11.457,0,20.743-9.296,20.743-20.763h0.012c-0.02-11.463-9.303-20.747-20.755-20.762c-11.456,0-20.744,9.295-20.744,20.762
		S92.046,124.256,103.502,124.256z M103.502,146.271c-11.456,0-20.744,9.295-20.744,20.762c0,11.465,9.288,20.761,20.744,20.761
		c11.448-0.019,20.726-9.304,20.743-20.761C124.245,155.565,114.959,146.271,103.502,146.271z"/>
	<path fill="#0098CE" d="M124.999,14.121C63.763,14.121,14.121,63.764,14.121,125s49.643,110.879,110.878,110.879
		c61.238,0,110.879-49.643,110.879-110.879S186.237,14.121,124.999,14.121z M74.309,97.586
		c2.817-13.897,15.028-23.882,29.193-23.874h29.747v9.01h-8.436c9.883,10.158,11.24,25.88,3.252,37.59
		c-7.986,11.708-23.115,16.161-36.164,10.646C78.851,125.439,71.493,111.479,74.309,97.586z M103.504,196.803
		c-16.433,0-29.756-13.333-29.756-29.78c0-16.449,13.321-29.78,29.754-29.78h0.002c16.433,0,29.755,13.331,29.755,29.78
		C133.259,183.47,119.937,196.803,103.504,196.803z M167.048,133.274c-16.432,0-29.756-13.332-29.756-29.779
		s13.324-29.783,29.756-29.783c16.434,0,29.754,13.334,29.754,29.781C196.802,119.941,183.481,133.274,167.048,133.274z"/>
</g>
<path opacity="0.4" fill="#FFFFFF" enable-background="new    " d="M46.596,46.598c-43.3,43.304-43.301,113.513,0,156.816
	c83.813-20.631,62.767-148.31,156.806-156.816C160.102,3.294,89.898,3.294,46.596,46.598z"/>
</svg>
