<?xml version="1.0" encoding="utf-8"?>
<!-- Generator: Adobe Illustrator 16.0.0, SVG Export Plug-In . SVG Version: 6.00 Build 0)  -->
<!DOCTYPE svg PUBLIC "-//W3C//DTD SVG 1.1//EN" "http://www.w3.org/Graphics/SVG/1.1/DTD/svg11.dtd">
<svg version="1.1" id="Capa_1" xmlns="http://www.w3.org/2000/svg" xmlns:xlink="http://www.w3.org/1999/xlink" x="0px" y="0px"
	 width="250px" height="250px" viewBox="0 0 250 250" enable-background="new 0 0 250 250" xml:space="preserve">
<circle opacity="0.8" fill="#141937" enable-background="new    " cx="125" cy="125" r="125"/>
<g>
	<path fill="#A0A1A2" d="M123.545,123.583c-0.945-1.163-1.927-2.363-2.908-3.49c-4.98-6.034-9.961-11.996-14.941-17.995
		c-9.634-11.56-19.522-23.484-29.338-35.335c0.437,1.271,0.945,2.617,1.418,3.926c12.324,34.317,24.648,68.564,36.972,102.845
		l3.89,10.797c0.509,1.49,1.055,3.018,1.6,4.471c0.183,0.51,0.4,1.055,0.582,1.6c0.327-3.053,0.618-6.107,0.945-9.088
		c0.764-7.199,1.563-14.615,2.218-21.957l0.036-0.256c0,0,0.582-5.016,0.836-7.234c0.182-1.6,0.4-3.234,0.509-4.871v-0.035
		c0.292-2.582,0.545-5.127,0.799-7.672c0.4-3.635,0.764-7.416,1.201-11.16C126.018,126.637,124.782,125.073,123.545,123.583z"/>
	<path fill="#A0A1A2" d="M136.123,129.072c-0.545,0.326-1.09,0.545-1.635,0.799c-0.473,0.182-0.908,0.4-1.309,0.619
		c-0.219,3.234-0.582,6.471-0.945,9.598l-0.109,0.871c-0.436,4.908-0.982,9.926-1.49,14.76c-0.328,3.018-0.654,6.18-0.982,9.271
		c-0.363,3.854-0.799,7.779-1.199,11.596c-0.473,4.291-0.908,8.689-1.271,13.051c2.908-4.326,5.889-8.652,8.797-12.869
		c2.58-3.781,5.307-7.707,7.926-11.561c6.652-9.633,13.342-19.412,19.848-28.9c7.562-11.088,15.379-22.467,23.158-33.737
		c-8.543,4.472-17.16,8.979-25.557,13.342C152.92,120.274,144.521,124.673,136.123,129.072z"/>
	<path fill="#A0A1A2" d="M85.592,68.325l0.036,0.037c4.653,5.598,9.343,11.232,13.996,16.831
		c10.252,12.324,20.831,25.084,31.192,37.663c5.344-5.708,10.725-11.488,15.922-17.123c6.836-7.344,13.889-14.941,20.904-22.431
		c-21.086-5.125-42.208-10.251-63.292-15.377c-3.744-0.945-7.562-1.854-11.233-2.727c-4.18-0.981-8.434-2-12.65-3.091
		c0.69,0.837,1.381,1.637,2.036,2.473C83.52,65.817,84.538,67.125,85.592,68.325z"/>
	<path fill="#A0A1A2" d="M125,14.122C63.762,14.122,14.121,63.763,14.121,125c0,61.236,49.642,110.878,110.879,110.878
		c61.237,0,110.879-49.643,110.879-110.878C235.879,63.763,186.236,14.122,125,14.122z M199.816,97.444v0.437l-0.256,0.364
		c-4.834,6.943-9.705,14.068-14.432,20.976c-2.873,4.181-5.744,8.397-8.615,12.579c-7.018,10.215-14.033,20.467-21.049,30.682
		l-28.793,41.988c-0.691,1.236-2.072,2-3.635,2h-0.363c-1.673-0.145-3.018-1.09-3.49-2.545
		c-7.671-21.375-15.523-43.152-23.085-64.164c-9.815-27.301-19.994-55.512-29.919-83.323l-0.072-0.254V54.51l0.108-0.291
		c0.182-0.473,0.546-1.309,1.236-1.963l0.437-0.363c0.399-0.255,0.836-0.437,1.345-0.509c1.745-0.219,3.381,0.218,4.799,0.618
		c0.437,0.108,0.836,0.218,1.235,0.327c15.705,3.817,31.374,7.634,47.079,11.451c17.304,4.217,35.189,8.579,52.785,12.833
		l0.074,0.036c1.018,0.327,1.854,0.909,2.58,1.454c0.182,0.109,0.328,0.219,0.473,0.327c6.58,4.653,13.305,9.343,19.596,13.742
		C199.961,93.554,199.926,96.172,199.816,97.444z"/>
	<path fill="#A0A1A2" d="M174.041,85.52c-0.4,0.473-0.836,0.873-1.236,1.272c-0.582,0.582-1.127,1.127-1.562,1.709l-0.109,0.108
		c-5.162,5.526-10.434,11.161-15.486,16.614c-4.035,4.326-8.107,8.688-12.143,13.015c6.943-3.6,13.85-7.234,20.613-10.761
		c7.742-4.071,15.74-8.253,23.738-12.324c-1.963-1.345-3.891-2.69-5.781-4.035C179.457,89.265,176.73,87.375,174.041,85.52z"/>
</g>
<path opacity="0.4" fill="#FFFFFF" enable-background="new    " d="M46.596,46.598c-43.3,43.304-43.301,113.513,0,156.816
	c83.813-20.631,62.767-148.31,156.806-156.816C160.102,3.294,89.898,3.294,46.596,46.598z"/>
</svg>
