<?xml version="1.0" encoding="UTF-8"?>
<svg width="754px" height="172px" viewBox="0 0 754 172" version="1.1" xmlns="http://www.w3.org/2000/svg" xmlns:xlink="http://www.w3.org/1999/xlink">
    <!-- Generator: sketchtool 58 (101010) - https://sketch.com -->
    <title>229FA97D-28E7-4FC2-AF44-DB29608C6ADC</title>
    <desc>Created with sketchtool.</desc>
    <defs>
        <polygon id="path-1" points="0 172 753.988803 172 753.988803 0.0450765057 0 0.0450765057"></polygon>
    </defs>
    <g id="Page-1" stroke="none" stroke-width="1" fill="none" fill-rule="evenodd">
        <g id="CRYPTOSTORE-JHON-version" transform="translate(-35.000000, -31.000000)">
            <g id="Group-26" transform="translate(35.000000, 31.000000)">
                <polygon id="Fill-1" fill="#E20E17" points="0 146 754 146 754 1 0 1"></polygon>
                <polygon id="Fill-2" fill="#ECECEB" points="0 172 132 172 132 0 0 0"></polygon>
                <polygon id="Fill-3" fill="#312D5C" points="722.287636 121 729 121 729 111 716 111"></polygon>
                <g id="Group-25">
                    <path d="M667.336251,100.156263 L680.266871,122.058125 L666.214255,122.058125 L648.576478,90.8446511 L658.800684,90.8446511 C663.714514,90.8446511 667.422932,87.9119718 667.422932,83.0834661 C667.422932,78.2548671 663.714514,75.3223744 658.800684,75.3223744 L639.806247,75.3223744 L633.714999,64.5433966 L660.611086,64.5433966 C672.594097,64.5433966 679.923134,72.390255 679.923134,83.0834661 C679.923134,93.2590906 673.544692,98.6918828 667.336251,100.156263 L667.336251,100.156263 Z M717.471606,122.058125 L689.142723,122.058125 L689.142723,87.4801519 L729.230498,87.4801519 L729.230498,98.2600629 L701.384189,98.2600629 L701.384189,111.278307 L711.095123,111.278307 L717.471606,122.058125 Z M689.142723,75.3223744 L729.834557,75.3223744 L729.834557,64.5433966 L689.142723,64.5433966 L689.142723,75.3223744 Z M524.332561,104.641048 C524.332561,115.158433 516.831189,123.091991 501.313868,123.091991 C490.279585,123.091991 482.347236,119.385639 477.003736,113.95322 L483.640914,104.641048 C487.694935,108.865081 493.986884,112.399993 501.917086,112.399993 C508.641598,112.399993 511.917267,109.296061 511.917267,106.020315 C511.917267,95.8450635 478.814885,102.832668 478.814885,81.1873597 C478.814885,71.6154617 487.09125,63.6812501 500.624901,63.6812501 C505.976426,63.6812501 510.780622,64.6552013 514.998954,66.4959653 L514.998954,79.6457059 C510.508823,76.0584373 504.868799,74.3730613 499.502812,74.3730613 C494.244966,74.3730613 491.315273,76.7029474 491.315273,80.152 C491.315273,89.2916115 524.332561,83.1714726 524.332561,104.641048 L524.332561,104.641048 Z M530.907504,64.5433966 L569.384458,64.5433966 L569.384458,75.3223744 L552.656966,75.3223744 L552.656966,122.058125 L540.331245,122.058125 L540.331245,75.3223744 L530.907504,75.3223744 L530.907504,64.5433966 Z M602.396147,112.227993 C591.794147,112.227993 584.983328,104.035642 584.983328,93.3438307 C584.983328,82.5662528 591.794147,74.4592946 602.396147,74.4592946 C613.001692,74.4592946 619.899752,82.5662528 619.899752,93.3438307 C619.899752,104.035642 613.001692,112.227993 602.396147,112.227993 L602.396147,112.227993 Z M602.396147,63.5953901 C585.070475,63.5953901 572.397938,76.0121476 572.397938,93.3438307 C572.397938,110.67682 585.070475,123.091991 602.396147,123.091991 C619.811112,123.091991 632.481596,110.67682 632.481596,93.3438307 C632.481596,76.0121476 619.811112,63.5953901 602.396147,63.5953901 L602.396147,63.5953901 Z" id="Fill-4" fill="#FEFEFE"></path>
                    <path d="M441.611633,112.227956 C431.006367,112.227956 424.194335,104.036258 424.194335,93.3425801 C424.194335,82.5664955 431.006367,74.4600972 441.611633,74.4600972 C452.215125,74.4600972 459.110945,82.5664955 459.110945,93.3425801 C459.110945,104.036258 452.215125,112.227956 441.611633,112.227956 L441.611633,112.227956 Z M441.611633,123.092047 C459.023238,123.092047 471.697641,110.676036 471.697641,93.3425801 C471.697641,76.0126702 459.023238,63.5966594 441.611633,63.5966594 C424.284002,63.5966594 411.608759,76.0126702 411.608759,93.3425801 C411.608759,110.676036 424.284002,123.092047 441.611633,123.092047 L441.611633,123.092047 Z M391.871799,122.058834 L391.871799,75.3228037 L408.595931,75.3228037 L408.595931,64.5441992 L370.121497,64.5441992 L370.121497,75.3228037 L379.542905,75.3228037 L379.542905,122.058834 L391.871799,122.058834 Z M289.582989,122.058834 L289.582989,98.5166724 L311.569072,64.5441992 L297.600898,64.5441992 L283.464028,87.6543544 L269.150997,64.5441992 L255.187768,64.5441992 L277.342455,98.5166724 L277.342455,122.058834 L289.582989,122.058834 Z M183.281212,111.591659 C181.924739,112.002294 180.49073,112.227956 179.008763,112.227956 C168.576859,112.227956 160.990766,104.209191 160.990766,93.3420202 C160.990766,82.4789556 168.576859,74.4599106 179.008763,74.4599106 C184.956881,74.4599106 190.129913,78.1666366 192.54484,82.8240755 L203.061559,77.6504499 C199.010616,70.4933647 191.682046,63.5953528 179.008763,63.5953528 C161.767719,63.5953528 148.405189,75.6665237 148.405189,93.3420202 C148.405189,111.02069 161.767719,123.092047 179.008763,123.092047 C182.743213,123.092047 185.992197,122.474975 188.84258,121.438029 L183.281212,111.591659 Z M241.051925,100.156972 C247.258405,98.6929654 253.638434,93.2584933 253.638434,83.0832421 C253.638434,72.3904977 246.310797,64.5441992 234.326853,64.5441992 L207.430858,64.5441992 L213.522107,75.3228037 L232.51813,75.3228037 C237.43,75.3228037 241.138698,78.2549231 241.138698,83.0832421 C241.138698,87.9108145 237.43,90.8438672 232.51813,90.8438672 L222.292897,90.8438672 L239.929835,122.058834 L253.983664,122.058834 L241.051925,100.156972 Z M363.11595,83.0832421 C363.11595,93.08612 356.218263,101.621912 343.803342,101.621912 L329.150587,101.621912 L329.150587,122.058834 L316.909307,122.058834 L316.909307,90.8438672 L342.166114,90.8438672 C346.99429,90.8438672 350.616961,87.8250479 350.616961,83.0832421 C350.616961,78.2549231 346.99429,75.3228037 342.166114,75.3228037 L323.000276,75.3228037 L316.909307,64.5441992 L343.803342,64.5441992 C356.30681,64.5441992 363.11595,72.9941309 363.11595,83.0832421 L363.11595,83.0832421 Z" id="Fill-6" fill="#FEFEFE"></path>
                    <path d="M188.517812,108.761228 L194.35611,118.651274 C198.228093,116.016585 201.049925,112.506497 203.061587,108.951893 L192.544868,103.8645 C191.591568,105.702091 190.202905,107.387001 188.517812,108.761228" id="Fill-8" fill="#312D5C"></path>
                    <path d="M30.4620759,134.971405 L32.8874534,134.971405 L31.6876408,130.804581 L30.4620759,134.971405 Z M25.4959021,139.088859 L29.7265503,127.053806 L33.6399605,127.053806 L37.8700489,139.088859 L34.0411732,139.088859 L33.5901355,137.496529 L29.7600469,137.496529 L29.2940803,139.088859 L25.4959021,139.088859 Z" id="Fill-10" fill="#312D5C"></path>
                    <path d="M42.4681146,139.088878 L38.9749514,139.088878 L38.9749514,127.053824 L43.6790306,127.053824 L45.3440634,133.060199 C45.3659901,133.141299 45.4107767,133.328698 45.4749707,133.619129 C45.5405643,133.911146 45.6325633,134.311888 45.7533004,134.824715 C45.8290642,134.42164 45.9007227,134.067654 45.9633306,133.766024 C46.0302304,133.463461 46.088173,133.236865 46.1366918,133.083717 L47.8432454,127.053824 L52.5398602,127.053824 L52.5398602,139.088878 L49.0447376,139.088878 L49.0781408,133.165564 C49.0781408,132.806538 49.0788873,132.456192 49.0822463,132.115832 C49.0848588,131.775565 49.0882178,131.422979 49.0937228,131.058447 C48.9627222,131.678599 48.8031702,132.356053 48.6203851,133.092676 L48.5965923,133.198788 L47.1074399,139.088878 L44.4115704,139.088878 L42.9108482,133.330191 C42.8405893,133.067665 42.769584,132.767901 42.697459,132.431181 C42.6256139,132.092127 42.5358543,131.635576 42.4197825,131.058447 C42.4375105,131.57482 42.4483339,132.019053 42.4580376,132.389277 C42.4661552,132.759689 42.4681146,133.056932 42.4681146,133.280635 L42.4681146,139.088878 Z" id="Fill-12" fill="#312D5C"></path>
                    <polygon id="Fill-14" fill="#312D5C" points="54.8112934 139.088878 54.8112934 127.053824 64.4254698 127.053824 64.4254698 129.938721 58.6743187 129.938721 58.6743187 131.54057 63.5358972 131.54057 63.5358972 134.301716 58.6743187 134.301716 58.6743187 136.163851 64.6627452 136.163851 64.6627452 139.088878"></polygon>
                    <polygon id="Fill-16" fill="#312D5C" points="65.2174731 139.088878 69.3512704 132.830896 65.5858423 127.053824 69.9314426 127.053824 71.5393726 130.101855 73.2959379 127.053824 77.5434743 127.053824 73.6465791 132.830896 77.6745682 139.088878 73.3122663 139.088878 71.4908538 135.828251 69.6608573 139.088878"></polygon>
                    <polygon id="Fill-18" fill="#312D5C" points="78.6961771 139.088878 78.6961771 127.053824 87.794562 127.053824 87.794562 130.086176 82.5585493 130.086176 82.5585493 131.947751 86.7250035 131.947751 86.7250035 134.857286 82.5585493 134.857286 82.5585493 139.088878"></polygon>
                    <mask id="mask-2" fill="white">
                        <use xlink:href="#path-1"></use>
                    </mask>
                    <g id="Clip-21"></g>
                    <polygon id="Fill-20" fill="#312D5C" mask="url(#mask-2)" points="89.3305722 139.088831 93.2687083 139.088831 93.2687083 127.053778 89.3305722 127.053778"></polygon>
                    <path d="M95.6206919,139.088878 L95.6206919,127.053824 L99.2871231,127.053824 L102.661695,132.65087 C102.764704,132.809245 102.873778,133.032387 102.991063,133.321232 C103.108441,133.609796 103.231884,133.958089 103.361578,134.367137 C103.332187,134.154634 103.306341,133.920572 103.28936,133.663925 C103.272192,133.408958 103.264727,133.097062 103.264727,132.732904 L103.264727,127.053824 L106.949633,127.053824 L106.949633,139.088878 L103.264727,139.088878 L99.8921145,133.533082 C99.7885457,133.370135 99.6759262,133.139339 99.5525766,132.839109 C99.4317463,132.538692 99.3068105,132.195906 99.1806617,131.810375 C99.2196634,132.021386 99.2460688,132.244155 99.2632369,132.474951 C99.2804051,132.706773 99.2871231,133.032387 99.2871231,133.451982 L99.2871231,139.088878 L95.6206919,139.088878 Z" id="Fill-22" fill="#312D5C" mask="url(#mask-2)"></path>
                    <path d="M42.4948186,84.2824451 L25.2939895,84.2824451 L25.2939895,116.740049 C25.2939895,116.740049 30.2668812,95.8608543 42.4948186,84.2824451" id="Fill-23" fill="#E20E17" mask="url(#mask-2)"></path>
                    <path d="M83.242617,59.9553176 L87.6151826,67.6745992 C96.3575144,73.4897485 104.028702,79.7285982 85.3633528,98.8663279 C85.3633528,98.8663279 86.4002544,91.1916562 70.557857,87.1034131 C51.4641436,82.181488 25.1678221,102.36783 73.79667,123.09201 L106.949624,123.09201 L106.949624,32.9561706 L33.560819,32.9561706 C49.2875179,38.4834088 69.819159,46.9116888 83.242617,59.9553176" id="Fill-24" fill="#312D5C" mask="url(#mask-2)"></path>
                </g>
            </g>
        </g>
    </g>
</svg>