<?xml version="1.0" encoding="UTF-8"?>
<svg width="45px" height="45px" viewBox="0 0 45 45" version="1.1" xmlns="http://www.w3.org/2000/svg" xmlns:xlink="http://www.w3.org/1999/xlink">
    <!-- Generator: sketchtool 58 (101010) - https://sketch.com -->
    <title>2D48FDE8-F358-4E16-87DF-D521BC49FF8F</title>
    <desc>Created with sketchtool.</desc>
    <g id="Page-1" stroke="none" stroke-width="1" fill="none" fill-rule="evenodd">
        <g id="CRYPTOSTORE-JHON-version" transform="translate(-1622.000000, -31.000000)" fill="#FFFFFF" fill-rule="nonzero">
            <g id="user" transform="translate(1622.000000, 31.000000)">
                <path d="M44.55,22.275 C44.55,9.99297 34.55703,0 22.275,0 C9.99297,0 0,9.99297 0,22.275 C0,28.76229 2.78964,34.60968 7.23006,38.68398 L7.209,38.70261 L7.93152,39.31173 C7.9785,39.35142 8.02953,39.38382 8.07651,39.4227 C8.46045,39.74103 8.85816,40.04316 9.26316,40.33557 C9.39438,40.43034 9.5256,40.52511 9.65925,40.61745 C10.09179,40.91553 10.53567,41.19822 10.98927,41.46633 C11.08809,41.52465 11.18772,41.58135 11.28735,41.63805 C11.78388,41.92074 12.29094,42.18723 12.81015,42.43185 C12.84822,42.44967 12.8871,42.46587 12.92517,42.48369 C14.61726,43.2702 16.42356,43.84773 18.31248,44.18874 C18.36189,44.19765 18.4113,44.20656 18.46152,44.21547 C19.04796,44.31672 19.64088,44.39772 20.24109,44.45199 C20.31399,44.45847 20.38689,44.46252 20.4606,44.469 C21.05838,44.51841 21.66264,44.55 22.275,44.55 C22.88169,44.55 23.48028,44.51841 24.07482,44.47062 C24.15015,44.46414 24.22548,44.46009 24.30081,44.45361 C24.89616,44.39934 25.48422,44.32077 26.06499,44.22114 C26.11521,44.21223 26.16624,44.20332 26.21646,44.1936 C28.07703,43.85988 29.85741,43.29531 31.52763,42.52905 C31.58919,42.5007 31.65156,42.47397 31.71312,42.44481 C32.21289,42.20991 32.70132,41.95638 33.18003,41.68665 C33.2991,41.61942 33.41736,41.55138 33.53562,41.48172 C33.9714,41.22495 34.39989,40.95684 34.81623,40.67172 C34.96608,40.56966 35.11269,40.46193 35.26092,40.35501 C35.61651,40.09905 35.96562,39.83499 36.30501,39.55878 C36.38034,39.49803 36.46134,39.44538 36.53505,39.38301 L37.2762,38.76417 L37.25433,38.74554 C41.73363,34.66962 44.55,28.7955 44.55,22.275 Z M1.62,22.275 C1.62,10.88559 10.88559,1.62 22.275,1.62 C33.66441,1.62 42.93,10.88559 42.93,22.275 C42.93,28.41237 40.23675,33.93009 35.97291,37.71603 C35.73477,37.5516 35.49501,37.40418 35.24958,37.28106 L28.39131,33.85233 C27.77571,33.54453 27.39339,32.92569 27.39339,32.238 L27.39339,29.84283 C27.55215,29.64681 27.71982,29.42487 27.89316,29.18106 C28.78092,27.92718 29.49291,26.53236 30.01212,25.03143 C31.03839,24.54381 31.70097,23.52159 31.70097,22.36734 L31.70097,19.49589 C31.70097,18.79362 31.44339,18.11241 30.9825,17.577 L30.9825,13.79673 C31.02462,13.37553 31.17366,11.00385 29.45727,9.04689 C27.96444,7.34265 25.54821,6.48 22.275,6.48 C19.00179,6.48 16.58556,7.34265 15.09273,9.04608 C13.37634,11.00304 13.52538,13.37634 13.5675,13.79592 L13.5675,17.57619 C13.10742,18.1116 12.84903,18.79281 12.84903,19.49508 L12.84903,22.36653 C12.84903,23.25834 13.24917,24.09021 13.93443,24.65154 C14.59053,27.22167 15.9408,29.16729 16.43976,29.82663 L16.43976,32.17077 C16.43976,32.83173 16.07931,33.43923 15.49854,33.75675 L9.09387,37.25028 C8.88975,37.36125 8.68725,37.49085 8.48475,37.63584 C4.27356,33.85152 1.62,28.36782 1.62,22.275 Z" id="Shape"></path>
            </g>
        </g>
    </g>
</svg>