<svg xmlns="http://www.w3.org/2000/svg" viewBox="0 0 211 20.053">
  <defs>
    <style>
      .cls-1 {
        fill: #fff;
      }
    </style>
  </defs>
  <g id="download" transform="translate(0.019 -9.84)">
    <path id="Path_25" data-name="Path 25" class="cls-1" d="M135.728,70.048h2.295V66.413h-4.445Z" transform="translate(72.958 -40.503)"/>
    <path id="Path_26" data-name="Path 26" class="cls-1" d="M42.254,39.84A9.732,9.732,0,0,0,32.141,49.866,9.732,9.732,0,0,0,42.254,59.893,9.738,9.738,0,0,0,52.4,49.866,9.739,9.739,0,0,0,42.254,39.84Zm0,16.391c-3.575,0-5.87-2.761-5.87-6.365,0-3.632,2.3-6.364,5.87-6.364s5.9,2.733,5.9,6.364C48.156,53.47,45.829,56.231,42.254,56.231Zm-24.1-16.072H31.126v3.635h-5.64V59.545H21.331V43.792H18.154V40.159ZM15.937,53.675c0,3.544-2.528,6.218-7.761,6.218a11.049,11.049,0,0,1-8.2-3.081l2.238-3.137A8.506,8.506,0,0,0,8.38,56.289c2.268,0,3.372-1.046,3.372-2.15,0-3.43-11.161-1.075-11.161-8.371,0-3.226,2.79-5.9,7.353-5.9a12,12,0,0,1,4.845.949v4.431a8.417,8.417,0,0,0-5.224-1.777c-1.773,0-2.76.786-2.76,1.948C4.806,48.5,15.937,46.437,15.937,53.675ZM85.218,40.159v3.635H71.5V40.159H85.218ZM81.049,59.545H71.5V47.889H85.014v3.633H75.626V55.91H78.9Zm-16.9-7.383,4.359,7.383H63.769L57.824,49.024h3.446a2.63,2.63,0,1,0,0-5.231h-6.4l-2.054-3.633h9.066c4.042,0,6.512,2.645,6.512,6.249A5.562,5.562,0,0,1,64.147,52.162Z" transform="translate(125.763 -30)"/>
    <g id="Group_23" data-name="Group 23" transform="translate(-0.019 9.985)">
      <path id="Path_27" data-name="Path 27" class="cls-1" d="M71.838,16.551c0,3.347-2.308,6.2-6.463,6.2h-4.9v6.838h-4.1V19.148h8.451a2.606,2.606,0,1,0,0-5.194H58.414l-2.038-3.607h9C69.559,10.348,71.838,13.175,71.838,16.551ZM30.987,22.263A5.522,5.522,0,0,0,35.2,16.551c0-3.578-2.454-6.2-6.463-6.2h-9l2.038,3.607h6.358a2.611,2.611,0,1,1,0,5.194H24.71l5.9,10.444h4.7ZM11.653,26.09a4.936,4.936,0,0,1-1.43.212,5.993,5.993,0,0,1-6.03-6.319,5.993,5.993,0,0,1,6.03-6.318,5.219,5.219,0,0,1,4.531,2.8l3.521-1.731a8.811,8.811,0,0,0-8.051-4.7c-5.77,0-10.242,4.039-10.242,9.953s4.473,9.954,10.242,9.954a9.539,9.539,0,0,0,3.291-.553Zm35.578,3.5V21.715l7.357-11.367H49.912l-4.73,7.733-4.79-7.733H35.719l7.414,11.367v7.877Zm34.23,0V13.955h5.6V10.348H74.184v3.607h3.152V29.593Zm16.649.345a9.67,9.67,0,0,0,10.069-9.954,10.056,10.056,0,0,0-20.111,0A9.663,9.663,0,0,0,98.11,29.938Zm0-3.636c-3.549,0-5.829-2.74-5.829-6.319,0-3.605,2.28-6.318,5.829-6.318s5.858,2.713,5.858,6.318C103.966,23.562,101.658,26.3,98.11,26.3Z" transform="translate(0.019 -10.03)"/>
      <path id="Path_28" data-name="Path 28" class="cls-1" d="M17.593,29.347l1.955,3.309a9.622,9.622,0,0,0,2.914-3.245l-3.521-1.7A5.279,5.279,0,0,1,17.593,29.347Z" transform="translate(-4.169 -14.234)"/>
    </g>
  </g>
</svg>
