<?xml version="1.0" encoding="UTF-8"?>
<svg width="499px" height="379px" viewBox="0 0 499 379" version="1.1" xmlns="http://www.w3.org/2000/svg" xmlns:xlink="http://www.w3.org/1999/xlink">
    <!-- Generator: sketchtool 61 (101010) - https://sketch.com -->
    <title>D1A4B4B1-1F6B-4178-85FB-E6878592CA93</title>
    <desc>Created with sketchtool.</desc>
    <g id="Page-1" stroke="none" stroke-width="1" fill="none" fill-rule="evenodd" opacity="0.125558036">
        <g id="Home-crypto" transform="translate(-1.000000, -48.000000)" fill="#D8EDFF">
            <g id="Header" transform="translate(-3023.000000, -3364.000000)">
                <g id="Textura-izquierda" transform="translate(2940.000000, 3412.000000)">
                    <g id="Group-355">
                        <path d="M89.0002,-0.0001 C91.7612,-0.0001 94.0002,2.2389 94.0002,4.9999 C94.0002,7.7619 91.7612,9.9999 89.0002,9.9999 C86.2382,9.9999 84.0002,7.7619 84.0002,4.9999 C84.0002,2.2389 86.2382,-0.0001 89.0002,-0.0001" id="Fill-277"></path>
                        <path d="M89.0002,40.9999 C91.7612,40.9999 94.0002,43.2389 94.0002,45.9999 C94.0002,48.7619 91.7612,50.9999 89.0002,50.9999 C86.2382,50.9999 84.0002,48.7619 84.0002,45.9999 C84.0002,43.2389 86.2382,40.9999 89.0002,40.9999" id="Fill-279"></path>
                        <path d="M131.0002,40.9999 C133.7612,40.9999 136.0002,43.2389 136.0002,45.9999 C136.0002,48.7619 133.7612,50.9999 131.0002,50.9999 C128.2382,50.9999 126.0002,48.7619 126.0002,45.9999 C126.0002,43.2389 128.2382,40.9999 131.0002,40.9999" id="Fill-285"></path>
                        <path d="M173.0002,40.9999 C175.7612,40.9999 178.0002,43.2389 178.0002,45.9999 C178.0002,48.7619 175.7612,50.9999 173.0002,50.9999 C170.2382,50.9999 168.0002,48.7619 168.0002,45.9999 C168.0002,43.2389 170.2382,40.9999 173.0002,40.9999" id="Fill-287"></path>
                        <path d="M89.0002,81.9999 C91.7612,81.9999 94.0002,84.2389 94.0002,86.9999 C94.0002,89.7619 91.7612,91.9999 89.0002,91.9999 C86.2382,91.9999 84.0002,89.7619 84.0002,86.9999 C84.0002,84.2389 86.2382,81.9999 89.0002,81.9999" id="Fill-289"></path>
                        <path d="M131.0002,81.9999 C133.7612,81.9999 136.0002,84.2389 136.0002,86.9999 C136.0002,89.7619 133.7612,91.9999 131.0002,91.9999 C128.2382,91.9999 126.0002,89.7619 126.0002,86.9999 C126.0002,84.2389 128.2382,81.9999 131.0002,81.9999" id="Fill-295"></path>
                        <path d="M173.0002,81.9999 C175.7612,81.9999 178.0002,84.2389 178.0002,86.9999 C178.0002,89.7619 175.7612,91.9999 173.0002,91.9999 C170.2382,91.9999 168.0002,89.7619 168.0002,86.9999 C168.0002,84.2389 170.2382,81.9999 173.0002,81.9999" id="Fill-297"></path>
                        <path d="M215.0002,81.9999 C217.7612,81.9999 220.0002,84.2389 220.0002,86.9999 C220.0002,89.7619 217.7612,91.9999 215.0002,91.9999 C212.2382,91.9999 210.0002,89.7619 210.0002,86.9999 C210.0002,84.2389 212.2382,81.9999 215.0002,81.9999" id="Fill-299"></path>
                        <path d="M89.0002,122.9999 C91.7612,122.9999 94.0002,125.2389 94.0002,127.9999 C94.0002,130.7619 91.7612,132.9999 89.0002,132.9999 C86.2382,132.9999 84.0002,130.7619 84.0002,127.9999 C84.0002,125.2389 86.2382,122.9999 89.0002,122.9999" id="Fill-301"></path>
                        <path d="M131.0002,122.9999 C133.7612,122.9999 136.0002,125.2389 136.0002,127.9999 C136.0002,130.7619 133.7612,132.9999 131.0002,132.9999 C128.2382,132.9999 126.0002,130.7619 126.0002,127.9999 C126.0002,125.2389 128.2382,122.9999 131.0002,122.9999" id="Fill-307"></path>
                        <path d="M173.0002,122.9999 C175.7612,122.9999 178.0002,125.2389 178.0002,127.9999 C178.0002,130.7619 175.7612,132.9999 173.0002,132.9999 C170.2382,132.9999 168.0002,130.7619 168.0002,127.9999 C168.0002,125.2389 170.2382,122.9999 173.0002,122.9999" id="Fill-309"></path>
                        <path d="M215.0002,122.9999 C217.7612,122.9999 220.0002,125.2389 220.0002,127.9999 C220.0002,130.7619 217.7612,132.9999 215.0002,132.9999 C212.2382,132.9999 210.0002,130.7619 210.0002,127.9999 C210.0002,125.2389 212.2382,122.9999 215.0002,122.9999" id="Fill-311"></path>
                        <path d="M89.0002,163.9999 C91.7612,163.9999 94.0002,166.2389 94.0002,168.9999 C94.0002,171.7619 91.7612,173.9999 89.0002,173.9999 C86.2382,173.9999 84.0002,171.7619 84.0002,168.9999 C84.0002,166.2389 86.2382,163.9999 89.0002,163.9999" id="Fill-313"></path>
                        <path d="M131.0002,163.9999 C133.7612,163.9999 136.0002,166.2389 136.0002,168.9999 C136.0002,171.7619 133.7612,173.9999 131.0002,173.9999 C128.2382,173.9999 126.0002,171.7619 126.0002,168.9999 C126.0002,166.2389 128.2382,163.9999 131.0002,163.9999" id="Fill-319"></path>
                        <path d="M173.0002,163.9999 C175.7612,163.9999 178.0002,166.2389 178.0002,168.9999 C178.0002,171.7619 175.7612,173.9999 173.0002,173.9999 C170.2382,173.9999 168.0002,171.7619 168.0002,168.9999 C168.0002,166.2389 170.2382,163.9999 173.0002,163.9999" id="Fill-321"></path>
                        <path d="M215.0002,163.9999 C217.7612,163.9999 220.0002,166.2389 220.0002,168.9999 C220.0002,171.7619 217.7612,173.9999 215.0002,173.9999 C212.2382,173.9999 210.0002,171.7619 210.0002,168.9999 C210.0002,166.2389 212.2382,163.9999 215.0002,163.9999" id="Fill-323"></path>
                        <path d="M89.0002,204.9999 C91.7612,204.9999 94.0002,207.2389 94.0002,209.9999 C94.0002,212.7619 91.7612,214.9999 89.0002,214.9999 C86.2382,214.9999 84.0002,212.7619 84.0002,209.9999 C84.0002,207.2389 86.2382,204.9999 89.0002,204.9999" id="Fill-325"></path>
                        <path d="M131.0002,204.9999 C133.7612,204.9999 136.0002,207.2389 136.0002,209.9999 C136.0002,212.7619 133.7612,214.9999 131.0002,214.9999 C128.2382,214.9999 126.0002,212.7619 126.0002,209.9999 C126.0002,207.2389 128.2382,204.9999 131.0002,204.9999" id="Fill-331"></path>
                        <path d="M173.0002,204.9999 C175.7612,204.9999 178.0002,207.2389 178.0002,209.9999 C178.0002,212.7619 175.7612,214.9999 173.0002,214.9999 C170.2382,214.9999 168.0002,212.7619 168.0002,209.9999 C168.0002,207.2389 170.2382,204.9999 173.0002,204.9999" id="Fill-333"></path>
                        <path d="M215.0002,204.9999 C217.7612,204.9999 220.0002,207.2389 220.0002,209.9999 C220.0002,212.7619 217.7612,214.9999 215.0002,214.9999 C212.2382,214.9999 210.0002,212.7619 210.0002,209.9999 C210.0002,207.2389 212.2382,204.9999 215.0002,204.9999" id="Fill-335"></path>
                        <path d="M89.0002,245.9999 C91.7612,245.9999 94.0002,248.2389 94.0002,250.9999 C94.0002,253.7619 91.7612,255.9999 89.0002,255.9999 C86.2382,255.9999 84.0002,253.7619 84.0002,250.9999 C84.0002,248.2389 86.2382,245.9999 89.0002,245.9999" id="Fill-337"></path>
                        <path d="M131.0002,245.9999 C133.7612,245.9999 136.0002,248.2389 136.0002,250.9999 C136.0002,253.7619 133.7612,255.9999 131.0002,255.9999 C128.2382,255.9999 126.0002,253.7619 126.0002,250.9999 C126.0002,248.2389 128.2382,245.9999 131.0002,245.9999" id="Fill-343"></path>
                        <path d="M173.0002,245.9999 C175.7612,245.9999 178.0002,248.2389 178.0002,250.9999 C178.0002,253.7619 175.7612,255.9999 173.0002,255.9999 C170.2382,255.9999 168.0002,253.7619 168.0002,250.9999 C168.0002,248.2389 170.2382,245.9999 173.0002,245.9999" id="Fill-345"></path>
                        <path d="M215.0002,245.9999 C217.7612,245.9999 220.0002,248.2389 220.0002,250.9999 C220.0002,253.7619 217.7612,255.9999 215.0002,255.9999 C212.2382,255.9999 210.0002,253.7619 210.0002,250.9999 C210.0002,248.2389 212.2382,245.9999 215.0002,245.9999" id="Fill-347"></path>
                        <path d="M257.0002,122.9999 C259.7612,122.9999 262.0002,125.2389 262.0002,127.9999 C262.0002,130.7619 259.7612,132.9999 257.0002,132.9999 C254.2382,132.9999 252.0002,130.7619 252.0002,127.9999 C252.0002,125.2389 254.2382,122.9999 257.0002,122.9999" id="Fill-349"></path>
                        <path d="M257.0002,163.9999 C259.7612,163.9999 262.0002,166.2389 262.0002,168.9999 C262.0002,171.7619 259.7612,173.9999 257.0002,173.9999 C254.2382,173.9999 252.0002,171.7619 252.0002,168.9999 C252.0002,166.2389 254.2382,163.9999 257.0002,163.9999" id="Fill-351"></path>
                        <path d="M257.0002,204.9999 C259.7612,204.9999 262.0002,207.2389 262.0002,209.9999 C262.0002,212.7619 259.7612,214.9999 257.0002,214.9999 C254.2382,214.9999 252.0002,212.7619 252.0002,209.9999 C252.0002,207.2389 254.2382,204.9999 257.0002,204.9999" id="Fill-353"></path>
                    </g>
                    <g id="Group-438" transform="translate(293.000000, 123.000000)">
                        <path d="M5.0002,-0.0001 C7.7612,-0.0001 10.0002,2.2389 10.0002,4.9999 C10.0002,7.7619 7.7612,9.9999 5.0002,9.9999 C2.2382,9.9999 0.0002,7.7619 0.0002,4.9999 C0.0002,2.2389 2.2382,-0.0001 5.0002,-0.0001" id="Fill-356"></path>
                        <path d="M47.0002,-0.0001 C49.7612,-0.0001 52.0002,2.2389 52.0002,4.9999 C52.0002,7.7619 49.7612,9.9999 47.0002,9.9999 C44.2382,9.9999 42.0002,7.7619 42.0002,4.9999 C42.0002,2.2389 44.2382,-0.0001 47.0002,-0.0001" id="Fill-358"></path>
                        <path d="M89.0002,-0.0001 C91.7612,-0.0001 94.0002,2.2389 94.0002,4.9999 C94.0002,7.7619 91.7612,9.9999 89.0002,9.9999 C86.2382,9.9999 84.0002,7.7619 84.0002,4.9999 C84.0002,2.2389 86.2382,-0.0001 89.0002,-0.0001" id="Fill-360"></path>
                        <path d="M89.0002,40.9999 C91.7612,40.9999 94.0002,43.2389 94.0002,45.9999 C94.0002,48.7619 91.7612,50.9999 89.0002,50.9999 C86.2382,50.9999 84.0002,48.7619 84.0002,45.9999 C84.0002,43.2389 86.2382,40.9999 89.0002,40.9999" id="Fill-362"></path>
                        <path d="M47.0002,40.9999 C49.7612,40.9999 52.0002,43.2389 52.0002,45.9999 C52.0002,48.7619 49.7612,50.9999 47.0002,50.9999 C44.2382,50.9999 42.0002,48.7619 42.0002,45.9999 C42.0002,43.2389 44.2382,40.9999 47.0002,40.9999" id="Fill-364"></path>
                        <path d="M5.0002,40.9999 C7.7612,40.9999 10.0002,43.2389 10.0002,45.9999 C10.0002,48.7619 7.7612,50.9999 5.0002,50.9999 C2.2382,50.9999 0.0002,48.7619 0.0002,45.9999 C0.0002,43.2389 2.2382,40.9999 5.0002,40.9999" id="Fill-366"></path>
                        <path d="M131.0002,40.9999 C133.7612,40.9999 136.0002,43.2389 136.0002,45.9999 C136.0002,48.7619 133.7612,50.9999 131.0002,50.9999 C128.2382,50.9999 126.0002,48.7619 126.0002,45.9999 C126.0002,43.2389 128.2382,40.9999 131.0002,40.9999" id="Fill-368"></path>
                        <path d="M173.0002,40.9999 C175.7612,40.9999 178.0002,43.2389 178.0002,45.9999 C178.0002,48.7619 175.7612,50.9999 173.0002,50.9999 C170.2382,50.9999 168.0002,48.7619 168.0002,45.9999 C168.0002,43.2389 170.2382,40.9999 173.0002,40.9999" id="Fill-370"></path>
                        <path d="M89.0002,81.9999 C91.7612,81.9999 94.0002,84.2389 94.0002,86.9999 C94.0002,89.7619 91.7612,91.9999 89.0002,91.9999 C86.2382,91.9999 84.0002,89.7619 84.0002,86.9999 C84.0002,84.2389 86.2382,81.9999 89.0002,81.9999" id="Fill-372"></path>
                        <path d="M47.0002,81.9999 C49.7612,81.9999 52.0002,84.2389 52.0002,86.9999 C52.0002,89.7619 49.7612,91.9999 47.0002,91.9999 C44.2382,91.9999 42.0002,89.7619 42.0002,86.9999 C42.0002,84.2389 44.2382,81.9999 47.0002,81.9999" id="Fill-374"></path>
                        <path d="M5.0002,81.9999 C7.7612,81.9999 10.0002,84.2389 10.0002,86.9999 C10.0002,89.7619 7.7612,91.9999 5.0002,91.9999 C2.2382,91.9999 0.0002,89.7619 0.0002,86.9999 C0.0002,84.2389 2.2382,81.9999 5.0002,81.9999" id="Fill-376"></path>
                        <path d="M131.0002,81.9999 C133.7612,81.9999 136.0002,84.2389 136.0002,86.9999 C136.0002,89.7619 133.7612,91.9999 131.0002,91.9999 C128.2382,91.9999 126.0002,89.7619 126.0002,86.9999 C126.0002,84.2389 128.2382,81.9999 131.0002,81.9999" id="Fill-378"></path>
                        <path d="M173.0002,81.9999 C175.7612,81.9999 178.0002,84.2389 178.0002,86.9999 C178.0002,89.7619 175.7612,91.9999 173.0002,91.9999 C170.2382,91.9999 168.0002,89.7619 168.0002,86.9999 C168.0002,84.2389 170.2382,81.9999 173.0002,81.9999" id="Fill-380"></path>
                        <path d="M215.0002,81.9999 C217.7612,81.9999 220.0002,84.2389 220.0002,86.9999 C220.0002,89.7619 217.7612,91.9999 215.0002,91.9999 C212.2382,91.9999 210.0002,89.7619 210.0002,86.9999 C210.0002,84.2389 212.2382,81.9999 215.0002,81.9999" id="Fill-382"></path>
                        <path d="M89.0002,122.9999 C91.7612,122.9999 94.0002,125.2389 94.0002,127.9999 C94.0002,130.7619 91.7612,132.9999 89.0002,132.9999 C86.2382,132.9999 84.0002,130.7619 84.0002,127.9999 C84.0002,125.2389 86.2382,122.9999 89.0002,122.9999" id="Fill-384"></path>
                        <path d="M47.0002,122.9999 C49.7612,122.9999 52.0002,125.2389 52.0002,127.9999 C52.0002,130.7619 49.7612,132.9999 47.0002,132.9999 C44.2382,132.9999 42.0002,130.7619 42.0002,127.9999 C42.0002,125.2389 44.2382,122.9999 47.0002,122.9999" id="Fill-386"></path>
                        <path d="M5.0002,122.9999 C7.7612,122.9999 10.0002,125.2389 10.0002,127.9999 C10.0002,130.7619 7.7612,132.9999 5.0002,132.9999 C2.2382,132.9999 0.0002,130.7619 0.0002,127.9999 C0.0002,125.2389 2.2382,122.9999 5.0002,122.9999" id="Fill-388"></path>
                        <path d="M131.0002,122.9999 C133.7612,122.9999 136.0002,125.2389 136.0002,127.9999 C136.0002,130.7619 133.7612,132.9999 131.0002,132.9999 C128.2382,132.9999 126.0002,130.7619 126.0002,127.9999 C126.0002,125.2389 128.2382,122.9999 131.0002,122.9999" id="Fill-390"></path>
                        <path d="M173.0002,122.9999 C175.7612,122.9999 178.0002,125.2389 178.0002,127.9999 C178.0002,130.7619 175.7612,132.9999 173.0002,132.9999 C170.2382,132.9999 168.0002,130.7619 168.0002,127.9999 C168.0002,125.2389 170.2382,122.9999 173.0002,122.9999" id="Fill-392"></path>
                        <path d="M215.0002,122.9999 C217.7612,122.9999 220.0002,125.2389 220.0002,127.9999 C220.0002,130.7619 217.7612,132.9999 215.0002,132.9999 C212.2382,132.9999 210.0002,130.7619 210.0002,127.9999 C210.0002,125.2389 212.2382,122.9999 215.0002,122.9999" id="Fill-394"></path>
                        <path d="M89.0002,163.9999 C91.7612,163.9999 94.0002,166.2389 94.0002,168.9999 C94.0002,171.7619 91.7612,173.9999 89.0002,173.9999 C86.2382,173.9999 84.0002,171.7619 84.0002,168.9999 C84.0002,166.2389 86.2382,163.9999 89.0002,163.9999" id="Fill-396"></path>
                        <path d="M47.0002,163.9999 C49.7612,163.9999 52.0002,166.2389 52.0002,168.9999 C52.0002,171.7619 49.7612,173.9999 47.0002,173.9999 C44.2382,173.9999 42.0002,171.7619 42.0002,168.9999 C42.0002,166.2389 44.2382,163.9999 47.0002,163.9999" id="Fill-398"></path>
                        <path d="M5.0002,163.9999 C7.7612,163.9999 10.0002,166.2389 10.0002,168.9999 C10.0002,171.7619 7.7612,173.9999 5.0002,173.9999 C2.2382,173.9999 0.0002,171.7619 0.0002,168.9999 C0.0002,166.2389 2.2382,163.9999 5.0002,163.9999" id="Fill-400"></path>
                        <path d="M131.0002,163.9999 C133.7612,163.9999 136.0002,166.2389 136.0002,168.9999 C136.0002,171.7619 133.7612,173.9999 131.0002,173.9999 C128.2382,173.9999 126.0002,171.7619 126.0002,168.9999 C126.0002,166.2389 128.2382,163.9999 131.0002,163.9999" id="Fill-402"></path>
                        <path d="M173.0002,163.9999 C175.7612,163.9999 178.0002,166.2389 178.0002,168.9999 C178.0002,171.7619 175.7612,173.9999 173.0002,173.9999 C170.2382,173.9999 168.0002,171.7619 168.0002,168.9999 C168.0002,166.2389 170.2382,163.9999 173.0002,163.9999" id="Fill-404"></path>
                        <path d="M215.0002,163.9999 C217.7612,163.9999 220.0002,166.2389 220.0002,168.9999 C220.0002,171.7619 217.7612,173.9999 215.0002,173.9999 C212.2382,173.9999 210.0002,171.7619 210.0002,168.9999 C210.0002,166.2389 212.2382,163.9999 215.0002,163.9999" id="Fill-406"></path>
                        <path d="M89.0002,204.9999 C91.7612,204.9999 94.0002,207.2389 94.0002,209.9999 C94.0002,212.7619 91.7612,214.9999 89.0002,214.9999 C86.2382,214.9999 84.0002,212.7619 84.0002,209.9999 C84.0002,207.2389 86.2382,204.9999 89.0002,204.9999" id="Fill-408"></path>
                        <path d="M47.0002,204.9999 C49.7612,204.9999 52.0002,207.2389 52.0002,209.9999 C52.0002,212.7619 49.7612,214.9999 47.0002,214.9999 C44.2382,214.9999 42.0002,212.7619 42.0002,209.9999 C42.0002,207.2389 44.2382,204.9999 47.0002,204.9999" id="Fill-410"></path>
                        <path d="M5.0002,204.9999 C7.7612,204.9999 10.0002,207.2389 10.0002,209.9999 C10.0002,212.7619 7.7612,214.9999 5.0002,214.9999 C2.2382,214.9999 0.0002,212.7619 0.0002,209.9999 C0.0002,207.2389 2.2382,204.9999 5.0002,204.9999" id="Fill-412"></path>
                        <path d="M131.0002,204.9999 C133.7612,204.9999 136.0002,207.2389 136.0002,209.9999 C136.0002,212.7619 133.7612,214.9999 131.0002,214.9999 C128.2382,214.9999 126.0002,212.7619 126.0002,209.9999 C126.0002,207.2389 128.2382,204.9999 131.0002,204.9999" id="Fill-414"></path>
                        <path d="M173.0002,204.9999 C175.7612,204.9999 178.0002,207.2389 178.0002,209.9999 C178.0002,212.7619 175.7612,214.9999 173.0002,214.9999 C170.2382,214.9999 168.0002,212.7619 168.0002,209.9999 C168.0002,207.2389 170.2382,204.9999 173.0002,204.9999" id="Fill-416"></path>
                        <path d="M215.0002,204.9999 C217.7612,204.9999 220.0002,207.2389 220.0002,209.9999 C220.0002,212.7619 217.7612,214.9999 215.0002,214.9999 C212.2382,214.9999 210.0002,212.7619 210.0002,209.9999 C210.0002,207.2389 212.2382,204.9999 215.0002,204.9999" id="Fill-418"></path>
                        <path d="M89.0002,245.9999 C91.7612,245.9999 94.0002,248.2389 94.0002,250.9999 C94.0002,253.7619 91.7612,255.9999 89.0002,255.9999 C86.2382,255.9999 84.0002,253.7619 84.0002,250.9999 C84.0002,248.2389 86.2382,245.9999 89.0002,245.9999" id="Fill-420"></path>
                        <path d="M47.0002,245.9999 C49.7612,245.9999 52.0002,248.2389 52.0002,250.9999 C52.0002,253.7619 49.7612,255.9999 47.0002,255.9999 C44.2382,255.9999 42.0002,253.7619 42.0002,250.9999 C42.0002,248.2389 44.2382,245.9999 47.0002,245.9999" id="Fill-422"></path>
                        <path d="M5.0002,245.9999 C7.7612,245.9999 10.0002,248.2389 10.0002,250.9999 C10.0002,253.7619 7.7612,255.9999 5.0002,255.9999 C2.2382,255.9999 0.0002,253.7619 0.0002,250.9999 C0.0002,248.2389 2.2382,245.9999 5.0002,245.9999" id="Fill-424"></path>
                        <path d="M131.0002,245.9999 C133.7612,245.9999 136.0002,248.2389 136.0002,250.9999 C136.0002,253.7619 133.7612,255.9999 131.0002,255.9999 C128.2382,255.9999 126.0002,253.7619 126.0002,250.9999 C126.0002,248.2389 128.2382,245.9999 131.0002,245.9999" id="Fill-426"></path>
                        <path d="M173.0002,245.9999 C175.7612,245.9999 178.0002,248.2389 178.0002,250.9999 C178.0002,253.7619 175.7612,255.9999 173.0002,255.9999 C170.2382,255.9999 168.0002,253.7619 168.0002,250.9999 C168.0002,248.2389 170.2382,245.9999 173.0002,245.9999" id="Fill-428"></path>
                        <path d="M215.0002,245.9999 C217.7612,245.9999 220.0002,248.2389 220.0002,250.9999 C220.0002,253.7619 217.7612,255.9999 215.0002,255.9999 C212.2382,255.9999 210.0002,253.7619 210.0002,250.9999 C210.0002,248.2389 212.2382,245.9999 215.0002,245.9999" id="Fill-430"></path>
                        <path d="M257.0002,122.9999 C259.7612,122.9999 262.0002,125.2389 262.0002,127.9999 C262.0002,130.7619 259.7612,132.9999 257.0002,132.9999 C254.2382,132.9999 252.0002,130.7619 252.0002,127.9999 C252.0002,125.2389 254.2382,122.9999 257.0002,122.9999" id="Fill-432"></path>
                        <path d="M257.0002,163.9999 C259.7612,163.9999 262.0002,166.2389 262.0002,168.9999 C262.0002,171.7619 259.7612,173.9999 257.0002,173.9999 C254.2382,173.9999 252.0002,171.7619 252.0002,168.9999 C252.0002,166.2389 254.2382,163.9999 257.0002,163.9999" id="Fill-434"></path>
                        <path d="M285,123 C287.761,123 290,125.239 290,128 C290,130.762 287.761,133 285,133 C282.238,133 280,130.762 280,128 C280,125.239 282.238,123 285,123" id="Fill-436"></path>
                    </g>
                </g>
            </g>
        </g>
    </g>
</svg>