<?xml version="1.0" encoding="utf-8"?>
<!-- Generator: Adobe Illustrator 16.0.0, SVG Export Plug-In . SVG Version: 6.00 Build 0)  -->
<!DOCTYPE svg PUBLIC "-//W3C//DTD SVG 1.1//EN" "http://www.w3.org/Graphics/SVG/1.1/DTD/svg11.dtd">
<svg version="1.1" id="Capa_1" xmlns="http://www.w3.org/2000/svg" xmlns:xlink="http://www.w3.org/1999/xlink" x="0px" y="0px"
	 width="250px" height="250px" viewBox="0 0 250 250" enable-background="new 0 0 250 250" xml:space="preserve">
<circle opacity="0.8" fill="#141937" enable-background="new    " cx="125" cy="125" r="125"/>
<path fill="#C0BFBF" d="M124.998,14.121c-61.233,0-110.877,49.644-110.877,110.881c0,61.241,49.644,110.877,110.877,110.877
	c61.24,0,110.885-49.636,110.885-110.877C235.883,63.765,186.238,14.121,124.998,14.121z M168.04,179.073H81.405l7.284-34.765
	l-14.16,9.709l3.434-19.023l14.81-10.194L107.3,55.464h27.048l-10,47.608l35.208-24.234L155.43,98.55l-35.2,24.137l-6.968,33.161
	h59.592L168.04,179.073z"/>
<path opacity="0.4" fill="#FFFFFF" enable-background="new    " d="M46.596,46.598c-43.3,43.304-43.301,113.513,0,156.816
	c83.813-20.631,62.767-148.31,156.806-156.816C160.102,3.294,89.898,3.294,46.596,46.598z"/>
</svg>
