<?xml version="1.0" encoding="utf-8"?>
<!-- Generator: Adobe Illustrator 16.0.0, SVG Export Plug-In . SVG Version: 6.00 Build 0)  -->
<!DOCTYPE svg PUBLIC "-//W3C//DTD SVG 1.1//EN" "http://www.w3.org/Graphics/SVG/1.1/DTD/svg11.dtd">
<svg version="1.1" id="Capa_1" xmlns="http://www.w3.org/2000/svg" xmlns:xlink="http://www.w3.org/1999/xlink" x="0px" y="0px"
	 width="250px" height="250px" viewBox="0 0 250 250" enable-background="new 0 0 250 250" xml:space="preserve">
<ellipse opacity="0.8" fill="#141937" enable-background="new    " cx="125" cy="125" rx="125" ry="125.006"/>
<path fill="#7797CE" d="M125.006,14.119C63.765,14.119,14.121,63.763,14.121,125c0,61.238,49.644,110.883,110.885,110.883
	c61.24,0,110.885-49.645,110.885-110.883C235.891,63.763,186.246,14.119,125.006,14.119z M171.414,174.402
	c-7.208,12.387-23.398,16.756-36.156,9.757C122.5,177.163,118,161.45,125.212,149.062c3.003-5.162,1.127-11.705-4.19-14.623
	c-5.241-2.873-11.872-1.145-14.936,3.856l0,0v-0.021c-0.046,0.078-0.084,0.152-0.126,0.228
	c-7.209,12.386-23.397,16.757-36.156,9.756c-12.759-6.993-17.258-22.71-10.05-35.095c7.209-12.388,23.393-16.755,36.155-9.756
	c4.264,2.342,7.602,5.654,9.895,9.492v-0.016l0,0c3.177,4.924,9.84,6.514,15.012,3.527c5.252-3.031,6.979-9.615,3.854-14.711
	c-7.487-12.229-3.347-28.036,9.251-35.301c12.595-7.27,28.874-3.251,36.366,8.978c7.49,12.228,3.352,28.03-9.248,35.3
	c-4.08,2.354-8.698,3.599-13.407,3.617l0.015,0.004l0,0c-6.043,0.206-10.846,5.055-10.771,10.956
	c0.067,5.979,5.126,10.771,11.284,10.702l-0.038,0.021c4.63-0.041,9.188,1.104,13.247,3.326
	C174.122,146.305,178.622,162.021,171.414,174.402z"/>
<path opacity="0.4" fill="#FFFFFF" enable-background="new    " d="M46.596,46.598c-43.3,43.304-43.301,113.513,0,156.816
	c83.813-20.631,62.767-148.31,156.806-156.816C160.102,3.294,89.898,3.294,46.596,46.598z"/>
</svg>
