<?xml version="1.0" encoding="utf-8"?>
<!-- Generator: Adobe Illustrator 16.0.0, SVG Export Plug-In . SVG Version: 6.00 Build 0)  -->
<!DOCTYPE svg PUBLIC "-//W3C//DTD SVG 1.1//EN" "http://www.w3.org/Graphics/SVG/1.1/DTD/svg11.dtd">
<svg version="1.1" id="Capa_1" xmlns="http://www.w3.org/2000/svg" xmlns:xlink="http://www.w3.org/1999/xlink" x="0px" y="0px"
	 width="250px" height="250px" viewBox="0 0 250 250" enable-background="new 0 0 250 250" xml:space="preserve">
<circle opacity="0.8" fill="#141937" enable-background="new    " cx="125" cy="125" r="125"/>
<g>
	<path fill="#618EB5" d="M154.1,164.502l-10.036,8.029l-10.52,2.721l-7.736,4.066l2.203,8.904l-1.229,2.746v4.057l5.193-2.744
		l21.375-10.105l13.513-7.416l0.892-10.029l-4.092-6.773L154.1,164.502z M112.765,175.662l-18.927-10.771l-8.646-7.047l-3.009,5.688
		l0.606,11.82l7.869,3.381l1.661,1.293l19.624,9.592l1.854,0.281l9.664,5.318l0.892,0.037v-4.805l1.1-2.455l-2.075-8.393
		L112.765,175.662z"/>
	<path fill="#618EB5" d="M124.999,14.122C63.764,14.122,14.12,63.765,14.12,125c0,61.236,49.644,110.878,110.88,110.878
		c61.235,0,110.879-49.643,110.879-110.878C235.878,63.765,186.234,14.122,124.999,14.122z M130.891,147.256l7.117-12.877
		l19.744,1.387l-1.863,20.406l-6.189,1.162l-0.357,1.885l-6.281,0.182l-2.78,3.766l-7.357,1.078l-2.511,2.783l-3.32-1.615
		l-2.422,4.035l-0.715-3.461L130.891,147.256z M122.177,163.795h-0.647l-4.037,1.885l-1.883-4.666l-5.025-1.973l-1.614,0.629
		l-0.717,1.885l-2.333-0.721l-3.947,2.066l-1.884-3.141l-7.805-3.918l-0.481-11.596l18.414-8.094l7.945-15.684l10.323,26.295
		L122.177,163.795z M138.01,131.943l-1.298-2.006l5.411-13.089v-6.752l10.847-14.804l11.396-3.994L161.9,115.53v14.265l-1.076,1.883
		l-1.796,1.744L138.01,131.943z M152.391,75.968l3.68,6.996l7.342,6.094l-10.949,3.839l-6.136-5.144l1.068-8.2l-9.401-9.033
		l-5.236-13.317L152.391,75.968z M128.405,52.948l7.522,18.957l8.9,8.552l-1.083,8.306l6.815,5.711l-10.867,14.829v7.065
		l-5.712,13.822l1.925,2.975l-5.934,10.738l-10.477-26.676l-1.363-16.182l13.843-9.938l1.215-7.281l-5.242-13.559l-0.074-17.606
		L128.405,52.948z M121.979,50.848l1.885-0.896l1.572,0.074l0.084,20.698l5.165,13.357l-0.941,5.638l-13.086,9.395L82.353,87.85
		L121.979,50.848z M115.722,101.361l1.34,15.9l-8.619,17.018l-18.027,7.924l-1.541-4.965l0.629-6.01L81.602,90.16L115.722,101.361z
		 M171.473,177.771l-15.98,8.764L134.1,196.65l-6.816,3.602l-5.173-0.232l-9.895-5.447l-1.732-0.26L89.735,184.17l-1.566-1.219
		l-10.075-4.334l-0.828-16.172l4.873-9.217l6.535-2.416l0.211,5.1l-1.525,0.562l7.856,6.406l18.664,10.621l10.435,3.859l8.349-4.389
		l10.29-2.662l9.737-7.787l8.759-5.998l-2.09-0.99l0.472-5.154l6.906,3.279l5.994,9.916L171.473,177.771z"/>
</g>
<path opacity="0.4" fill="#FFFFFF" enable-background="new    " d="M46.596,46.598c-43.3,43.304-43.301,113.513,0,156.816
	c83.813-20.631,62.767-148.31,156.806-156.816C160.102,3.294,89.898,3.294,46.596,46.598z"/>
</svg>
