<?xml version="1.0" encoding="utf-8"?>
<!-- Generator: Adobe Illustrator 16.0.0, SVG Export Plug-In . SVG Version: 6.00 Build 0)  -->
<!DOCTYPE svg PUBLIC "-//W3C//DTD SVG 1.1//EN" "http://www.w3.org/Graphics/SVG/1.1/DTD/svg11.dtd">
<svg version="1.1" id="Capa_1" xmlns="http://www.w3.org/2000/svg" xmlns:xlink="http://www.w3.org/1999/xlink" x="0px" y="0px"
	 width="250px" height="250px" viewBox="0 0 250 250" enable-background="new 0 0 250 250" xml:space="preserve">
<circle opacity="0.8" fill="#141937" enable-background="new    " cx="125" cy="125" r="125"/>
<path fill="#6DABE4" d="M125,14.122C63.762,14.122,14.121,63.763,14.121,125c0,61.236,49.642,110.878,110.879,110.878
	c61.237,0,110.879-49.643,110.879-110.878C235.879,63.763,186.236,14.122,125,14.122z M44.469,165.914
	c-7.429,0-13.453-6.023-13.453-13.451c0-7.431,6.023-13.454,13.453-13.454c7.43,0,13.453,6.023,13.453,13.454
	C57.921,159.891,51.899,165.914,44.469,165.914z M124.623,139.009c-7.563,0-13.453-6.169-13.453-13.451
	c0-9.531-3.079-13.172-13.453-13.172c-10.373,0-13.452,3.642-13.452,13.452v0.843c-0.281,6.723-6.17,12.329-13.172,12.329
	c-7.564,0-13.453-6.169-13.453-13.451c0-7.002,5.328-12.61,12.048-13.172h1.125c11.767,0,13.453-2.517,13.453-13.172
	c0-7.563,6.169-13.451,13.452-13.451c7.564,0,13.453,6.169,13.453,13.451c0,10.655,1.686,13.453,13.453,13.453h1.123
	c6.722,0.562,12.049,6.17,12.33,12.891C138.076,133.121,132.187,139.009,124.623,139.009z M204.496,112.105
	c-10.373,0-13.452,3.641-13.452,13.453v0.843c-0.281,7.002-6.171,12.608-13.173,12.608h-0.279
	c-10.093,0.282-13.173,3.924-13.173,13.454v1.123c-0.281,6.721-6.169,12.328-13.173,12.328c-7.562,0-13.451-6.168-13.451-13.451
	c0-6.723,5.326-12.329,12.047-13.172c0.282-0.282,0.844-0.282,1.404-0.282c11.487,0,13.453-2.517,13.453-12.891v-0.281
	c0-7,5.326-12.608,12.049-13.17h1.123c11.768,0,13.453-2.798,13.453-13.453c0-7.563,6.17-13.451,13.452-13.451
	s13.173,5.888,13.173,12.89C217.949,106.217,211.779,112.105,204.496,112.105z"/>
<path opacity="0.4" fill="#FFFFFF" enable-background="new    " d="M46.596,46.598c-43.3,43.304-43.301,113.513,0,156.816
	c83.813-20.631,62.767-148.31,156.806-156.816C160.102,3.294,89.898,3.294,46.596,46.598z"/>
</svg>
